Fraunces72ptExtraSoft-Light.ufo
<glyph name="exclam" format="2">
  <advance width="534.08"/>
  <unicode hex="0021"/>
  <outline>
    <contour>
      <point x="269.68" y="1459.7199999999998" type="curve" smooth="yes"/>
      <point x="209.11999999999998" y="1459.7199999999998"/>
      <point x="184.06666666666666" y="1423.1333333333334"/>
      <point x="184.06666666666666" y="1372.3733333333332" type="curve" smooth="yes"/>
      <point x="184.06666666666666" y="1357.1333333333332"/>
      <point x="184.7733333333333" y="1329.1066666666666"/>
      <point x="187.10666666666665" y="1305.2266666666667" type="curve" smooth="yes"/>
      <point x="226.10666666666665" y="441.2933333333333" type="line" smooth="yes"/>
      <point x="230.04" y="400.24"/>
      <point x="243.42666666666665" y="384.7866666666667"/>
      <point x="269.68" y="384.7866666666667" type="curve" smooth="yes"/>
      <point x="296.26666666666665" y="384.7866666666667"/>
      <point x="308.14666666666665" y="401.03999999999996"/>
      <point x="312.08000000000004" y="442.8933333333333" type="curve" smooth="yes"/>
      <point x="351.50666666666666" y="1305.2266666666667" type="line" smooth="yes"/>
      <point x="353.84" y="1329.1066666666666"/>
      <point x="354.92" y="1357.1333333333332"/>
      <point x="354.92" y="1372.3733333333332" type="curve" smooth="yes"/>
      <point x="354.92" y="1423.1333333333334"/>
      <point x="330.5733333333333" y="1459.7199999999998"/>
    </contour>
    <component base="period" xOffset="76.77333333333334"/>
  </outline>
</glyph>
<glyph name="numbersign" format="2">
  <advance width="1193.3733333333332"/>
  <unicode hex="0023"/>
  <outline>
    <contour>
      <point x="472.9733333333333" y="685.7733333333334" type="curve" smooth="yes"/>
      <point x="515.7336920056964" y="857.6677991588443"/>
      <point x="603.3199999999999" y="1176.2133333333334"/>
      <point x="643.24" y="1319.3733333333334" type="curve" smooth="yes"/>
      <point x="655.8266666666667" y="1366.8133333333333"/>
      <point x="647.8666666666667" y="1392.0"/>
      <point x="621.6266666666667" y="1399.5333333333333" type="curve" smooth="yes"/>
      <point x="594.64" y="1408.76"/>
      <point x="574.0133333333333" y="1390.3066666666666"/>
      <point x="561.8533333333332" y="1345.4666666666667" type="curve" smooth="yes"/>
      <point x="526.0400000000001" y="1202.3999999999999"/>
      <point x="451.5162651891347" y="886.5347870334459"/>
      <point x="407.4666666666667" y="715.0533333333334" type="curve" smooth="yes"/>
      <point x="362.74720554246204" y="536.9974382650355"/>
      <point x="260.62666666666667" y="216.64"/>
      <point x="221.58666666666667" y="65.94666666666666" type="curve" smooth="yes"/>
      <point x="211.60000000000002" y="26.506666666666664"/>
      <point x="220.35999999999999" y="-0.6800000000000006"/>
      <point x="247.12000000000003" y="-7.013333333333333" type="curve" smooth="yes"/>
      <point x="276.08" y="-13.640000000000002"/>
      <point x="294.90666666666664" y="4.613333333333333"/>
      <point x="305.6666666666667" y="43.959999999999994" type="curve" smooth="yes"/>
      <point x="341.64" y="180.05333333333334"/>
      <point x="428.83194772484" y="509.2912198662165"/>
    </contour>
    <contour>
      <point x="637.8933333333333" y="931.3066666666667" type="curve" smooth="yes"/>
      <point x="507.4133333333333" y="929.68"/>
      <point x="272.78666666666663" y="948.4666666666667"/>
      <point x="163.51999999999998" y="947.4666666666667" type="curve" smooth="yes"/>
      <point x="129.0" y="947.2666666666668"/>
      <point x="108.4" y="932.5066666666667"/>
      <point x="108.4" y="902.1866666666666" type="curve" smooth="yes"/>
      <point x="109.30666666666667" y="871.2933333333334"/>
      <point x="128.8" y="854.24"/>
      <point x="164.51999999999998" y="855.3333333333333" type="curve" smooth="yes"/>
      <point x="272.78666666666663" y="854.24"/>
      <point x="510.4133333333333" y="859.24"/>
      <point x="636.8933333333333" y="861.24" type="curve" smooth="yes"/>
      <point x="761.466529209622" y="861.24"/>
      <point x="990.4940487335653" y="851.1451352560554"/>
      <point x="1094.8533333333335" y="849.1066666666667" type="curve" smooth="yes"/>
      <point x="1134.8400000000001" y="850.3066666666666"/>
      <point x="1157.6933333333332" y="866.6400000000001"/>
      <point x="1158.0933333333332" y="897.9866666666667" type="curve" smooth="yes"/>
      <point x="1157.6933333333332" y="927.28"/>
      <point x="1134.64" y="941.4400000000002"/>
      <point x="1095.8533333333335" y="941.4400000000002" type="curve" smooth="yes"/>
      <point x="991.4940487335653" y="939.2015314106114"/>
      <point x="763.0931958762887" y="931.3066666666667"/>
    </contour>
    <contour>
      <point x="571.24" y="471.58666666666664" type="curve" smooth="yes"/>
      <point x="694.8865979381442" y="471.58666666666664"/>
      <point x="922.047029586761" y="461.3792341760585"/>
      <point x="1025.56" y="459.36" type="curve" smooth="yes"/>
      <point x="1065.4533333333331" y="460.56000000000006"/>
      <point x="1088.3999999999999" y="476.61333333333334"/>
      <point x="1089.6" y="508.3333333333333" type="curve" smooth="yes"/>
      <point x="1088.3999999999999" y="537.2533333333333"/>
      <point x="1065.3466666666666" y="551.4133333333334"/>
      <point x="1026.56" y="551.4133333333334" type="curve" smooth="yes"/>
      <point x="923.047029586761" y="549.1940991572749"/>
      <point x="696.513264604811" y="541.2800000000001"/>
      <point x="572.24" y="541.2800000000001" type="curve" smooth="yes"/>
      <point x="440.61381734440573" y="539.6351233691465"/>
      <point x="201.47168070705627" y="558.458209369224"/>
      <point x="91.29333333333332" y="557.44" type="curve" smooth="yes"/>
      <point x="55.973333333333336" y="557.24"/>
      <point x="35.28" y="542.4800000000001"/>
      <point x="35.28" y="512.5333333333333" type="curve" smooth="yes"/>
      <point x="36.28" y="481.5466666666666"/>
      <point x="55.77333333333333" y="464.58666666666664"/>
      <point x="91.49333333333333" y="465.58666666666664" type="curve" smooth="yes"/>
      <point x="201.47586575598567" y="464.5684127756455"/>
      <point x="442.8640933928468" y="469.5501668512449"/>
    </contour>
    <contour>
      <point x="634.1866666666666" y="43.959999999999994" type="curve" smooth="yes"/>
      <point x="669.0266666666666" y="180.85333333333332"/>
      <point x="756.4984307495552" y="509.28847408151944"/>
      <point x="801.0666666666666" y="685.7733333333334" type="curve" smooth="yes"/>
      <point x="844.6842615766114" y="857.674814459601"/>
      <point x="932.2133333333334" y="1176.2133333333334"/>
      <point x="971.48" y="1319.3733333333334" type="curve" smooth="yes"/>
      <point x="983.64" y="1366.8133333333333"/>
      <point x="976.48" y="1392.0"/>
      <point x="950.52" y="1399.5333333333333" type="curve" smooth="yes"/>
      <point x="922.4533333333333" y="1408.76"/>
      <point x="902.7333333333333" y="1390.3066666666666"/>
      <point x="890.5733333333333" y="1345.4666666666667" type="curve" smooth="yes"/>
      <point x="853.2533333333333" y="1202.3999999999999"/>
      <point x="780.329598522468" y="886.5347870334459"/>
      <point x="736.2800000000001" y="715.0533333333334" type="curve" smooth="yes"/>
      <point x="689.8565835190166" y="536.9945515421545"/>
      <point x="588.72" y="216.64"/>
      <point x="549.7733333333333" y="65.94666666666666" type="curve" smooth="yes"/>
      <point x="540.2133333333334" y="26.506666666666664"/>
      <point x="548.9733333333334" y="-0.6800000000000006"/>
      <point x="576.0133333333333" y="-7.013333333333333" type="curve" smooth="yes"/>
      <point x="604.5999999999999" y="-13.640000000000002"/>
      <point x="623.52" y="4.613333333333333"/>
    </contour>
  </outline>
</glyph>
<glyph name="dollar" format="2">
  <advance width="1082.4533333333334"/>
  <unicode hex="0024"/>
  <outline>
    <contour>
      <point x="565.3733333333333" y="1391.36" type="curve" smooth="yes"/>
      <point x="299.4741612200435" y="1391.36"/>
      <point x="121.8" y="1223.5466666666666"/>
      <point x="121.8" y="1017.1999999999999" type="curve" smooth="yes"/>
      <point x="121.8" y="854.2533333333333"/>
      <point x="220.54666666666665" y="714.2933333333333"/>
      <point x="513.6800000000001" y="629.5733333333334" type="curve" smooth="yes"/>
      <point x="768.6390199647246" y="555.8024077432104"/>
      <point x="848.48" y="447.80000000000007"/>
      <point x="848.48" y="313.68" type="curve" smooth="yes"/>
      <point x="848.48" y="159.8"/>
      <point x="730.3466666666667" y="71.33333333333333"/>
      <point x="552.16" y="71.33333333333333" type="curve" smooth="yes"/>
      <point x="367.1466666666666" y="71.33333333333333"/>
      <point x="256.66666666666663" y="158.96"/>
      <point x="256.66666666666663" y="275.0" type="curve" smooth="yes"/>
      <point x="256.66666666666663" y="329.6933333333333" type="line" smooth="yes"/>
      <point x="256.66666666666663" y="381.8"/>
      <point x="229.14666666666665" y="413.4"/>
      <point x="187.06666666666666" y="413.4" type="curve" smooth="yes"/>
      <point x="142.84931323283084" y="413.4"/>
      <point x="111.64" y="370.5333333333333"/>
      <point x="111.64" y="309.33333333333337" type="curve" smooth="yes"/>
      <point x="111.64" y="144.81333333333333"/>
      <point x="299.05878894767784" y="6.026666666666667"/>
      <point x="552.56" y="6.026666666666667" type="curve" smooth="yes"/>
      <point x="816.8402555910543" y="6.026666666666667"/>
      <point x="977.3333333333334" y="153.94666666666666"/>
      <point x="977.3333333333334" y="364.3066666666667" type="curve" smooth="yes"/>
      <point x="977.3333333333334" y="512.5066666666667"/>
      <point x="872.0478242019303" y="660.016951335426"/>
      <point x="590.6533333333333" y="741.6" type="curve" smooth="yes"/>
      <point x="331.22666666666663" y="815.3066666666667"/>
      <point x="250.16" y="924.7866666666666"/>
      <point x="250.16" y="1058.3333333333333" type="curve" smooth="yes"/>
      <point x="250.16" y="1217.4102013422819"/>
      <point x="372.6133333333333" y="1329.7333333333331"/>
      <point x="556.9333333333333" y="1329.7333333333331" type="curve" smooth="yes"/>
      <point x="718.9866666666666" y="1329.7333333333331"/>
      <point x="817.4266666666666" y="1245.080769230769"/>
      <point x="817.4266666666666" y="1132.5733333333333" type="curve" smooth="yes"/>
      <point x="817.4266666666666" y="1080.3333333333335" type="line" smooth="yes"/>
      <point x="817.4266666666666" y="1035.8533333333332"/>
      <point x="848.7001626016261" y="1005.7866666666667"/>
      <point x="892.8399999999999" y="1005.7866666666667" type="curve" smooth="yes"/>
      <point x="930.0208051529789" y="1005.7866666666667"/>
      <point x="963.2800000000001" y="1042.3600000000001"/>
      <point x="963.2800000000001" y="1104.1333333333334" type="curve" smooth="yes"/>
      <point x="963.2800000000001" y="1267.5733333333333"/>
      <point x="811.2640940012368" y="1391.36"/>
    </contour>
    <contour>
      <point x="582.56" y="713.1333333333333" type="line"/>
      <point x="582.56" y="1300.7066666666665"/>
      <point x="610.4666666666666" y="1408.1466666666668"/>
      <point x="610.4666666666666" y="1477.8133333333333" type="curve" smooth="yes"/>
      <point x="610.4666666666666" y="1524.7566666666664"/>
      <point x="586.5733333333334" y="1547.4400000000003"/>
      <point x="557.2266666666667" y="1547.4400000000003" type="curve" smooth="yes"/>
      <point x="525.7066666666667" y="1547.4400000000003"/>
      <point x="500.41333333333336" y="1524.1566666666665"/>
      <point x="500.41333333333336" y="1479.04" type="curve" smooth="yes"/>
      <point x="500.41333333333336" y="1409.84"/>
      <point x="525.3199969673174" y="1300.612396234383"/>
      <point x="523.3199999999999" y="713.1333333333333" type="curve"/>
    </contour>
    <contour>
      <point x="521.08" y="675.9333333333333" type="line"/>
      <point x="521.08" y="117.5333333333333"/>
      <point x="496.79999999999995" y="12.866666666666667"/>
      <point x="496.79999999999995" y="-57.6" type="curve" smooth="yes"/>
      <point x="496.79999999999995" y="-112.76410256410256"/>
      <point x="518.6666666666667" y="-138.0"/>
      <point x="551.2133333333334" y="-138.0" type="curve" smooth="yes"/>
      <point x="585.56" y="-138.0"/>
      <point x="607.2266666666666" y="-112.92631578947368"/>
      <point x="607.2266666666666" y="-60.0" type="curve" smooth="yes"/>
      <point x="607.2266666666666" y="12.666666666666671"/>
      <point x="579.5466666666666" y="117.84000000000002"/>
      <point x="579.9466666666667" y="675.9333333333333" type="curve"/>
    </contour>
  </outline>
</glyph>
<glyph name="ampersand" format="2">
  <advance width="1769.84"/>
  <unicode hex="0026"/>
  <outline>
    <contour>
      <point x="1244.3866666666668" y="-36.733333333333334" type="curve" smooth="yes"/>
      <point x="1034.24" y="-36.733333333333334"/>
      <point x="901.9066666666666" y="62.06666666666667"/>
      <point x="756.2133333333333" y="292.56" type="curve" smooth="yes"/>
      <point x="614.8799999999999" y="514.0533333333334"/>
      <point x="544.08" y="703.4266666666666"/>
      <point x="544.08" y="894.4266666666666" type="curve" smooth="yes"/>
      <point x="544.08" y="1113.5333333333333"/>
      <point x="668.6266666666668" y="1261.7333333333333"/>
      <point x="864.9333333333333" y="1261.7333333333333" type="curve" smooth="yes"/>
      <point x="1013.9866666666668" y="1261.7333333333333"/>
      <point x="1116.4" y="1147.6"/>
      <point x="1116.4" y="984.7599999999999" type="curve" smooth="yes"/>
      <point x="1116.4" y="803.1466666666666"/>
      <point x="974.2933333333333" y="666.2666666666667"/>
      <point x="695.56" y="622.1333333333333" type="curve"/>
      <point x="688.0933333333332" y="682.3066666666667" type="line"/>
      <point x="892.12" y="730.1066666666667"/>
      <point x="995.0533333333334" y="829.6133333333332"/>
      <point x="995.0533333333334" y="998.4" type="curve" smooth="yes"/>
      <point x="995.0533333333334" y="1116.2266666666667"/>
      <point x="934.3466666666666" y="1194.2400000000002"/>
      <point x="853.7733333333334" y="1194.2400000000002" type="curve" smooth="yes"/>
      <point x="737.7733333333334" y="1194.2400000000002"/>
      <point x="665.6266666666667" y="1096.56"/>
      <point x="665.6266666666667" y="939.9733333333334" type="curve" smooth="yes"/>
      <point x="665.6266666666667" y="757.9066666666668"/>
      <point x="737.0533333333334" y="569.7733333333333"/>
      <point x="865.1866666666666" y="375.2133333333333" type="curve" smooth="yes"/>
      <point x="1014.9066666666668" y="146.07999999999998"/>
      <point x="1136.0133333333333" y="54.57333333333334"/>
      <point x="1274.88" y="54.57333333333334" type="curve" smooth="yes"/>
      <point x="1451.3199999999997" y="54.57333333333334"/>
      <point x="1604.8" y="185.0933333333333"/>
      <point x="1604.8" y="490.77333333333337" type="curve" smooth="yes"/>
      <point x="1604.8" y="799.9733333333334"/>
      <point x="1486.3333333333333" y="1058.0533333333333"/>
      <point x="1306.8666666666668" y="1235.5600000000002" type="curve" smooth="yes"/>
      <point x="1140.7066666666667" y="1401.9466666666667"/>
      <point x="940.9066666666668" y="1478.1066666666668"/>
      <point x="723.64" y="1478.1066666666668" type="curve" smooth="yes"/>
      <point x="413.24" y="1478.1066666666668"/>
      <point x="268.32" y="1319.3066666666668"/>
      <point x="268.32" y="1159.1333333333332" type="curve" smooth="yes"/>
      <point x="268.32" y="1068.5941712204008"/>
      <point x="326.56" y="1049.2795375722544"/>
      <point x="326.56" y="959.72" type="curve" smooth="yes"/>
      <point x="326.56" y="910.0188617886179"/>
      <point x="290.3530516431925" y="872.2533333333333"/>
      <point x="239.89333333333332" y="872.2533333333333" type="curve" smooth="yes"/>
      <point x="180.30250896057348" y="872.2533333333333"/>
      <point x="141.0" y="944.2249275362318"/>
      <point x="141.0" y="1042.2266666666667" type="curve" smooth="yes"/>
      <point x="141.0" y="1361.0"/>
      <point x="359.61333333333334" y="1553.0666666666666"/>
      <point x="726.1466666666666" y="1553.0666666666666" type="curve" smooth="yes"/>
      <point x="971.8133333333333" y="1553.0666666666666"/>
      <point x="1186.3466666666668" y="1471.5333333333333"/>
      <point x="1369.2533333333333" y="1294.56" type="curve" smooth="yes"/>
      <point x="1573.5466666666666" y="1097.8400000000001"/>
      <point x="1686.7599999999998" y="824.84"/>
      <point x="1686.7599999999998" y="493.48" type="curve" smooth="yes"/>
      <point x="1686.7599999999998" y="158.57333333333332"/>
      <point x="1513.3466666666668" y="-36.733333333333334"/>
    </contour>
    <contour>
      <point x="972.3466666666666" y="196.33333333333331" type="line"/>
      <point x="1110.1733333333332" y="304.3333333333333"/>
      <point x="1173.3333333333333" y="400.5733333333333"/>
      <point x="1173.3333333333333" y="493.1066666666667" type="curve" smooth="yes"/>
      <point x="1173.3333333333333" y="540.8266666666666"/>
      <point x="1151.8666666666668" y="561.48"/>
      <point x="1151.8666666666668" y="611.7733333333333" type="curve" smooth="yes"/>
      <point x="1151.8666666666668" y="661.1972649572649"/>
      <point x="1185.5000995024875" y="700.7066666666667"/>
      <point x="1229.8" y="700.7066666666667" type="curve" smooth="yes"/>
      <point x="1274.2103482587063" y="700.7066666666667"/>
      <point x="1311.68" y="653.2455913978496"/>
      <point x="1311.68" y="585.8533333333335" type="curve" smooth="yes"/>
      <point x="1311.68" y="435.60564705882354"/>
      <point x="1216.9286256955102" y="288.2573249796991"/>
      <point x="1007.88" y="150.53333333333333" type="curve"/>
    </contour>
    <contour>
      <point x="611.0533333333333" y="614.5333333333333" type="line"/>
      <point x="383.9200000000001" y="574.4"/>
      <point x="295.18666666666667" y="454.2"/>
      <point x="295.18666666666667" y="300.3733333333333" type="curve" smooth="yes"/>
      <point x="295.18666666666667" y="149.04"/>
      <point x="407.88000000000005" y="53.43999999999998"/>
      <point x="555.9333333333333" y="53.43999999999998" type="curve" smooth="yes"/>
      <point x="668.1466666666666" y="53.43999999999998"/>
      <point x="761.6266666666666" y="89.81333333333332"/>
      <point x="870.2266666666666" y="171.73333333333332" type="curve"/>
      <point x="906.4666666666667" y="119.96000000000001" type="line"/>
      <point x="781.0" y="15.386666666666667"/>
      <point x="658.0" y="-32.0"/>
      <point x="503.7733333333333" y="-32.0" type="curve" smooth="yes"/>
      <point x="283.92" y="-32.0"/>
      <point x="151.18666666666667" y="85.2"/>
      <point x="151.18666666666667" y="280.17333333333335" type="curve" smooth="yes"/>
      <point x="151.18666666666667" y="485.18666666666667"/>
      <point x="294.04" y="641.4666666666667"/>
      <point x="611.0533333333333" y="676.4266666666666" type="curve"/>
    </contour>
  </outline>
</glyph>
<glyph name="quotesingle" format="2">
  <advance width="258.25333333333333"/>
  <unicode hex="0027"/>
  <outline>
    <contour>
      <point x="126.06666666666666" y="956.0" type="curve" smooth="yes"/>
      <point x="147.97276976568403" y="956.0"/>
      <point x="163.65580932386902" y="969.0839320600193"/>
      <point x="166.7866666666667" y="1001.1866666666667" type="curve" smooth="yes"/>
      <point x="195.44" y="1440.7333333333331" type="line" smooth="yes"/>
      <point x="204.00922976551612" y="1511.456130711118"/>
      <point x="181.27200000000002" y="1546.8666666666666"/>
      <point x="129.46666666666667" y="1546.8666666666666" type="curve" smooth="yes"/>
      <point x="77.86133333333333" y="1546.8666666666666"/>
      <point x="54.358418010769405" y="1509.6286308116107"/>
      <point x="62.093333333333334" y="1440.5333333333333" type="curve" smooth="yes"/>
      <point x="85.37333333333333" y="1001.5866666666667" type="line" smooth="yes"/>
      <point x="88.11568538949456" y="970.4163489700287"/>
      <point x="105.70392817059482" y="956.0"/>
    </contour>
  </outline>
</glyph>
<glyph name="parenleft" format="2">
  <advance width="623.0933333333332"/>
  <unicode hex="0028"/>
  <outline>
    <contour>
      <point x="130.77333333333334" y="607.0666666666667" type="curve" smooth="yes"/>
      <point x="130.77333333333334" y="225.90666666666667"/>
      <point x="312.0666666666667" y="-117.32000000000001"/>
      <point x="532.6933333333333" y="-240.81333333333333" type="curve" smooth="yes"/>
      <point x="561.9066666666666" y="-254.28000000000003"/>
      <point x="583.8266666666666" y="-249.11999999999998"/>
      <point x="593.2933333333333" y="-228.74666666666667" type="curve" smooth="yes"/>
      <point x="602.0266666666666" y="-211.68"/>
      <point x="590.96" y="-191.70666666666665"/>
      <point x="569.3733333333332" y="-173.23999999999998" type="curve" smooth="yes"/>
      <point x="387.0666666666666" y="-22.14666666666667"/>
      <point x="257.2933333333333" y="270.2266666666667"/>
      <point x="257.2933333333333" y="607.0666666666667" type="curve" smooth="yes"/>
      <point x="257.2933333333333" y="944.0"/>
      <point x="388.09333333333336" y="1236.5600000000002"/>
      <point x="569.3733333333332" y="1387.0" type="curve" smooth="yes"/>
      <point x="590.8666666666667" y="1405.8399999999997"/>
      <point x="602.0266666666666" y="1424.7333333333333"/>
      <point x="593.2933333333333" y="1442.88" type="curve" smooth="yes"/>
      <point x="583.8266666666666" y="1462.88"/>
      <point x="561.9066666666666" y="1468.88"/>
      <point x="532.6933333333333" y="1455.4133333333334" type="curve" smooth="yes"/>
      <point x="311.6933333333333" y="1332.0133333333333"/>
      <point x="130.77333333333334" y="988.6933333333334"/>
    </contour>
  </outline>
</glyph>
<glyph name="asterisk" format="2">
  <advance width="1205.5733333333333"/>
  <unicode hex="002A"/>
  <outline>
    <contour>
      <point x="627.5600000000001" y="1011.5466666666667" type="line"/>
      <point x="627.5600000000001" y="1150.9733333333331"/>
      <point x="676.36" y="1356.6133333333335"/>
      <point x="676.36" y="1451.7866666666666" type="curve" smooth="yes"/>
      <point x="676.36" y="1503.8533333333335"/>
      <point x="649.9066666666668" y="1531.6133333333332"/>
      <point x="606.2933333333334" y="1531.6133333333332" type="curve" smooth="yes"/>
      <point x="558.5733333333334" y="1531.6133333333332"/>
      <point x="534.1600000000001" y="1503.8533333333335"/>
      <point x="534.1600000000001" y="1451.7866666666666" type="curve" smooth="yes"/>
      <point x="534.1600000000001" y="1356.6133333333335"/>
      <point x="584.1866666666666" y="1150.9733333333331"/>
      <point x="584.1866666666666" y="1011.5466666666667" type="curve"/>
    </contour>
    <contour>
      <point x="612.1866666666667" y="1032.8" type="line"/>
      <point x="480.81333333333333" y="1075.6933333333334"/>
      <point x="300.97333333333336" y="1185.9066666666668"/>
      <point x="210.50666666666666" y="1215.6" type="curve" smooth="yes"/>
      <point x="162.10666666666665" y="1231.9866666666665"/>
      <point x="127.30666666666666" y="1215.1866666666665"/>
      <point x="113.37333333333335" y="1172.5466666666666" type="curve" smooth="yes"/>
      <point x="98.93333333333334" y="1127.08"/>
      <point x="117.74666666666667" y="1094.8"/>
      <point x="166.52" y="1078.4133333333332" type="curve" smooth="yes"/>
      <point x="256.38666666666666" y="1048.92"/>
      <point x="467.58666666666664" y="1034.9466666666667"/>
      <point x="599.5066666666667" y="991.1466666666666" type="curve"/>
    </contour>
    <contour>
      <point x="587.5866666666666" y="1024.5866666666666" type="line"/>
      <point x="506.0266666666666" y="912.0666666666667"/>
      <point x="345.93333333333334" y="773.52"/>
      <point x="290.17333333333335" y="696.52" type="curve" smooth="yes"/>
      <point x="260.0666666666667" y="654.5866666666666"/>
      <point x="265.4133333333333" y="616.1866666666666"/>
      <point x="300.73333333333335" y="589.8666666666666" type="curve" smooth="yes"/>
      <point x="339.1066666666666" y="561.6533333333333"/>
      <point x="375.5333333333333" y="569.4666666666667"/>
      <point x="405.5466666666666" y="611.8133333333334" type="curve" smooth="yes"/>
      <point x="461.1466666666666" y="688.9066666666666"/>
      <point x="541.6133333333333" y="885.6133333333333"/>
      <point x="622.1733333333334" y="998.9333333333333" type="curve"/>
    </contour>
    <contour>
      <point x="587.5866666666666" y="998.5066666666665" type="line"/>
      <point x="669.2266666666667" y="885.1866666666666"/>
      <point x="749.84" y="688.9066666666666"/>
      <point x="804.9733333333334" y="611.8133333333334" type="curve" smooth="yes"/>
      <point x="835.4533333333334" y="569.4666666666667"/>
      <point x="873.1466666666668" y="563.0799999999999"/>
      <point x="908.9333333333333" y="589.0666666666666" type="curve" smooth="yes"/>
      <point x="947.3066666666667" y="617.52"/>
      <point x="950.8266666666666" y="654.5866666666666"/>
      <point x="920.3466666666667" y="696.52" type="curve" smooth="yes"/>
      <point x="864.96" y="773.52"/>
      <point x="704.0133333333333" y="911.2666666666668"/>
      <point x="622.1733333333334" y="1024.16" type="curve"/>
    </contour>
    <contour>
      <point x="599.5066666666667" y="1031.5733333333333" type="curve"/>
      <point x="612.1866666666667" y="989.9200000000001" type="line"/>
      <point x="743.7333333333332" y="1033.72"/>
      <point x="954.1333333333333" y="1048.92"/>
      <point x="1044.0" y="1078.4133333333332" type="curve" smooth="yes"/>
      <point x="1092.773333333333" y="1094.8"/>
      <point x="1110.9866666666667" y="1129.1066666666668"/>
      <point x="1097.1466666666665" y="1170.9466666666665" type="curve" smooth="yes"/>
      <point x="1082.7066666666667" y="1217.12"/>
      <point x="1048.7866666666669" y="1231.9866666666665"/>
      <point x="1000.0133333333332" y="1215.6" type="curve" smooth="yes"/>
      <point x="909.9200000000001" y="1185.9066666666668"/>
      <point x="730.5066666666667" y="1074.4666666666667"/>
    </contour>
  </outline>
</glyph>
<glyph name="comma" format="2">
  <advance width="393.96000000000004"/>
  <unicode hex="002C"/>
  <outline>
    <contour>
      <point x="192.53333333333333" y="1.4133333333333358" type="curve" smooth="yes"/>
      <point x="209.8133333333333" y="1.4133333333333358" type="line" smooth="yes"/>
      <point x="237.38567901234566" y="1.4133333333333358"/>
      <point x="248.24" y="-8.866666666666664"/>
      <point x="248.24" y="-38.053333333333335" type="curve" smooth="yes"/>
      <point x="248.24" y="-123.69333333333333"/>
      <point x="192.97984023980553" y="-212.86433823216538"/>
      <point x="112.29333333333332" y="-241.98666666666668" type="curve" smooth="yes"/>
      <point x="80.89333333333333" y="-252.37333333333333"/>
      <point x="71.09333333333333" y="-270.2"/>
      <point x="75.57333333333334" y="-290.5733333333333" type="curve" smooth="yes"/>
      <point x="80.34666666666666" y="-310.16"/>
      <point x="97.30666666666667" y="-318.0933333333333"/>
      <point x="126.29333333333332" y="-311.0666666666666" type="curve" smooth="yes"/>
      <point x="224.4933333333333" y="-283.02666666666664"/>
      <point x="331.8666666666667" y="-186.15958592132506"/>
      <point x="331.8666666666667" y="29.26666666666666" type="curve" smooth="yes"/>
      <point x="331.8666666666667" y="158.47643192488266"/>
      <point x="274.5387341772152" y="210.54666666666665"/>
      <point x="203.61333333333332" y="210.54666666666665" type="curve" smooth="yes"/>
      <point x="140.44" y="210.54666666666665"/>
      <point x="94.25333333333333" y="163.93333333333334"/>
      <point x="94.25333333333333" y="100.93333333333332" type="curve" smooth="yes"/>
      <point x="94.25333333333333" y="43.733333333333334"/>
      <point x="131.82666666666665" y="1.4133333333333358"/>
    </contour>
  </outline>
</glyph>
<glyph name="hyphen" format="2">
  <advance width="687.8399999999999"/>
  <unicode hex="002D"/>
  <outline>
    <contour>
      <point x="572.1466666666666" y="598.8" type="curve" smooth="yes"/>
      <point x="147.85333333333332" y="598.8" type="line" smooth="yes"/>
      <point x="123.33333333333334" y="598.8"/>
      <point x="112.50666666666666" y="593.8133333333333"/>
      <point x="104.03999999999999" y="570.36" type="curve" smooth="yes"/>
      <point x="87.49333333333334" y="526.3066666666666" type="line" smooth="yes"/>
      <point x="79.89333333333335" y="505.48"/>
      <point x="86.89333333333335" y="490.70666666666665"/>
      <point x="115.32" y="490.70666666666665" type="curve" smooth="yes"/>
      <point x="539.6133333333333" y="490.70666666666665" type="line" smooth="yes"/>
      <point x="564.5066666666667" y="490.70666666666665"/>
      <point x="575.8" y="496.0666666666667"/>
      <point x="583.8" y="518.7733333333333" type="curve" smooth="yes"/>
      <point x="599.9733333333332" y="563.2" type="line" smooth="yes"/>
      <point x="607.5733333333333" y="584.0266666666665"/>
      <point x="600.5733333333333" y="598.8"/>
    </contour>
  </outline>
</glyph>
<glyph name="period" format="2">
  <advance width="378.2933333333333"/>
  <unicode hex="002E"/>
  <outline>
    <contour>
      <point x="189.5333333333333" y="-13.253333333333332" type="curve" smooth="yes"/>
      <point x="250.18666666666664" y="-13.253333333333332"/>
      <point x="295.9733333333333" y="36.453333333333326"/>
      <point x="295.9733333333333" y="94.98666666666666" type="curve" smooth="yes"/>
      <point x="295.9733333333333" y="156.28"/>
      <point x="250.18666666666664" y="203.53333333333327"/>
      <point x="189.5333333333333" y="203.53333333333327" type="curve" smooth="yes"/>
      <point x="130.88" y="203.53333333333327"/>
      <point x="82.69333333333333" y="156.28"/>
      <point x="82.69333333333333" y="94.98666666666666" type="curve" smooth="yes"/>
      <point x="82.69333333333333" y="36.453333333333326"/>
      <point x="130.88" y="-13.253333333333332"/>
    </contour>
  </outline>
</glyph>
<glyph name="slash" format="2">
  <advance width="856.72"/>
  <unicode hex="002F"/>
  <outline>
    <contour>
      <point x="471.62666666666667" y="594.4666666666667" type="curve" smooth="yes"/>
      <point x="549.1558184832897" y="796.1440248242336"/>
      <point x="727.0370581070571" y="1237.3537229389003"/>
      <point x="800.5733333333334" y="1428.3066666666668" type="curve" smooth="yes"/>
      <point x="814.9375148601758" y="1462.3581658654834"/>
      <point x="805.6581368273859" y="1493.3518208911546"/>
      <point x="775.5866666666666" y="1506.08" type="curve" smooth="yes"/>
      <point x="743.8364281012366" y="1519.509297231275"/>
      <point x="718.3015580192076" y="1504.4913407242898"/>
      <point x="702.5066666666668" y="1465.4133333333332" type="curve" smooth="yes"/>
      <point x="619.5377623145828" y="1247.722388357755"/>
      <point x="464.7110374695195" y="818.1066963280596"/>
      <point x="391.26666666666665" y="629.9333333333334" type="curve" smooth="yes"/>
      <point x="317.03759309942086" y="438.4876702670008"/>
      <point x="141.79153659376993" y="16.339419318432842"/>
      <point x="56.42666666666666" y="-201.98666666666668" type="curve" smooth="yes"/>
      <point x="42.86312819123898" y="-237.5110257104718"/>
      <point x="52.352828081382256" y="-268.7768231618171"/>
      <point x="81.19999999999999" y="-280.5466666666666" type="curve" smooth="yes"/>
      <point x="115.13753594416474" y="-294.3956462732326"/>
      <point x="139.753883180268" y="-280.7534314553099"/>
      <point x="154.77333333333334" y="-243.25333333333333" type="curve" smooth="yes"/>
      <point x="228.48196622105564" y="-53.22987184351164"/>
      <point x="393.7861349443747" y="392.2860022884698"/>
    </contour>
  </outline>
</glyph>
<glyph name="zero" format="2">
  <advance width="1193.7733333333333"/>
  <unicode hex="0030"/>
  <outline>
    <contour>
      <point x="608.8933333333333" y="1420.16" type="curve" smooth="yes"/>
      <point x="291.2133333333333" y="1420.16"/>
      <point x="86.49333333333334" y="1149.0800000000002"/>
      <point x="86.49333333333334" y="702.2" type="curve" smooth="yes"/>
      <point x="86.49333333333334" y="250.37333333333333"/>
      <point x="272.9733333333333" y="-21.759999999999998"/>
      <point x="596.9466666666666" y="-21.759999999999998" type="curve" smooth="yes"/>
      <point x="901.0266666666665" y="-21.759999999999998"/>
      <point x="1107.56" y="249.26666666666665"/>
      <point x="1107.56" y="704.04" type="curve" smooth="yes"/>
      <point x="1107.56" y="1148.4"/>
      <point x="923.8533333333332" y="1420.16"/>
    </contour>
    <contour>
      <point x="957.9066666666665" y="682.92" type="curve" smooth="yes"/>
      <point x="957.9066666666665" y="286.0355298651252"/>
      <point x="806.3177950043066" y="61.22666666666666"/>
      <point x="602.4266666666666" y="61.22666666666666" type="curve" smooth="yes"/>
      <point x="374.4858774139378" y="61.22666666666666"/>
      <point x="236.25333333333333" y="268.6756626506024"/>
      <point x="236.25333333333333" y="719.3733333333333" type="curve" smooth="yes"/>
      <point x="236.25333333333333" y="1104.417803468208"/>
      <point x="384.2666666666666" y="1337.1733333333332"/>
      <point x="601.92" y="1337.1733333333332" type="curve" smooth="yes"/>
      <point x="820.1733333333333" y="1337.1733333333332"/>
      <point x="957.9066666666665" y="1125.4043373493976"/>
    </contour>
  </outline>
</glyph>
<glyph name="one" format="2">
  <advance width="779.5999999999999"/>
  <unicode hex="0031"/>
  <outline>
    <contour>
      <point x="127.21333333333334" y="1241.8400000000001" type="line" smooth="yes"/>
      <point x="91.6" y="1241.8400000000001"/>
      <point x="73.42666666666666" y="1257.56"/>
      <point x="73.42666666666666" y="1287.1866666666667" type="curve" smooth="yes"/>
      <point x="73.42666666666666" y="1313.96"/>
      <point x="92.90666666666667" y="1334.3200000000002"/>
      <point x="127.74666666666667" y="1334.3200000000002" type="curve" smooth="yes"/>
      <point x="279.4" y="1334.3200000000002" type="line" smooth="yes"/>
      <point x="329.46666666666664" y="1334.3200000000002"/>
      <point x="354.47999999999996" y="1350.7199999999998"/>
      <point x="382.7733333333333" y="1398.2266666666667" type="curve" smooth="yes"/>
      <point x="398.5333333333333" y="1423.8133333333333"/>
      <point x="414.91999999999996" y="1436.6266666666668"/>
      <point x="435.61333333333334" y="1436.6266666666668" type="curve" smooth="yes"/>
      <point x="464.90666666666664" y="1436.6266666666668"/>
      <point x="483.2266666666667" y="1419.2933333333333"/>
      <point x="483.2266666666667" y="1378.7200000000003" type="curve" smooth="yes"/>
      <point x="483.2266666666667" y="168.34666666666666" type="line" smooth="yes"/>
      <point x="483.2266666666667" y="123.95999999999998"/>
      <point x="499.6533333333333" y="97.29333333333334"/>
      <point x="546.16" y="92.74666666666666" type="curve" smooth="yes"/>
      <point x="684.8133333333333" y="80.01333333333334" type="line" smooth="yes"/>
      <point x="713.4266666666666" y="75.49333333333334"/>
      <point x="729.9866666666668" y="60.573333333333316"/>
      <point x="729.9866666666668" y="38.10666666666667" type="curve" smooth="yes"/>
      <point x="729.9866666666668" y="13.640000000000004"/>
      <point x="714.12" y="0.0"/>
      <point x="682.7733333333333" y="0.0" type="curve" smooth="yes"/>
      <point x="118.81333333333333" y="0.0" type="line" smooth="yes"/>
      <point x="87.46666666666667" y="0.0"/>
      <point x="71.22666666666667" y="13.640000000000004"/>
      <point x="71.22666666666667" y="38.10666666666667" type="curve" smooth="yes"/>
      <point x="71.22666666666667" y="60.573333333333316"/>
      <point x="88.06666666666666" y="76.81333333333333"/>
      <point x="116.77333333333333" y="80.21333333333334" type="curve" smooth="yes"/>
      <point x="271.6" y="92.74666666666666" type="line" smooth="yes"/>
      <point x="313.74666666666667" y="96.37333333333335"/>
      <point x="337.8933333333333" y="123.95999999999998"/>
      <point x="337.8933333333333" y="169.23999999999998" type="curve" smooth="yes"/>
      <point x="337.8933333333333" y="1168.8400000000001" type="line" smooth="yes"/>
      <point x="337.8933333333333" y="1226.8266666666666"/>
      <point x="323.5466666666667" y="1241.8400000000001"/>
      <point x="281.85333333333335" y="1241.8400000000001" type="curve" smooth="yes"/>
    </contour>
  </outline>
</glyph>
<glyph name="two" format="2">
  <advance width="1080.0000000000002"/>
  <unicode hex="0032"/>
  <outline>
    <contour>
      <point x="201.22666666666666" y="167.20000000000002" type="line"/>
      <point x="580.52" y="483.71999999999997" type="line" smooth="yes"/>
      <point x="867.0849712109729" y="710.6219228641273"/>
      <point x="960.5733333333333" y="850.8993873873874"/>
      <point x="960.5733333333333" y="1039.84" type="curve" smooth="yes"/>
      <point x="960.5733333333333" y="1259.4800000000002"/>
      <point x="826.105945945946" y="1420.16"/>
      <point x="557.1999999999999" y="1420.16" type="curve" smooth="yes"/>
      <point x="272.9866666666667" y="1420.16"/>
      <point x="121.76000000000002" y="1248.0266666666669"/>
      <point x="121.76000000000002" y="1059.7199999999998" type="curve" smooth="yes"/>
      <point x="121.76000000000002" y="988.72"/>
      <point x="151.90666666666664" y="950.12"/>
      <point x="199.22666666666663" y="950.12" type="curve" smooth="yes"/>
      <point x="247.3511111111111" y="950.12"/>
      <point x="279.99999999999994" y="981.8933333333333"/>
      <point x="279.99999999999994" y="1043.72" type="curve" smooth="yes"/>
      <point x="279.99999999999994" y="1111.16" type="line" smooth="yes"/>
      <point x="279.99999999999994" y="1238.0820512820512"/>
      <point x="364.1336017897092" y="1345.6666666666667"/>
      <point x="546.2133333333334" y="1345.6666666666667" type="curve" smooth="yes"/>
      <point x="712.9034926545783" y="1345.6666666666667"/>
      <point x="810.8000000000001" y="1233.4908795845504"/>
      <point x="810.8000000000001" y="1030.4666666666665" type="curve" smooth="yes"/>
      <point x="810.8000000000001" y="850.4"/>
      <point x="725.8566281598701" y="712.1731067707337"/>
      <point x="485.76" y="506.64" type="curve" smooth="yes"/>
      <point x="157.32" y="216.38666666666666" type="line"/>
    </contour>
    <contour>
      <point x="95.34666666666666" y="81.14666666666666" type="curve" smooth="yes"/>
      <point x="95.34666666666666" y="15.432488262910802"/>
      <point x="129.4" y="-18.773333333333333"/>
      <point x="173.01333333333335" y="-18.773333333333333" type="curve" smooth="yes"/>
      <point x="223.98666666666665" y="-18.773333333333333"/>
      <point x="252.39262422969827" y="10.64385927177046"/>
      <point x="260.08000000000004" y="70.42666666666668" type="curve" smooth="yes"/>
      <point x="267.91861243045327" y="143.0746569929517"/>
      <point x="288.87999999999994" y="187.48000000000002"/>
      <point x="347.6666666666667" y="187.48000000000002" type="curve" smooth="yes"/>
      <point x="398.56819366852886" y="187.48000000000002"/>
      <point x="438.34115382886654" y="162.25685117004397"/>
      <point x="509.17333333333335" y="104.05333333333333" type="curve" smooth="yes"/>
      <point x="600.1391735789468" y="20.22319220050156"/>
      <point x="672.3466666666667" y="-19.09333333333333"/>
      <point x="776.7466666666667" y="-19.09333333333333" type="curve" smooth="yes"/>
      <point x="910.8666666666666" y="-19.09333333333333"/>
      <point x="988.5747608949499" y="59.94147180596072"/>
      <point x="1014.04" y="247.52" type="curve" smooth="yes"/>
      <point x="1018.4666666666667" y="287.12"/>
      <point x="1009.4133333333333" y="304.0666666666666"/>
      <point x="990.24" y="307.16" type="curve" smooth="yes"/>
      <point x="971.2399999999999" y="310.2533333333333"/>
      <point x="955.7333333333333" y="299.2933333333333"/>
      <point x="945.56" y="271.76000000000005" type="curve" smooth="yes"/>
      <point x="916.2701740982956" y="171.77176221073708"/>
      <point x="873.3866666666667" y="117.81333333333328"/>
      <point x="775.7466666666667" y="117.81333333333328" type="curve" smooth="yes"/>
      <point x="627.1780346820809" y="117.81333333333328"/>
      <point x="485.8521001926783" y="276.0533333333333"/>
      <point x="328.40000000000003" y="276.0533333333333" type="curve" smooth="yes"/>
      <point x="176.54666666666668" y="276.0533333333333"/>
      <point x="95.34666666666666" y="184.72"/>
    </contour>
  </outline>
</glyph>
<glyph name="three" format="2">
  <advance width="984.7066666666667"/>
  <unicode hex="0033"/>
  <outline>
    <contour>
      <point x="409.64000000000004" y="731.8666666666667" type="line"/>
      <point x="875.1066666666667" y="1276.2266666666667" type="line" smooth="yes"/>
      <point x="907.2413712178326" y="1310.876987781196"/>
      <point x="926.0799999999999" y="1333.0933333333335"/>
      <point x="926.0799999999999" y="1359.7333333333333" type="curve" smooth="yes"/>
      <point x="926.0799999999999" y="1382.9066666666668"/>
      <point x="908.9333333333333" y="1400.0"/>
      <point x="880.3466666666667" y="1400.0" type="curve" smooth="yes"/>
      <point x="206.39999999999998" y="1400.0" type="line" smooth="yes"/>
      <point x="155.76470588235293" y="1400.0"/>
      <point x="132.27949194557132" y="1374.7487552108305"/>
      <point x="127.04" y="1329.226666666667" type="curve" smooth="yes"/>
      <point x="102.54666666666667" y="1119.12" type="line" smooth="yes"/>
      <point x="98.03999999999999" y="1076.8666666666666"/>
      <point x="114.94666666666666" y="1060.1466666666668"/>
      <point x="139.0533333333333" y="1059.3466666666668" type="curve" smooth="yes"/>
      <point x="162.84" y="1058.5466666666669"/>
      <point x="176.41333333333333" y="1075.2800000000002"/>
      <point x="182.54666666666668" y="1102.12" type="curve" smooth="yes"/>
      <point x="209.7733333333333" y="1215.8799999999999" type="line" smooth="yes"/>
      <point x="220.02109120555292" y="1258.8260614396872"/>
      <point x="238.59999999999997" y="1278.16"/>
      <point x="277.5466666666667" y="1278.16" type="curve" smooth="yes"/>
      <point x="821.0" y="1278.16" type="line"/>
      <point x="815.68" y="1329.16" type="line"/>
      <point x="363.2133333333333" y="801.9333333333333" type="line" smooth="yes"/>
      <point x="339.0935590953788" y="774.896694755063"/>
      <point x="321.15999999999997" y="753.8666666666667"/>
      <point x="321.15999999999997" y="727.5333333333333" type="curve" smooth="yes"/>
      <point x="321.15999999999997" y="700.4133333333333"/>
      <point x="340.4" y="682.6266666666666"/>
      <point x="373.14666666666665" y="682.6266666666666" type="curve" smooth="yes"/>
      <point x="432.0533333333333" y="682.6266666666666" type="line" smooth="yes"/>
      <point x="680.0932979664013" y="682.6266666666666"/>
      <point x="774.32" y="575.2236687379341"/>
      <point x="774.32" y="366.6" type="curve" smooth="yes"/>
      <point x="774.32" y="165.90057902589572"/>
      <point x="644.7214814814815" y="57.68000000000001"/>
      <point x="478.73333333333335" y="57.68000000000001" type="curve" smooth="yes"/>
      <point x="318.48075117370894" y="57.68000000000001"/>
      <point x="229.54666666666665" y="130.6573518722872"/>
      <point x="229.54666666666665" y="244.76" type="curve" smooth="yes"/>
      <point x="229.54666666666665" y="302.7466666666667" type="line" smooth="yes"/>
      <point x="229.54666666666665" y="361.1333333333334"/>
      <point x="206.34031746031746" y="394.5866666666667"/>
      <point x="158.97333333333333" y="394.5866666666667" type="curve" smooth="yes"/>
      <point x="107.93180952380952" y="394.5866666666667"/>
      <point x="73.05333333333333" y="355.4487439332168"/>
      <point x="73.05333333333333" y="288.9066666666667" type="curve" smooth="yes"/>
      <point x="73.05333333333333" y="117.26666666666667"/>
      <point x="213.17333333333332" y="-21.759999999999998"/>
      <point x="472.4666666666667" y="-21.759999999999998" type="curve" smooth="yes"/>
      <point x="740.76" y="-21.759999999999998"/>
      <point x="918.9333333333334" y="146.5098976551203"/>
      <point x="918.9333333333334" y="390.93333333333334" type="curve" smooth="yes"/>
      <point x="918.9333333333334" y="616.1513112335311"/>
      <point x="769.007358649789" y="769.72"/>
      <point x="484.97333333333336" y="769.72" type="curve" smooth="yes"/>
      <point x="470.3866666666666" y="769.72"/>
      <point x="419.08144797874036" y="767.691885354593"/>
      <point x="407.63999999999993" y="764.3733333333333" type="curve"/>
    </contour>
  </outline>
</glyph>
<glyph name="four" format="2">
  <advance width="1049.5333333333335"/>
  <unicode hex="0034"/>
  <outline>
    <contour>
      <point x="626.28" y="781.7066666666667" type="curve" smooth="yes"/>
      <point x="626.28" y="169.23999999999998" type="line" smooth="yes"/>
      <point x="626.28" y="123.95999999999998"/>
      <point x="603.7199999999999" y="98.53333333333333"/>
      <point x="563.72" y="92.74666666666666" type="curve" smooth="yes"/>
      <point x="473.4533333333333" y="80.21333333333334" type="line" smooth="yes"/>
      <point x="444.94666666666666" y="74.87999999999998"/>
      <point x="428.28000000000003" y="60.573333333333316"/>
      <point x="428.28000000000003" y="38.10666666666667" type="curve" smooth="yes"/>
      <point x="428.28000000000003" y="13.440000000000001"/>
      <point x="444.3466666666667" y="0.0"/>
      <point x="475.49333333333334" y="0.0" type="curve" smooth="yes"/>
      <point x="918.04" y="0.0" type="line" smooth="yes"/>
      <point x="949.8533333333334" y="0.0"/>
      <point x="965.6266666666666" y="13.640000000000004"/>
      <point x="965.6266666666666" y="38.10666666666667" type="curve" smooth="yes"/>
      <point x="965.6266666666666" y="60.00000000000001"/>
      <point x="949.4266666666666" y="73.09333333333335"/>
      <point x="920.4533333333331" y="80.01333333333334" type="curve" smooth="yes"/>
      <point x="833.72" y="92.74666666666666" type="line" smooth="yes"/>
      <point x="793.8399999999999" y="99.32000000000001"/>
      <point x="771.1599999999999" y="124.33333333333331"/>
      <point x="771.1599999999999" y="169.23999999999998" type="curve" smooth="yes"/>
      <point x="770.8399999999999" y="899.5466666666667" type="line" smooth="yes"/>
      <point x="770.8399999999999" y="922.0133333333333"/>
      <point x="759.8" y="932.7466666666668"/>
      <point x="746.0266666666666" y="932.7466666666668" type="curve" smooth="yes"/>
      <point x="731.36" y="932.7466666666668"/>
      <point x="722.2133333333334" y="927.0666666666666"/>
      <point x="706.7466666666667" y="910.4399999999999" type="curve" smooth="yes"/>
      <point x="649.76" y="854.4133333333334" type="line" smooth="yes"/>
      <point x="635.24" y="837.72"/>
      <point x="626.28" y="816.56"/>
    </contour>
    <contour>
      <point x="536.3066666666666" y="1066.36" type="curve" smooth="yes"/>
      <point x="63.813333333333325" y="482.8133333333333" type="line" smooth="yes"/>
      <point x="36.82795973419714" y="453.1606536523089"/>
      <point x="26.74666666666667" y="433.7371428571429"/>
      <point x="26.74666666666667" y="411.44" type="curve" smooth="yes"/>
      <point x="26.74666666666667" y="381.73925925925926"/>
      <point x="46.59758479450104" y="361.8286238162397"/>
      <point x="83.76" y="361.8133333333333" type="curve" smooth="yes"/>
      <point x="941.5733333333333" y="361.01333333333326" type="line" smooth="yes"/>
      <point x="973.6400000000001" y="361.01333333333326"/>
      <point x="987.5866666666666" y="375.8285714285715"/>
      <point x="987.5866666666666" y="403.21333333333337" type="curve" smooth="yes"/>
      <point x="987.5866666666666" y="431.0108985507246"/>
      <point x="969.7866666666667" y="442.91999999999996"/>
      <point x="942.5733333333333" y="442.91999999999996" type="curve" smooth="yes"/>
      <point x="93.33333333333333" y="442.91999999999996" type="line"/>
      <point x="105.61333333333334" y="409.0" type="line"/>
      <point x="647.1466666666668" y="1063.1333333333332" type="line" smooth="yes"/>
      <point x="730.1056367965244" y="1156.6803925487814"/>
      <point x="760.5866666666666" y="1220.8933333333332"/>
      <point x="760.5866666666666" y="1302.5866666666668" type="curve" smooth="yes"/>
      <point x="760.5866666666666" y="1379.1866666666667"/>
      <point x="715.8834339068038" y="1424.6799999999998"/>
      <point x="654.3466666666666" y="1424.6799999999998" type="curve" smooth="yes"/>
      <point x="584.3627075351213" y="1424.6799999999998"/>
      <point x="544.1866666666666" y="1378.8266666666666"/>
      <point x="544.1866666666666" y="1320.0533333333335" type="curve" smooth="yes"/>
      <point x="544.1866666666666" y="1255.9733333333334"/>
      <point x="588.8133333333334" y="1234.6380052493437"/>
      <point x="588.8133333333334" y="1175.5866666666666" type="curve" smooth="yes"/>
      <point x="588.8133333333334" y="1136.56"/>
      <point x="569.0931015065855" y="1101.93145068419"/>
    </contour>
  </outline>
</glyph>
<glyph name="five" format="2">
  <advance width="1030.36"/>
  <unicode hex="0035"/>
  <outline>
    <contour>
      <point x="114.78666666666666" y="279.64000000000004" type="curve" smooth="yes"/>
      <point x="114.78666666666666" y="108.69354166666666"/>
      <point x="260.09333333333336" y="-21.759999999999998"/>
      <point x="510.1333333333334" y="-21.759999999999998" type="curve" smooth="yes"/>
      <point x="778.9066666666666" y="-21.759999999999998"/>
      <point x="954.6133333333335" y="153.56565656565655"/>
      <point x="954.6133333333335" y="425.9066666666667" type="curve" smooth="yes"/>
      <point x="954.6133333333335" y="672.8029562594268"/>
      <point x="803.4313351016799" y="848.2666666666667"/>
      <point x="561.7733333333333" y="848.2666666666667" type="curve" smooth="yes"/>
      <point x="417.8224641833811" y="848.2666666666667"/>
      <point x="294.88271570896444" y="780.2501808620617"/>
      <point x="218.56000000000003" y="666.72" type="curve"/>
      <point x="247.58666666666664" y="660.24" type="line"/>
      <point x="247.58666666666664" y="1342.053333333333" type="line"/>
      <point x="214.98666666666668" y="1301.5066666666667" type="line"/>
      <point x="315.5157154872088" y="1219.057791293713"/>
      <point x="452.36597701149424" y="1178.6666666666667"/>
      <point x="608.9066666666666" y="1178.6666666666667" type="curve" smooth="yes"/>
      <point x="773.8441607565012" y="1178.6666666666667"/>
      <point x="906.5788361588093" y="1250.2894752037391"/>
      <point x="941.2533333333333" y="1373.1866666666665" type="curve" smooth="yes"/>
      <point x="952.9066666666666" y="1414.0000000000002"/>
      <point x="943.8266666666666" y="1429.2666666666667"/>
      <point x="931.0800000000002" y="1434.6000000000001" type="curve" smooth="yes"/>
      <point x="914.2266666666667" y="1443.1333333333334"/>
      <point x="895.6533333333333" y="1435.9866666666667"/>
      <point x="875.16" y="1408.2266666666667" type="curve" smooth="yes"/>
      <point x="827.243955923931" y="1338.5048595048431"/>
      <point x="741.8153767560664" y="1303.5466666666666"/>
      <point x="622.4533333333333" y="1303.5466666666666" type="curve" smooth="yes"/>
      <point x="481.4518721461187" y="1303.5466666666666"/>
      <point x="396.5274838796879" y="1340.5178909604379"/>
      <point x="294.02666666666664" y="1405.3333333333335" type="curve" smooth="yes"/>
      <point x="269.43641787419557" y="1419.5879991599797"/>
      <point x="251.42399999999995" y="1425.7066666666665"/>
      <point x="229.88000000000002" y="1425.7066666666665" type="curve" smooth="yes"/>
      <point x="184.74666666666667" y="1425.7066666666665"/>
      <point x="164.54666666666665" y="1397.7214814814815"/>
      <point x="164.54666666666665" y="1352.8533333333332" type="curve" smooth="yes"/>
      <point x="164.54666666666665" y="614.5866666666667" type="line" smooth="yes"/>
      <point x="164.54666666666665" y="580.96"/>
      <point x="179.0470588235294" y="561.1466666666666"/>
      <point x="202.99999999999997" y="561.1466666666666" type="curve" smooth="yes"/>
      <point x="228.16666666666666" y="561.1466666666666"/>
      <point x="243.06666666666666" y="578.36"/>
      <point x="267.1466666666667" y="604.6800000000001" type="curve" smooth="yes"/>
      <point x="342.1333333333333" y="710.3333333333334"/>
      <point x="428.85659863945574" y="756.64"/>
      <point x="527.4399999999999" y="756.64" type="curve" smooth="yes"/>
      <point x="694.075511551155" y="756.64"/>
      <point x="809.6133333333333" y="643.0875520833333"/>
      <point x="809.6133333333333" y="417.6666666666667" type="curve" smooth="yes"/>
      <point x="809.6133333333333" y="174.22032362459544"/>
      <point x="686.8939720558882" y="57.68000000000001"/>
      <point x="524.5733333333334" y="57.68000000000001" type="curve" smooth="yes"/>
      <point x="359.8157882069795" y="57.68000000000001"/>
      <point x="272.12" y="132.2223350253807"/>
      <point x="272.12" y="241.57333333333332" type="curve" smooth="yes"/>
      <point x="272.12" y="303.1066666666667" type="line" smooth="yes"/>
      <point x="272.12" y="360.0805673758865"/>
      <point x="247.98666666666665" y="393.7466666666666"/>
      <point x="198.90666666666664" y="393.7466666666666" type="curve" smooth="yes"/>
      <point x="148.64159999999998" y="393.7466666666666"/>
      <point x="114.78666666666666" y="351.13907496012763"/>
    </contour>
  </outline>
</glyph>
<glyph name="six" format="2">
  <advance width="1091.7733333333333"/>
  <unicode hex="0036"/>
  <outline>
    <contour>
      <point x="630.2666666666667" y="1420.9600000000003" type="curve" smooth="yes"/>
      <point x="309.4533333333333" y="1420.9600000000003"/>
      <point x="87.50666666666667" y="1187.1138095238093"/>
      <point x="88.30666666666666" y="655.8" type="curve" smooth="yes"/>
      <point x="89.10666666666667" y="224.12653218059558"/>
      <point x="266.4666666666667" y="-19.09333333333333"/>
      <point x="573.9066666666666" y="-19.09333333333333" type="curve" smooth="yes"/>
      <point x="839.3199999999999" y="-19.09333333333333"/>
      <point x="1015.9066666666666" y="151.08"/>
      <point x="1015.9066666666666" y="423.9866666666667" type="curve" smooth="yes"/>
      <point x="1015.9066666666666" y="675.9913936430318"/>
      <point x="868.44" y="848.6400000000001"/>
      <point x="617.6800000000001" y="848.6400000000001" type="curve" smooth="yes"/>
      <point x="383.76" y="848.6400000000001"/>
      <point x="195.0133333333333" y="661.2933333333334"/>
      <point x="190.35999999999996" y="443.72" type="curve"/>
      <point x="239.23999999999998" y="416.6933333333333" type="line"/>
      <point x="244.02666666666664" y="593.32"/>
      <point x="393.3466666666667" y="754.1999999999999"/>
      <point x="572.2266666666667" y="754.1999999999999" type="curve" smooth="yes"/>
      <point x="754.5466666666667" y="754.1999999999999"/>
      <point x="872.0933333333334" y="633.7735735735736"/>
      <point x="872.0933333333334" y="405.59999999999997" type="curve" smooth="yes"/>
      <point x="872.0933333333334" y="193.5560606060606"/>
      <point x="758.48" y="63.666666666666664"/>
      <point x="583.0533333333334" y="63.666666666666664" type="curve" smooth="yes"/>
      <point x="379.08" y="63.666666666666664"/>
      <point x="236.4933333333333" y="226.54666666666668"/>
      <point x="235.71999999999997" y="669.7199999999999" type="curve" smooth="yes"/>
      <point x="235.6933333333333" y="1170.7733333333333"/>
      <point x="423.4533333333333" y="1337.3466666666668"/>
      <point x="613.1866666666666" y="1337.3466666666668" type="curve" smooth="yes"/>
      <point x="749.8698901098902" y="1337.3466666666668"/>
      <point x="811.1333333333333" y="1270.1540740740743"/>
      <point x="811.1333333333333" y="1161.6666666666667" type="curve" smooth="yes"/>
      <point x="811.1333333333333" y="1121.1733333333332" type="line" smooth="yes"/>
      <point x="811.1333333333333" y="1061.28"/>
      <point x="837.6784496124031" y="1027.6666666666667"/>
      <point x="893.1999999999999" y="1027.6666666666667" type="curve" smooth="yes"/>
      <point x="947.48" y="1027.6666666666667"/>
      <point x="978.9066666666666" y="1067.1455363155362"/>
      <point x="978.9066666666666" y="1138.16" type="curve" smooth="yes"/>
      <point x="978.9066666666666" y="1290.2266666666667"/>
      <point x="847.732935323383" y="1420.9600000000003"/>
    </contour>
  </outline>
</glyph>
<glyph name="seven" format="2">
  <advance width="926.3733333333333"/>
  <unicode hex="0037"/>
  <outline>
    <contour>
      <point x="799.4666666666666" y="1287.0533333333333" type="line"/>
      <point x="553.7066666666667" y="876.7733333333334" type="line" smooth="yes"/>
      <point x="373.3922500781791" y="595.8087014692396"/>
      <point x="276.64" y="407.73333333333335"/>
      <point x="276.64" y="203.99999999999997" type="curve" smooth="yes"/>
      <point x="276.64" y="58.666666666666664"/>
      <point x="324.19069182389933" y="-17.226666666666663"/>
      <point x="399.88" y="-17.226666666666663" type="curve" smooth="yes"/>
      <point x="466.36" y="-17.226666666666663"/>
      <point x="501.62666666666667" y="23.21333333333333"/>
      <point x="501.62666666666667" y="86.31999999999998" type="curve" smooth="yes"/>
      <point x="501.62666666666667" y="158.18666666666664"/>
      <point x="426.68000000000006" y="223.4933333333333"/>
      <point x="426.68000000000006" y="320.15999999999997" type="curve" smooth="yes"/>
      <point x="426.68000000000006" y="465.86666666666656"/>
      <point x="502.6133333333333" y="625.4133333333333"/>
      <point x="656.1066666666667" y="877.6" type="curve" smooth="yes"/>
      <point x="879.6266666666666" y="1260.9333333333334" type="line" smooth="yes"/>
      <point x="905.7866666666665" y="1296.1333333333332"/>
      <point x="914.1733333333333" y="1318.9866666666665"/>
      <point x="914.1733333333333" y="1343.4533333333334" type="curve" smooth="yes"/>
      <point x="914.1733333333333" y="1378.2533333333333"/>
      <point x="892.4266666666667" y="1400.0"/>
      <point x="846.2266666666666" y="1400.0" type="curve" smooth="yes"/>
      <point x="145.22666666666666" y="1400.0" type="line" smooth="yes"/>
      <point x="96.56000000000002" y="1400.0"/>
      <point x="74.78666666666666" y="1374.3600000000001"/>
      <point x="69.88" y="1328.8000000000002" type="curve" smooth="yes"/>
      <point x="46.10666666666666" y="1108.92" type="line" smooth="yes"/>
      <point x="41.53333333333333" y="1066.3333333333333"/>
      <point x="57.18666666666665" y="1049.1066666666668"/>
      <point x="82.42666666666668" y="1048.3066666666666" type="curve" smooth="yes"/>
      <point x="105.90666666666667" y="1047.5066666666667"/>
      <point x="120.2533333333333" y="1063.5600000000002"/>
      <point x="126.38666666666666" y="1090.68" type="curve" smooth="yes"/>
      <point x="154.37333333333336" y="1207.32" type="line" smooth="yes"/>
      <point x="165.04" y="1250.2533333333333"/>
      <point x="179.05333333333334" y="1269.1866666666665"/>
      <point x="221.2133333333333" y="1269.1866666666665" type="curve" smooth="yes"/>
      <point x="820.3866666666667" y="1269.1866666666665" type="line"/>
    </contour>
  </outline>
</glyph>
<glyph name="eight" format="2">
  <advance width="1051.5066666666667"/>
  <unicode hex="0038"/>
  <outline>
    <contour>
      <point x="518.24" y="-21.653333333333332" type="curve" smooth="yes"/>
      <point x="797.5840189125295" y="-21.653333333333332"/>
      <point x="970.0133333333333" y="111.22666666666666"/>
      <point x="970.0133333333333" y="328.1066666666666" type="curve" smooth="yes"/>
      <point x="970.0133333333333" y="483.06339387224443"/>
      <point x="860.1677117987826" y="608.40884142717"/>
      <point x="577.9466666666667" y="702.6133333333333" type="curve" smooth="yes"/>
      <point x="306.683068195817" y="793.8305936993548"/>
      <point x="237.16" y="913.588604327973"/>
      <point x="237.16" y="1053.1333333333332" type="curve" smooth="yes"/>
      <point x="237.16" y="1215.605128205128"/>
      <point x="359.3828571428571" y="1339.1466666666668"/>
      <point x="536.3466666666667" y="1339.1466666666668" type="curve" smooth="yes"/>
      <point x="717.1201172875487" y="1339.1466666666668"/>
      <point x="840.4133333333333" y="1235.6124421495506"/>
      <point x="840.4133333333333" y="1042.5733333333335" type="curve" smooth="yes"/>
      <point x="840.4133333333333" y="887.5754738015607"/>
      <point x="739.7983173553798" y="758.4426085965077"/>
      <point x="583.3466666666667" y="668.24" type="curve"/>
      <point x="612.24" y="631.9733333333334" type="line"/>
      <point x="846.5797926023058" y="701.5093439084718"/>
      <point x="981.9066666666668" y="854.12"/>
      <point x="981.9066666666668" y="1048.2666666666667" type="curve" smooth="yes"/>
      <point x="981.9066666666668" y="1246.2666666666664"/>
      <point x="834.8870474920352" y="1420.16"/>
      <point x="553.4533333333333" y="1420.16" type="curve" smooth="yes"/>
      <point x="273.78527524484974" y="1420.16"/>
      <point x="95.81333333333333" y="1248.4477527151212"/>
      <point x="95.81333333333333" y="1016.2933333333333" type="curve" smooth="yes"/>
      <point x="95.81333333333333" y="826.651003236246"/>
      <point x="206.86627638106506" y="705.654705115758"/>
      <point x="494.1866666666666" y="608.0666666666666" type="curve" smooth="yes"/>
      <point x="751.6021802069035" y="519.6555294838647"/>
      <point x="821.9466666666667" y="435.8836430201903"/>
      <point x="821.9466666666667" y="303.59999999999997" type="curve" smooth="yes"/>
      <point x="821.9466666666667" y="149.8033333333333"/>
      <point x="712.6476909977863" y="59.21333333333333"/>
      <point x="541.7333333333332" y="59.21333333333333" type="curve" smooth="yes"/>
      <point x="361.4217119838872" y="59.21333333333333"/>
      <point x="245.64" y="153.99497267759563"/>
      <point x="245.64" y="318.97333333333336" type="curve" smooth="yes"/>
      <point x="245.64" y="428.8685621195233"/>
      <point x="315.09582341843094" y="555.1318207223395"/>
      <point x="472.5733333333334" y="626.1866666666667" type="curve"/>
      <point x="453.7066666666667" y="663.7466666666667" type="line"/>
      <point x="232.3465719992731" y="615.6266658362509"/>
      <point x="103.04" y="463.755838641189"/>
      <point x="103.04" y="301.1066666666666" type="curve"/>
      <point x="103.04" y="106.21333333333332"/>
      <point x="245.64553846153848" y="-21.653333333333332"/>
    </contour>
  </outline>
</glyph>
<glyph name="nine" format="2">
  <advance width="1090.7066666666667"/>
  <unicode hex="0039"/>
  <outline>
    <contour>
      <point x="485.32000000000005" y="-20.959999999999994" type="curve" smooth="yes"/>
      <point x="803.1466666666666" y="-20.959999999999994"/>
      <point x="996.0266666666669" y="230.06666666666666"/>
      <point x="1006.4266666666668" y="744.2" type="curve" smooth="yes"/>
      <point x="1014.8533333333335" y="1177.04"/>
      <point x="835.1466666666665" y="1420.9600000000003"/>
      <point x="526.5866666666666" y="1420.9600000000003" type="curve" smooth="yes"/>
      <point x="262.6666666666667" y="1420.9600000000003"/>
      <point x="79.2" y="1250.28"/>
      <point x="79.2" y="975.6266666666666" type="curve" smooth="yes"/>
      <point x="79.2" y="724.4880528052805"/>
      <point x="227.41333333333333" y="552.9333333333333"/>
      <point x="478.17333333333335" y="552.9333333333333" type="curve" smooth="yes"/>
      <point x="711.3466666666667" y="552.9333333333333"/>
      <point x="899.72" y="743.2666666666668"/>
      <point x="904.3733333333333" y="963.8266666666666" type="curve"/>
      <point x="855.8666666666667" y="991.2266666666667" type="line"/>
      <point x="850.7066666666667" y="812.36"/>
      <point x="701.76" y="649.24"/>
      <point x="524.7466666666667" y="649.24" type="curve" smooth="yes"/>
      <point x="342.0533333333333" y="649.24"/>
      <point x="223.01333333333332" y="768.2946236559139"/>
      <point x="223.01333333333332" y="994.0133333333332" type="curve" smooth="yes"/>
      <point x="223.01333333333332" y="1206.4164341085273"/>
      <point x="343.87999999999994" y="1336.3333333333335"/>
      <point x="517.4399999999999" y="1336.3333333333335" type="curve" smooth="yes"/>
      <point x="723.28" y="1336.3333333333335"/>
      <point x="866.24" y="1179.68"/>
      <point x="859.0133333333333" y="730.44" type="curve" smooth="yes"/>
      <point x="850.6133333333333" y="237.28"/>
      <point x="689.8933333333334" y="63.773333333333326"/>
      <point x="501.65333333333336" y="63.773333333333326" type="curve" smooth="yes"/>
      <point x="366.1844619422572" y="63.773333333333326"/>
      <point x="281.2000000000001" y="127.88076628352489"/>
      <point x="281.2000000000001" y="229.79999999999998" type="curve" smooth="yes"/>
      <point x="281.2000000000001" y="276.82666666666665" type="line" smooth="yes"/>
      <point x="281.2000000000001" y="339.33333333333337"/>
      <point x="255.1781818181818" y="374.06666666666666"/>
      <point x="201.15999999999997" y="374.06666666666666" type="curve" smooth="yes"/>
      <point x="145.16363636363639" y="374.06666666666666"/>
      <point x="113.42666666666666" y="332.7896827429222"/>
      <point x="113.42666666666666" y="258.5733333333334" type="curve" smooth="yes"/>
      <point x="113.42666666666666" y="102.1021212121212"/>
      <point x="265.5733333333333" y="-20.959999999999994"/>
    </contour>
  </outline>
</glyph>
<glyph name="less" format="2">
  <advance width="956.1733333333334"/>
  <unicode hex="003C"/>
  <outline>
    <contour>
      <point x="190.61333333333332" y="691.5333333333333" type="line"/>
      <point x="809.1200000000001" y="340.7733333333333" type="line" smooth="yes"/>
      <point x="840.8666666666667" y="322.08"/>
      <point x="856.5999999999999" y="298.26666666666665"/>
      <point x="856.5999999999999" y="278.5333333333333" type="curve" smooth="yes"/>
      <point x="856.8" y="254.16"/>
      <point x="844.8266666666666" y="236.92000000000002"/>
      <point x="817.0133333333333" y="236.92000000000002" type="curve" smooth="yes"/>
      <point x="794.1066666666667" y="236.92000000000002"/>
      <point x="772.52" y="248.70666666666668"/>
      <point x="739.8533333333334" y="267.59999999999997" type="curve" smooth="yes"/>
      <point x="145.2" y="597.68" type="line" smooth="yes"/>
      <point x="104.58666666666667" y="620.6266666666667"/>
      <point x="85.03999999999999" y="648.4666666666666"/>
      <point x="85.03999999999999" y="684.0" type="curve" smooth="yes"/>
      <point x="85.03999999999999" y="720.28"/>
      <point x="104.96000000000001" y="747.7466666666667"/>
      <point x="145.2" y="770.3199999999999" type="curve" smooth="yes"/>
      <point x="739.8533333333334" y="1100.3999999999999" type="line" smooth="yes"/>
      <point x="772.52" y="1119.2933333333333"/>
      <point x="794.1066666666667" y="1131.0800000000002"/>
      <point x="817.0133333333333" y="1131.0800000000002" type="curve" smooth="yes"/>
      <point x="844.8266666666666" y="1131.0800000000002"/>
      <point x="856.8" y="1113.8400000000001"/>
      <point x="856.5999999999999" y="1089.4666666666667" type="curve" smooth="yes"/>
      <point x="856.5999999999999" y="1069.7333333333333"/>
      <point x="840.8666666666667" y="1045.92"/>
      <point x="809.1200000000001" y="1027.2266666666667" type="curve" smooth="yes"/>
      <point x="190.61333333333332" y="676.4666666666667" type="line"/>
    </contour>
  </outline>
</glyph>
<glyph name="question" format="2">
  <advance width="892.32"/>
  <unicode hex="003F"/>
  <outline>
    <contour>
      <point x="344.12" y="644.8666666666667" type="line" smooth="yes"/>
      <point x="338.09333333333336" y="686.7066666666666"/>
      <point x="353.58666666666664" y="719.2933333333333"/>
      <point x="390.4" y="739.44" type="curve" smooth="yes"/>
      <point x="459.9866666666667" y="777.1466666666666" type="line" smooth="yes"/>
      <point x="609.3348166074976" y="858.3109131496379"/>
      <point x="671.6933333333334" y="970.4487193460491"/>
      <point x="671.6933333333334" y="1113.8533333333332" type="curve" smooth="yes"/>
      <point x="671.6933333333334" y="1281.8416666666667"/>
      <point x="578.0415045395591" y="1368.76"/>
      <point x="456.1733333333334" y="1368.76" type="curve" smooth="yes"/>
      <point x="316.6266666666667" y="1368.76"/>
      <point x="252.83999999999997" y="1296.0661380323054"/>
      <point x="252.83999999999997" y="1189.32" type="curve" smooth="yes"/>
      <point x="252.83999999999997" y="1140.2666666666667" type="line" smooth="yes"/>
      <point x="252.83999999999997" y="1076.0236132315522"/>
      <point x="221.16000000000003" y="1039.8666666666668"/>
      <point x="166.7733333333333" y="1039.4933333333333" type="curve" smooth="yes"/>
      <point x="119.45333333333335" y="1039.1200000000001"/>
      <point x="87.13333333333334" y="1077.9609523809524"/>
      <point x="87.13333333333334" y="1137.0666666666666" type="curve" smooth="yes"/>
      <point x="87.13333333333334" y="1298.7321212121212"/>
      <point x="246.34666666666666" y="1443.6933333333332"/>
      <point x="462.88" y="1443.6933333333332" type="curve" smooth="yes"/>
      <point x="679.7595462733549" y="1443.6933333333332"/>
      <point x="822.6266666666666" y="1319.021618296917"/>
      <point x="822.6266666666666" y="1105.9466666666667" type="curve" smooth="yes"/>
      <point x="822.6266666666666" y="928.8033820203794"/>
      <point x="734.4897085172412" y="799.2448257776178"/>
      <point x="544.3066666666666" y="717.92" type="curve" smooth="yes"/>
      <point x="493.3333333333333" y="694.7866666666666" type="line" smooth="yes"/>
      <point x="467.84251526609404" y="684.6956217963751"/>
      <point x="457.0666666666666" y="665.6266666666667"/>
      <point x="453.47999999999996" y="633.6533333333333" type="curve" smooth="yes"/>
      <point x="442.80000000000007" y="428.81333333333333" type="line" smooth="yes"/>
      <point x="435.0244499049702" y="397.08716007196426"/>
      <point x="421.83006734006733" y="383.6666666666667"/>
      <point x="397.5866666666667" y="383.6666666666667" type="curve" smooth="yes"/>
      <point x="373.8786071058335" y="383.6666666666667"/>
      <point x="358.717324332196" y="398.6426889047707"/>
      <point x="354.26666666666665" y="427.73333333333335" type="curve" smooth="yes"/>
    </contour>
    <component base="period" xOffset="202.76"/>
  </outline>
</glyph>
<glyph name="at" format="2">
  <advance width="1632.4533333333334"/>
  <unicode hex="0040"/>
  <outline>
    <contour>
      <point x="1015.0666666666665" y="489.3733333333334" type="curve"/>
      <point x="1024.7466666666667" y="549.1333333333333" type="line"/>
      <point x="967.7333333333333" y="569.7733333333333"/>
      <point x="897.44" y="583.9066666666668"/>
      <point x="825.0533333333333" y="583.9066666666668" type="curve" smooth="yes"/>
      <point x="615.4266666666667" y="583.9066666666668"/>
      <point x="489.0" y="480.0666666666667"/>
      <point x="489.0" y="345.62666666666667" type="curve" smooth="yes"/>
      <point x="489.0" y="210.57333333333335"/>
      <point x="593.4933333333333" y="138.14666666666668"/>
      <point x="739.4933333333332" y="138.14666666666668" type="curve" smooth="yes"/>
      <point x="858.8933333333333" y="138.14666666666668"/>
      <point x="966.3733333333333" y="193.57333333333332"/>
      <point x="1045.7066666666667" y="297.4533333333333" type="curve"/>
      <point x="1023.7999999999998" y="343.55999999999995" type="line"/>
      <point x="953.4266666666667" y="259.49333333333334"/>
      <point x="871.2399999999999" y="221.05333333333334"/>
      <point x="777.4399999999999" y="221.05333333333334" type="curve" smooth="yes"/>
      <point x="689.2533333333333" y="221.05333333333334"/>
      <point x="621.1600000000001" y="269.59999999999997"/>
      <point x="621.1600000000001" y="364.56" type="curve" smooth="yes"/>
      <point x="621.1600000000001" y="463.6666666666667"/>
      <point x="705.2133333333333" y="522.3333333333333"/>
      <point x="833.8133333333333" y="522.3333333333333" type="curve" smooth="yes"/>
      <point x="902.3733333333334" y="522.3333333333333"/>
      <point x="959.8666666666666" y="507.28"/>
    </contour>
    <contour>
      <point x="1218.84" y="221.79999999999998" type="curve" smooth="yes"/>
      <point x="1159.0133333333333" y="221.79999999999998"/>
      <point x="1124.2266666666667" y="255.18666666666667"/>
      <point x="1124.2266666666667" y="318.8266666666666" type="curve" smooth="yes"/>
      <point x="1124.2266666666667" y="776.28" type="line" smooth="yes"/>
      <point x="1124.2266666666667" y="921.0933333333332"/>
      <point x="1025.76" y="1010.8266666666667"/>
      <point x="857.2400000000001" y="1010.8266666666667" type="curve" smooth="yes"/>
      <point x="654.0" y="1010.8266666666667"/>
      <point x="531.1733333333333" y="904.52"/>
      <point x="531.1733333333333" y="780.4133333333333" type="curve" smooth="yes"/>
      <point x="531.1733333333333" y="739.9466666666667"/>
      <point x="561.8133333333334" y="713.84"/>
      <point x="598.52" y="713.84" type="curve" smooth="yes"/>
      <point x="639.9333333333333" y="713.84"/>
      <point x="673.3066666666667" y="735.8133333333334"/>
      <point x="673.3066666666667" y="777.3199999999999" type="curve" smooth="yes"/>
      <point x="673.3066666666667" y="823.4133333333334" type="line" smooth="yes"/>
      <point x="673.3066666666667" y="886.1866666666666"/>
      <point x="724.8266666666667" y="936.6266666666667"/>
      <point x="827.3066666666667" y="936.6266666666667" type="curve" smooth="yes"/>
      <point x="935.5333333333333" y="936.6266666666667"/>
      <point x="997.9200000000001" y="878.4"/>
      <point x="997.9200000000001" y="774.6133333333333" type="curve" smooth="yes"/>
      <point x="997.9200000000001" y="295.0266666666667" type="line"/>
      <point x="1003.2666666666665" y="290.91999999999996" type="line"/>
      <point x="1004.0666344637302" y="189.18772936356768"/>
      <point x="1086.9879274116522" y="138.14666666666668"/>
      <point x="1196.1866666666667" y="138.14666666666668" type="curve" smooth="yes"/>
      <point x="1406.9986324786323" y="138.14666666666668"/>
      <point x="1541.3066666666666" y="345.1333333333333"/>
      <point x="1541.3066666666666" y="626.9733333333334" type="curve" smooth="yes"/>
      <point x="1541.3066666666666" y="1086.8533333333332"/>
      <point x="1234.9199999999998" y="1354.04"/>
      <point x="846.24" y="1354.04" type="curve" smooth="yes"/>
      <point x="363.04" y="1354.04"/>
      <point x="74.56" y="1006.24"/>
      <point x="74.56" y="547.8666666666667" type="curve" smooth="yes"/>
      <point x="74.56" y="63.2"/>
      <point x="404.50666666666666" y="-235.37333333333333"/>
      <point x="847.0266666666668" y="-235.37333333333333" type="curve" smooth="yes"/>
      <point x="1129.0133333333333" y="-235.37333333333333"/>
      <point x="1378.32" y="-136.37333333333333"/>
      <point x="1513.5066666666667" y="35.68000000000001" type="curve" smooth="yes"/>
      <point x="1535.6533333333334" y="62.013333333333335"/>
      <point x="1542.0933333333335" y="86.05333333333334"/>
      <point x="1523.4799999999998" y="104.54666666666667" type="curve" smooth="yes"/>
      <point x="1505.5333333333333" y="122.63999999999999"/>
      <point x="1478.2266666666667" y="112.30666666666666"/>
      <point x="1458.1066666666668" y="91.50666666666666" type="curve" smooth="yes"/>
      <point x="1315.6811035541837" y="-66.69467573497931"/>
      <point x="1105.6533333333332" y="-157.66666666666666"/>
      <point x="849.8266666666667" y="-157.66666666666666" type="curve" smooth="yes"/>
      <point x="445.70666666666665" y="-157.66666666666666"/>
      <point x="164.07999999999998" y="124.05671897289587"/>
      <point x="164.07999999999998" y="547.8666666666667" type="curve" smooth="yes"/>
      <point x="164.07999999999998" y="977.2533333333333"/>
      <point x="426.33284671532846" y="1278.8666666666668"/>
      <point x="842.9066666666668" y="1278.8666666666668" type="curve" smooth="yes"/>
      <point x="1185.4583783783785" y="1278.8666666666668"/>
      <point x="1449.28" y="1026.56"/>
      <point x="1449.28" y="625.7733333333333" type="curve" smooth="yes"/>
      <point x="1449.28" y="364.70666666666665"/>
      <point x="1355.8436879432625" y="221.79999999999998"/>
    </contour>
  </outline>
</glyph>
<glyph name="A" format="2">
  <advance width="1305.2666666666664"/>
  <unicode hex="0041"/>
  <anchor x="643.3066666666666" y="1462.9199999999998" name="center"/>
  <outline>
    <contour>
      <point x="320.6933333333333" y="557.2933333333332" type="line"/>
      <point x="310.02666666666664" y="474.49333333333334" type="line"/>
      <point x="925.8533333333334" y="474.49333333333334" type="line"/>
      <point x="916.6266666666668" y="557.2933333333332" type="line"/>
    </contour>
    <contour>
      <point x="416.3333333333333" y="38.10666666666667" type="curve" smooth="yes"/>
      <point x="416.3333333333333" y="59.68000000000001"/>
      <point x="401.6133333333333" y="73.0"/>
      <point x="374.6933333333333" y="78.70666666666665" type="curve" smooth="yes"/>
      <point x="288.3733333333333" y="90.01333333333334" type="line" smooth="yes"/>
      <point x="238.24" y="100.51999999999998"/>
      <point x="234.66666666666663" y="124.66666666666663"/>
      <point x="255.30666666666664" y="187.54666666666665" type="curve" smooth="yes"/>
      <point x="635.3466666666667" y="1328.8933333333334" type="line" smooth="yes"/>
      <point x="610.36" y="1324.4266666666667" type="line"/>
      <point x="993.9333333333333" y="170.87999999999997" type="line" smooth="yes"/>
      <point x="1011.4666666666666" y="117.05333333333334"/>
      <point x="1010.0266666666665" y="95.10666666666665"/>
      <point x="978.5733333333333" y="90.33333333333333" type="curve" smooth="yes"/>
      <point x="893.1866666666666" y="79.21333333333334" type="line" smooth="yes"/>
      <point x="866.3066666666666" y="73.38666666666667"/>
      <point x="851.1733333333333" y="59.94666666666665"/>
      <point x="851.1733333333333" y="38.10666666666667" type="curve" smooth="yes"/>
      <point x="851.1733333333333" y="13.640000000000004"/>
      <point x="866.7466666666668" y="0.0"/>
      <point x="898.3866666666667" y="0.0" type="curve" smooth="yes"/>
      <point x="1238.8533333333335" y="0.0" type="line" smooth="yes"/>
      <point x="1270.48" y="0.0"/>
      <point x="1286.4399999999998" y="13.92"/>
      <point x="1286.4399999999998" y="38.10666666666667" type="curve" smooth="yes"/>
      <point x="1286.4399999999998" y="59.38666666666667"/>
      <point x="1275.0399999999997" y="70.69333333333334"/>
      <point x="1237.3333333333333" y="82.08" type="curve" smooth="yes"/>
      <point x="1189.1333333333332" y="95.36"/>
      <point x="1165.3466666666666" y="113.98666666666666"/>
      <point x="1148.8933333333334" y="164.92" type="curve" smooth="yes"/>
      <point x="779.9866666666667" y="1266.2266666666667" type="line" smooth="yes"/>
      <point x="768.4799999999999" y="1301.8666666666668"/>
      <point x="776.9466666666667" y="1310.48"/>
      <point x="809.1466666666664" y="1319.466666666667" type="curve" smooth="yes"/>
      <point x="847.5600000000001" y="1329.7733333333335"/>
      <point x="867.2133333333334" y="1339.7199999999998"/>
      <point x="867.2133333333334" y="1361.8933333333332" type="curve" smooth="yes"/>
      <point x="867.2133333333334" y="1384.9466666666665"/>
      <point x="850.6933333333334" y="1400.0"/>
      <point x="819.6266666666668" y="1400.0" type="curve" smooth="yes"/>
      <point x="475.5733333333334" y="1400.0" type="line" smooth="yes"/>
      <point x="444.50666666666666" y="1400.0"/>
      <point x="428.36" y="1386.5466666666666"/>
      <point x="428.36" y="1361.8933333333332" type="curve" smooth="yes"/>
      <point x="428.36" y="1339.7733333333333"/>
      <point x="448.49333333333334" y="1329.9866666666667"/>
      <point x="486.47999999999996" y="1320.0" type="curve" smooth="yes"/>
      <point x="527.3733333333333" y="1308.3466666666668"/>
      <point x="535.0933333333334" y="1299.3066666666666"/>
      <point x="521.1866666666667" y="1257.5866666666668" type="curve" smooth="yes"/>
      <point x="162.98666666666668" y="178.07999999999998" type="line" smooth="yes"/>
      <point x="143.90666666666667" y="117.57333333333331"/>
      <point x="136.46666666666667" y="98.82666666666664"/>
      <point x="100.92" y="89.61333333333333" type="curve" smooth="yes"/>
      <point x="59.76" y="79.01333333333334" type="line" smooth="yes"/>
      <point x="33.760000000000005" y="69.17333333333332"/>
      <point x="19.626666666666665" y="58.63999999999998"/>
      <point x="19.626666666666665" y="38.10666666666667" type="curve" smooth="yes"/>
      <point x="19.626666666666665" y="13.640000000000004"/>
      <point x="35.49333333333333" y="0.0"/>
      <point x="66.46666666666667" y="0.0" type="curve" smooth="yes"/>
      <point x="369.12" y="0.0" type="line" smooth="yes"/>
      <point x="400.56" y="0.0"/>
      <point x="416.3333333333333" y="13.640000000000004"/>
    </contour>
  </outline>
</glyph>
<glyph name="B" format="2">
  <advance width="1226.32"/>
  <unicode hex="0042"/>
  <outline>
    <contour>
      <point x="1169.9333333333334" y="337.6" type="curve" smooth="yes"/>
      <point x="1169.9333333333334" y="537.634859437751"/>
      <point x="997.7333333333335" y="680.3466666666666"/>
      <point x="696.8" y="680.3466666666666" type="curve"/>
      <point x="620.5066666666668" y="649.9333333333334" type="line"/>
      <point x="947.8266666666667" y="649.9333333333334"/>
      <point x="1093.853333333333" y="798.5621494359599"/>
      <point x="1093.853333333333" y="999.0666666666667" type="curve" smooth="yes"/>
      <point x="1093.853333333333" y="1235.4239727195227"/>
      <point x="907.4933333333333" y="1400.0"/>
      <point x="566.6933333333334" y="1400.0" type="curve" smooth="yes"/>
      <point x="136.89333333333332" y="1400.0" type="line" smooth="yes"/>
      <point x="105.82666666666668" y="1400.0"/>
      <point x="89.68" y="1386.5466666666666"/>
      <point x="89.68" y="1361.8933333333332" type="curve" smooth="yes"/>
      <point x="89.68" y="1339.8266666666666"/>
      <point x="104.24" y="1326.7733333333333"/>
      <point x="131.04" y="1319.1866666666665" type="curve" smooth="yes"/>
      <point x="188.9333333333333" y="1308.16" type="line" smooth="yes"/>
      <point x="229.72" y="1298.7333333333333"/>
      <point x="251.86666666666667" y="1276.2933333333335"/>
      <point x="251.86666666666667" y="1231.7600000000002" type="curve" smooth="yes"/>
      <point x="251.86666666666667" y="168.23999999999998" type="line" smooth="yes"/>
      <point x="251.86666666666667" y="123.70666666666666"/>
      <point x="228.2266666666667" y="101.63999999999999"/>
      <point x="185.2" y="91.84000000000002" type="curve" smooth="yes"/>
      <point x="131.04" y="80.81333333333333" type="line" smooth="yes"/>
      <point x="104.24" y="72.85333333333331"/>
      <point x="89.68" y="60.17333333333331"/>
      <point x="89.68" y="38.10666666666667" type="curve" smooth="yes"/>
      <point x="89.68" y="13.453333333333331"/>
      <point x="105.82666666666668" y="0.0"/>
      <point x="136.89333333333332" y="0.0" type="curve" smooth="yes"/>
      <point x="692.84" y="0.0" type="line" smooth="yes"/>
      <point x="1005.88" y="0.0"/>
      <point x="1169.9333333333334" y="143.44527131782948"/>
    </contour>
    <contour>
      <point x="623.4533333333334" y="622.5466666666667" type="line" smooth="yes"/>
      <point x="889.5866666666666" y="622.5466666666667"/>
      <point x="1019.2133333333333" y="506.88676994166235"/>
      <point x="1019.2133333333333" y="341.49333333333334" type="curve" smooth="yes"/>
      <point x="1019.2133333333333" y="188.48187412587413"/>
      <point x="905.88" y="81.68"/>
      <point x="666.3866666666667" y="81.68" type="curve" smooth="yes"/>
      <point x="513.0133333333333" y="81.68" type="line" smooth="yes"/>
      <point x="434.7466666666666" y="81.68"/>
      <point x="398.97333333333324" y="113.08000000000001"/>
      <point x="398.97333333333324" y="175.07999999999996" type="curve" smooth="yes"/>
      <point x="398.97333333333324" y="1319.706666666667" type="line"/>
      <point x="550.9466666666666" y="1319.706666666667" type="line" smooth="yes"/>
      <point x="818.7733333333333" y="1319.706666666667"/>
      <point x="948.3066666666667" y="1186.010801529471"/>
      <point x="948.3066666666667" y="995.4" type="curve" smooth="yes"/>
      <point x="948.3066666666667" y="810.3575246132208"/>
      <point x="822.7333333333332" y="699.2666666666667"/>
      <point x="613.24" y="699.2666666666667" type="curve" smooth="yes"/>
      <point x="345.87999999999994" y="699.2666666666667" type="line"/>
      <point x="345.87999999999994" y="622.5466666666667" type="line"/>
    </contour>
  </outline>
</glyph>
<glyph name="C" format="2">
  <advance width="1300.3733333333332"/>
  <unicode hex="0043"/>
  <anchor x="734.9466666666666" y="1543.0" name="center"/>
  <outline>
    <contour>
      <point x="1246.8533333333335" y="322.25333333333333" type="curve" smooth="yes"/>
      <point x="1249.4666666666667" y="339.8933333333333"/>
      <point x="1241.4533333333331" y="352.76"/>
      <point x="1228.1466666666668" y="354.5733333333333" type="curve" smooth="yes"/>
      <point x="1213.600860215054" y="356.78666666666663"/>
      <point x="1199.7333333333333" y="345.37333333333333"/>
      <point x="1183.6799999999998" y="322.1333333333334" type="curve" smooth="yes"/>
      <point x="1097.388226264243" y="158.83689301880233"/>
      <point x="954.1745110410094" y="82.24"/>
      <point x="767.5466666666666" y="82.24" type="curve" smooth="yes"/>
      <point x="468.8392875318067" y="82.24"/>
      <point x="232.8133333333333" y="324.9609835962045"/>
      <point x="232.8133333333333" y="721.5066666666667" type="curve" smooth="yes"/>
      <point x="232.8133333333333" y="1081.5157554625757"/>
      <point x="444.84419475655426" y="1342.3866666666668"/>
      <point x="720.2133333333334" y="1342.3866666666668" type="curve" smooth="yes"/>
      <point x="925.4266666666666" y="1342.3866666666668"/>
      <point x="1063.460195977317" y="1252.9706741121058"/>
      <point x="1165.226666666667" y="1011.12" type="curve" smooth="yes"/>
      <point x="1176.16" y="985.7333333333333"/>
      <point x="1193.5866666666666" y="973.9066666666666"/>
      <point x="1215.2133333333334" y="976.4399999999999" type="curve" smooth="yes"/>
      <point x="1242.6268045098557" y="979.6553540098117"/>
      <point x="1256.5693113312159" y="1003.7267712858796"/>
      <point x="1248.12" y="1030.92" type="curve" smooth="yes"/>
      <point x="1139.7733333333333" y="1372.6933333333332" type="line" smooth="yes"/>
      <point x="1130.2666666666667" y="1404.8533333333332"/>
      <point x="1118.6666666666667" y="1415.4666666666665"/>
      <point x="1099.1466666666665" y="1415.4666666666665" type="curve" smooth="yes"/>
      <point x="1052.1466666666665" y="1415.4666666666665"/>
      <point x="1063.8933333333332" y="1339.96"/>
      <point x="1038.6133333333335" y="1339.96" type="curve" smooth="yes"/>
      <point x="1010.4133333333333" y="1339.96"/>
      <point x="922.3466666666666" y="1424.8000000000002"/>
      <point x="718.56" y="1424.8000000000002" type="curve" smooth="yes"/>
      <point x="359.2933333333333" y="1424.8000000000002"/>
      <point x="83.10666666666665" y="1112.0145520691221"/>
      <point x="83.10666666666665" y="695.5466666666666" type="curve" smooth="yes"/>
      <point x="83.10666666666665" y="275.33755829903976"/>
      <point x="329.6966053169734" y="-29.6"/>
      <point x="732.9866666666667" y="-29.6" type="curve" smooth="yes"/>
      <point x="1041.5828534868842" y="-29.6"/>
      <point x="1214.8729528863819" y="161.25894009841662"/>
    </contour>
  </outline>
</glyph>
<glyph name="D" format="2">
  <advance width="1451.0266666666664"/>
  <unicode hex="0044"/>
  <anchor x="718.3733333333333" y="1563.0" name="center"/>
  <outline>
    <contour>
      <point x="89.68" y="38.10666666666667" type="curve" smooth="yes"/>
      <point x="89.68" y="13.453333333333331"/>
      <point x="105.82666666666668" y="0.0"/>
      <point x="136.89333333333332" y="0.0" type="curve" smooth="yes"/>
      <point x="641.6266666666667" y="0.0" type="line" smooth="yes"/>
      <point x="1116.4666666666667" y="0.0"/>
      <point x="1366.36" y="290.46666666666664"/>
      <point x="1366.36" y="669.2666666666667" type="curve" smooth="yes"/>
      <point x="1366.36" y="1089.2"/>
      <point x="1046.0616817593789" y="1400.0"/>
      <point x="563.8933333333333" y="1400.0" type="curve" smooth="yes"/>
      <point x="136.89333333333332" y="1400.0" type="line" smooth="yes"/>
      <point x="105.93333333333334" y="1400.0"/>
      <point x="89.68" y="1386.5466666666666"/>
      <point x="89.68" y="1361.8933333333332" type="curve" smooth="yes"/>
      <point x="89.68" y="1339.8266666666666"/>
      <point x="104.24" y="1326.7733333333333"/>
      <point x="131.04" y="1319.1866666666665" type="curve" smooth="yes"/>
      <point x="188.9333333333333" y="1308.16" type="line" smooth="yes"/>
      <point x="229.73076343755545" y="1298.8644277940339"/>
      <point x="251.86666666666667" y="1276.3951515151514"/>
      <point x="251.86666666666667" y="1231.7600000000002" type="curve" smooth="yes"/>
      <point x="251.86666666666667" y="168.23999999999998" type="line" smooth="yes"/>
      <point x="251.86666666666667" y="123.70666666666666"/>
      <point x="229.73076343755545" y="101.13557220596624"/>
      <point x="188.9333333333333" y="91.84000000000002" type="curve" smooth="yes"/>
      <point x="131.04" y="80.81333333333333" type="line" smooth="yes"/>
      <point x="104.24" y="73.22666666666665"/>
      <point x="89.68" y="60.17333333333331"/>
    </contour>
    <contour>
      <point x="638.12" y="82.42666666666666" type="curve" smooth="yes"/>
      <point x="507.93333333333334" y="82.42666666666666" type="line" smooth="yes"/>
      <point x="431.7466666666666" y="82.42666666666666"/>
      <point x="397.1066666666666" y="112.88715883668903"/>
      <point x="397.1066666666666" y="177.18666666666667" type="curve" smooth="yes"/>
      <point x="397.1066666666666" y="1317.9466666666667" type="line"/>
      <point x="550.0799999999999" y="1317.9466666666667" type="line" smooth="yes"/>
      <point x="945.1339915373766" y="1317.9466666666667"/>
      <point x="1214.1333333333334" y="1046.6721685254026"/>
      <point x="1214.1333333333334" y="675.4666666666667" type="curve" smooth="yes"/>
      <point x="1214.1333333333334" y="320.2278126072001"/>
      <point x="1007.0533333333333" y="82.42666666666666"/>
    </contour>
  </outline>
</glyph>
<glyph name="E" format="2">
  <advance width="1197.4"/>
  <unicode hex="0045"/>
  <anchor x="618.64" y="1516.72" name="center"/>
  <outline>
    <contour>
      <point x="333.96" y="729.36" type="line"/>
      <point x="333.96" y="649.44" type="line"/>
      <point x="751.1200000000001" y="649.44" type="line" smooth="yes"/>
      <point x="821.4133333333333" y="649.44"/>
      <point x="847.52" y="626.5866666666667"/>
      <point x="879.6266666666668" y="550.84" type="curve" smooth="yes"/>
      <point x="891.3466666666666" y="527.2133333333333"/>
      <point x="908.28" y="515.0666666666667"/>
      <point x="928.8933333333334" y="520.8933333333333" type="curve" smooth="yes"/>
      <point x="950.2933333333334" y="527.04"/>
      <point x="957.96" y="545.9733333333334"/>
      <point x="950.7466666666667" y="575.7466666666667" type="curve" smooth="yes"/>
      <point x="884.9866666666666" y="841.2666666666667" type="line" smooth="yes"/>
      <point x="878.4799999999999" y="868.3066666666667"/>
      <point x="864.5733333333333" y="880.04"/>
      <point x="843.3733333333333" y="877.64" type="curve" smooth="yes"/>
      <point x="824.8" y="875.24"/>
      <point x="815.2266666666667" y="857.6133333333332"/>
      <point x="812.56" y="828.5733333333334" type="curve" smooth="yes"/>
      <point x="811.6666666666667" y="751.8"/>
      <point x="788.8133333333334" y="729.36"/>
      <point x="722.3199999999999" y="729.36" type="curve" smooth="yes"/>
    </contour>
    <contour>
      <point x="89.68" y="1361.8933333333332" type="curve" smooth="yes"/>
      <point x="89.68" y="1339.8266666666666"/>
      <point x="104.24" y="1326.7733333333333"/>
      <point x="131.04" y="1319.1866666666665" type="curve" smooth="yes"/>
      <point x="188.9333333333333" y="1308.16" type="line" smooth="yes"/>
      <point x="229.72" y="1298.7333333333333"/>
      <point x="251.86666666666667" y="1276.2933333333335"/>
      <point x="251.86666666666667" y="1231.7600000000002" type="curve" smooth="yes"/>
      <point x="251.86666666666667" y="168.23999999999998" type="line" smooth="yes"/>
      <point x="251.86666666666667" y="123.70666666666666"/>
      <point x="229.72" y="101.26666666666667"/>
      <point x="188.9333333333333" y="91.84000000000002" type="curve" smooth="yes"/>
      <point x="131.04" y="80.81333333333333" type="line" smooth="yes"/>
      <point x="104.24" y="73.22666666666665"/>
      <point x="89.68" y="60.17333333333331"/>
      <point x="89.68" y="38.10666666666667" type="curve" smooth="yes"/>
      <point x="89.68" y="13.453333333333331"/>
      <point x="105.82666666666668" y="0.0"/>
      <point x="136.89333333333332" y="0.0" type="curve" smooth="yes"/>
      <point x="905.0799999999999" y="0.0" type="line" smooth="yes"/>
      <point x="943.6933333333334" y="0.0"/>
      <point x="969.9733333333332" y="-34.72"/>
      <point x="1003.52" y="-34.72" type="curve" smooth="yes"/>
      <point x="1033.4666666666667" y="-34.72"/>
      <point x="1048.6666666666667" y="-18.453333333333337"/>
      <point x="1057.4799999999998" y="16.453333333333333" type="curve" smooth="yes"/>
      <point x="1130.4933333333333" y="323.8" type="line" smooth="yes"/>
      <point x="1138.3066666666666" y="355.66666666666663"/>
      <point x="1128.6533333333332" y="375.93333333333334"/>
      <point x="1104.9733333333334" y="380.24" type="curve" smooth="yes"/>
      <point x="1084.0000000000002" y="384.3333333333333"/>
      <point x="1067.2399999999998" y="374.70666666666665"/>
      <point x="1057.1599999999999" y="347.5733333333333" type="curve" smooth="yes"/>
      <point x="975.1999999999999" y="121.17333333333332"/>
      <point x="920.4533333333334" y="82.42666666666666"/>
      <point x="811.0933333333334" y="82.42666666666666" type="curve" smooth="yes"/>
      <point x="503.3066666666666" y="82.42666666666666" type="line" smooth="yes"/>
      <point x="429.8399999999999" y="82.42666666666666"/>
      <point x="396.73333333333323" y="115.6533333333333"/>
      <point x="396.73333333333323" y="178.81333333333333" type="curve" smooth="yes"/>
      <point x="396.73333333333323" y="1317.5733333333335" type="line"/>
      <point x="790.0666666666667" y="1317.5733333333335" type="line" smooth="yes"/>
      <point x="892.3066666666667" y="1317.5733333333335"/>
      <point x="941.56" y="1293.013333333333"/>
      <point x="1009.0666666666667" y="1113.76" type="curve" smooth="yes"/>
      <point x="1021.76" y="1081.8933333333334"/>
      <point x="1041.8133333333335" y="1071.5866666666668"/>
      <point x="1064.44" y="1075.7733333333333" type="curve" smooth="yes"/>
      <point x="1088.6799999999998" y="1080.0800000000002"/>
      <point x="1101.96" y="1098.7866666666666"/>
      <point x="1093.96" y="1129.28" type="curve" smooth="yes"/>
      <point x="1023.36" y="1393.8266666666666" type="line" smooth="yes"/>
      <point x="1013.9200000000001" y="1428.7600000000002"/>
      <point x="999.2533333333334" y="1445.0"/>
      <point x="969.7733333333333" y="1445.0" type="curve" smooth="yes"/>
      <point x="931.12" y="1445.0"/>
      <point x="911.9200000000001" y="1400.0"/>
      <point x="867.5466666666666" y="1400.0" type="curve" smooth="yes"/>
      <point x="136.89333333333332" y="1400.0" type="line" smooth="yes"/>
      <point x="105.82666666666668" y="1400.0"/>
      <point x="89.68" y="1386.5466666666666"/>
    </contour>
  </outline>
</glyph>
<glyph name="F" format="2">
  <advance width="1091.44"/>
  <unicode hex="0046"/>
  <outline>
    <contour>
      <point x="806.8533333333334" y="1400.0" type="curve" smooth="yes"/>
      <point x="136.89333333333332" y="1400.0" type="line" smooth="yes"/>
      <point x="105.82666666666668" y="1400.0"/>
      <point x="89.68" y="1386.5466666666666"/>
      <point x="89.68" y="1361.8933333333332" type="curve" smooth="yes"/>
      <point x="89.68" y="1339.8266666666666"/>
      <point x="104.24" y="1326.7733333333333"/>
      <point x="131.04" y="1319.1866666666665" type="curve" smooth="yes"/>
      <point x="188.9333333333333" y="1308.16" type="line" smooth="yes"/>
      <point x="229.72" y="1298.7333333333333"/>
      <point x="251.86666666666667" y="1276.2933333333335"/>
      <point x="251.86666666666667" y="1231.7600000000002" type="curve" smooth="yes"/>
      <point x="251.86666666666667" y="168.23999999999998" type="line" smooth="yes"/>
      <point x="251.86666666666667" y="123.60484848484847"/>
      <point x="229.73076343755545" y="101.13557220596624"/>
      <point x="188.9333333333333" y="91.84000000000002" type="curve" smooth="yes"/>
      <point x="131.04" y="80.81333333333333" type="line" smooth="yes"/>
      <point x="104.24" y="73.22666666666665"/>
      <point x="89.68" y="60.17333333333331"/>
      <point x="89.68" y="38.10666666666667" type="curve" smooth="yes"/>
      <point x="89.68" y="13.453333333333331"/>
      <point x="105.82666666666668" y="0.0"/>
      <point x="136.89333333333332" y="0.0" type="curve" smooth="yes"/>
      <point x="547.4666666666666" y="0.0" type="line" smooth="yes"/>
      <point x="578.9066666666666" y="0.0"/>
      <point x="595.0533333333333" y="13.453333333333331"/>
      <point x="595.0533333333333" y="38.10666666666667" type="curve" smooth="yes"/>
      <point x="595.0533333333333" y="61.080000000000005"/>
      <point x="580.2266666666667" y="73.74666666666666"/>
      <point x="553.3199999999999" y="79.39999999999998" type="curve" smooth="yes"/>
      <point x="461.96000000000004" y="91.84000000000002" type="line" smooth="yes"/>
      <point x="421.3733333333334" y="98.05333333333336"/>
      <point x="398.97333333333324" y="123.13818181818183"/>
      <point x="398.97333333333324" y="168.34666666666666" type="curve" smooth="yes"/>
      <point x="398.97333333333324" y="1317.9466666666667" type="line"/>
      <point x="740.5733333333333" y="1317.9466666666667" type="line" smooth="yes"/>
      <point x="837.5733333333333" y="1317.9466666666667"/>
      <point x="885.2758865494011" y="1292.1832902896103"/>
      <point x="951.6666666666665" y="1110.4266666666667" type="curve" smooth="yes"/>
      <point x="963.9866666666667" y="1078.5600000000002"/>
      <point x="983.8133333333333" y="1068.2533333333333"/>
      <point x="1003.8133333333334" y="1072.16" type="curve" smooth="yes"/>
      <point x="1027.12" y="1076.1866666666665"/>
      <point x="1040.8666666666668" y="1094.4266666666667"/>
      <point x="1032.9599999999998" y="1124.36" type="curve" smooth="yes"/>
      <point x="963.7866666666667" y="1393.8266666666666" type="line" smooth="yes"/>
      <point x="954.3466666666667" y="1428.5600000000002"/>
      <point x="939.68" y="1445.0"/>
      <point x="910.1999999999999" y="1445.0" type="curve" smooth="yes"/>
      <point x="874.4266666666665" y="1445.0"/>
      <point x="847.6933333333333" y="1400.0"/>
    </contour>
    <contour>
      <point x="316.81333333333333" y="695.8266666666666" type="line"/>
      <point x="316.81333333333333" y="615.9066666666666" type="line"/>
      <point x="735.4666666666667" y="615.9066666666666" type="line" smooth="yes"/>
      <point x="804.3599999999999" y="615.9066666666666"/>
      <point x="828.7428940914875" y="588.9225231930064"/>
      <point x="860.3333333333333" y="516.56" type="curve" smooth="yes"/>
      <point x="872.24" y="492.74666666666667"/>
      <point x="889.5466666666667" y="480.50666666666666"/>
      <point x="909.3199999999999" y="486.14666666666665" type="curve" smooth="yes"/>
      <point x="930.7199999999999" y="492.76000000000005"/>
      <point x="938.2" y="511.6933333333333"/>
      <point x="931.36" y="541.4666666666667" type="curve" smooth="yes"/>
      <point x="865.32" y="806.9866666666667" type="line" smooth="yes"/>
      <point x="859.2799999999999" y="834.0266666666666"/>
      <point x="845.1866666666667" y="845.7599999999999"/>
      <point x="823.8" y="843.3599999999999" type="curve" smooth="yes"/>
      <point x="804.9466666666666" y="840.9599999999999"/>
      <point x="794.7199999999999" y="822.9599999999999"/>
      <point x="793.0799999999999" y="794.6666666666667" type="curve" smooth="yes"/>
      <point x="793.4" y="721.2533333333333"/>
      <point x="774.3599999999999" y="695.8266666666666"/>
      <point x="702.3066666666667" y="695.8266666666666" type="curve" smooth="yes"/>
    </contour>
  </outline>
</glyph>
<glyph name="G" format="2">
  <advance width="1418.76"/>
  <unicode hex="0047"/>
  <anchor x="752.1600000000001" y="1537.4666666666667" name="center"/>
  <outline>
    <contour>
      <point x="1220.5466666666664" y="34.440000000000005" type="curve" smooth="yes"/>
      <point x="1220.5466666666664" y="443.1066666666666" type="line" smooth="yes"/>
      <point x="1220.5466666666664" y="487.65333333333336"/>
      <point x="1243.8744232078943" y="509.45263623432015"/>
      <point x="1283.1066666666666" y="517.9733333333334" type="curve" smooth="yes"/>
      <point x="1338.6666666666667" y="527.7733333333333" type="line" smooth="yes"/>
      <point x="1365.2399999999998" y="535.2266666666667"/>
      <point x="1380.48" y="546.4399999999999"/>
      <point x="1380.48" y="568.28" type="curve" smooth="yes"/>
      <point x="1380.48" y="592.12"/>
      <point x="1364.9066666666665" y="605.28"/>
      <point x="1332.8933333333334" y="605.28" type="curve" smooth="yes"/>
      <point x="953.92" y="605.28" type="line" smooth="yes"/>
      <point x="922.5733333333333" y="605.28"/>
      <point x="906.7066666666667" y="591.9466666666666"/>
      <point x="906.7066666666667" y="568.1733333333334" type="curve" smooth="yes"/>
      <point x="906.7066666666667" y="545.8133333333333"/>
      <point x="923.9733333333334" y="533.9333333333333"/>
      <point x="951.88" y="526.7733333333333" type="curve" smooth="yes"/>
      <point x="1022.1466666666666" y="515.7733333333333" type="line" smooth="yes"/>
      <point x="1062.1466666666665" y="508.13333333333327"/>
      <point x="1084.7066666666667" y="486.25333333333333"/>
      <point x="1084.7066666666667" y="443.1066666666666" type="curve" smooth="yes"/>
      <point x="1084.7066666666667" y="235.86666666666665" type="line" smooth="yes"/>
      <point x="1084.7066666666667" y="131.7277037037037"/>
      <point x="989.8995988538682" y="66.58666666666664"/>
      <point x="778.6533333333332" y="66.58666666666664" type="curve" smooth="yes"/>
      <point x="473.72694533762063" y="66.58666666666664"/>
      <point x="229.66666666666663" y="315.69345811051693"/>
      <point x="229.66666666666663" y="719.32" type="curve" smooth="yes"/>
      <point x="229.66666666666663" y="1097.3051951380337"/>
      <point x="454.3568944499831" y="1342.3866666666668"/>
      <point x="743.3466666666667" y="1342.3866666666668" type="curve" smooth="yes"/>
      <point x="956.0883288741665" y="1342.3866666666668"/>
      <point x="1101.6509380853652" y="1258.097821793055"/>
      <point x="1208.9199999999998" y="1010.8399999999999" type="curve" smooth="yes"/>
      <point x="1219.4266666666667" y="987.4933333333333"/>
      <point x="1238.4682235621722" y="975.0011776437829"/>
      <point x="1260.12" y="976.6266666666667" type="curve" smooth="yes"/>
      <point x="1285.6533333333334" y="978.9066666666666"/>
      <point x="1299.3200000000002" y="1002.5466666666667"/>
      <point x="1290.9733333333334" y="1029.0533333333333" type="curve" smooth="yes"/>
      <point x="1184.2133333333331" y="1368.96" type="line" smooth="yes"/>
      <point x="1173.3504854460625" y="1404.7533127373144"/>
      <point x="1161.24" y="1415.0933333333332"/>
      <point x="1139.96" y="1415.0933333333332" type="curve" smooth="yes"/>
      <point x="1098.2666666666667" y="1415.0933333333332"/>
      <point x="1105.2227450980392" y="1340.3333333333333"/>
      <point x="1080.8933333333332" y="1340.3333333333333" type="curve" smooth="yes"/>
      <point x="1048.6316117926324" y="1340.3333333333333"/>
      <point x="966.3368131383598" y="1424.8000000000002"/>
      <point x="741.16" y="1424.8000000000002" type="curve" smooth="yes"/>
      <point x="363.79393341384366" y="1424.8000000000002"/>
      <point x="81.24" y="1115.6704897765098"/>
      <point x="81.24" y="693.5066666666667" type="curve" smooth="yes"/>
      <point x="81.24" y="272.8941452413171"/>
      <point x="330.84000000000003" y="-28.0"/>
      <point x="741.5466666666666" y="-28.0" type="curve" smooth="yes"/>
      <point x="980.9994589371981" y="-28.0"/>
      <point x="1068.7500254128931" y="65.85333333333334"/>
      <point x="1097.9066666666668" y="65.85333333333334" type="curve" smooth="yes"/>
      <point x="1126.5882352941178" y="65.85333333333334"/>
      <point x="1123.6853333333333" y="-33.42666666666666"/>
      <point x="1172.7466666666667" y="-33.42666666666666" type="curve" smooth="yes"/>
      <point x="1204.48" y="-33.42666666666666"/>
      <point x="1220.5466666666664" y="-12.120000000000005"/>
    </contour>
  </outline>
</glyph>
<glyph name="H" format="2">
  <advance width="1520.1333333333332"/>
  <unicode hex="0048"/>
  <outline>
    <contour>
      <point x="309.79999999999995" y="704.72" type="line"/>
      <point x="309.79999999999995" y="621.08" type="line"/>
      <point x="1180.72" y="621.08" type="line"/>
      <point x="1180.72" y="704.72" type="line"/>
    </contour>
    <contour>
      <point x="396.2533333333333" y="168.6133333333333" type="curve" smooth="yes"/>
      <point x="396.2533333333333" y="1232.5066666666667" type="line" smooth="yes"/>
      <point x="396.2533333333333" y="1276.2933333333335"/>
      <point x="418.3999999999999" y="1297.9866666666667"/>
      <point x="458.8133333333333" y="1307.4133333333334" type="curve" smooth="yes"/>
      <point x="517.0799999999999" y="1319.1866666666665" type="line" smooth="yes"/>
      <point x="544.2533333333333" y="1327.1466666666665"/>
      <point x="558.8133333333333" y="1339.7199999999998"/>
      <point x="558.8133333333333" y="1361.8933333333332" type="curve" smooth="yes"/>
      <point x="558.8133333333333" y="1386.5466666666666"/>
      <point x="542.6666666666666" y="1400.0"/>
      <point x="511.59999999999997" y="1400.0" type="curve" smooth="yes"/>
      <point x="136.89333333333332" y="1400.0" type="line" smooth="yes"/>
      <point x="105.82666666666668" y="1400.0"/>
      <point x="89.68" y="1386.5466666666666"/>
      <point x="89.68" y="1361.8933333333332" type="curve" smooth="yes"/>
      <point x="89.68" y="1339.8266666666666"/>
      <point x="103.86666666666666" y="1327.1466666666665"/>
      <point x="131.04" y="1319.1866666666665" type="curve" smooth="yes"/>
      <point x="188.9333333333333" y="1307.4133333333334" type="line" smooth="yes"/>
      <point x="229.3466666666667" y="1297.9866666666667"/>
      <point x="251.86666666666667" y="1276.2933333333335"/>
      <point x="251.86666666666667" y="1232.5066666666667" type="curve" smooth="yes"/>
      <point x="251.86666666666667" y="168.6133333333333" type="line" smooth="yes"/>
      <point x="251.86666666666667" y="124.08000000000001"/>
      <point x="228.2266666666667" y="102.01333333333332"/>
      <point x="185.2" y="92.21333333333332" type="curve" smooth="yes"/>
      <point x="131.04" y="80.81333333333333" type="line" smooth="yes"/>
      <point x="104.24" y="72.85333333333331"/>
      <point x="89.68" y="60.17333333333331"/>
      <point x="89.68" y="38.10666666666667" type="curve" smooth="yes"/>
      <point x="89.68" y="13.453333333333331"/>
      <point x="105.82666666666668" y="0.0"/>
      <point x="136.89333333333332" y="0.0" type="curve" smooth="yes"/>
      <point x="511.59999999999997" y="0.0" type="line" smooth="yes"/>
      <point x="542.6666666666666" y="0.0"/>
      <point x="558.8133333333333" y="13.453333333333331"/>
      <point x="558.8133333333333" y="38.10666666666667" type="curve" smooth="yes"/>
      <point x="558.8133333333333" y="60.27999999999998"/>
      <point x="543.88" y="72.85333333333331"/>
      <point x="517.0799999999999" y="80.81333333333333" type="curve" smooth="yes"/>
      <point x="462.54666666666657" y="92.21333333333332" type="line" smooth="yes"/>
      <point x="419.89333333333326" y="102.01333333333332"/>
      <point x="396.2533333333333" y="124.08000000000001"/>
    </contour>
    <contour>
      <point x="1267.52" y="168.6133333333333" type="curve" smooth="yes"/>
      <point x="1267.52" y="1232.5066666666667" type="line" smooth="yes"/>
      <point x="1267.52" y="1276.2933333333335"/>
      <point x="1289.6666666666665" y="1297.9866666666667"/>
      <point x="1330.0799999999997" y="1307.4133333333334" type="curve" smooth="yes"/>
      <point x="1388.3466666666666" y="1319.1866666666665" type="line" smooth="yes"/>
      <point x="1415.5199999999998" y="1327.1466666666665"/>
      <point x="1430.08" y="1339.7199999999998"/>
      <point x="1430.08" y="1361.8933333333332" type="curve" smooth="yes"/>
      <point x="1430.08" y="1386.5466666666666"/>
      <point x="1413.9333333333332" y="1400.0"/>
      <point x="1382.8666666666668" y="1400.0" type="curve" smooth="yes"/>
      <point x="1008.16" y="1400.0" type="line" smooth="yes"/>
      <point x="977.0933333333334" y="1400.0"/>
      <point x="960.9466666666666" y="1386.5466666666666"/>
      <point x="960.9466666666666" y="1361.8933333333332" type="curve" smooth="yes"/>
      <point x="960.9466666666666" y="1339.8266666666666"/>
      <point x="975.1333333333333" y="1327.1466666666665"/>
      <point x="1002.3066666666667" y="1319.1866666666665" type="curve" smooth="yes"/>
      <point x="1060.2" y="1307.4133333333334" type="line" smooth="yes"/>
      <point x="1100.6133333333335" y="1297.9866666666667"/>
      <point x="1123.1333333333334" y="1276.2933333333335"/>
      <point x="1123.1333333333334" y="1232.5066666666667" type="curve" smooth="yes"/>
      <point x="1123.1333333333334" y="168.6133333333333" type="line" smooth="yes"/>
      <point x="1123.1333333333334" y="124.08000000000001"/>
      <point x="1099.4933333333333" y="102.01333333333332"/>
      <point x="1056.4666666666667" y="92.21333333333332" type="curve" smooth="yes"/>
      <point x="1002.3066666666667" y="80.81333333333333" type="line" smooth="yes"/>
      <point x="975.5066666666667" y="72.85333333333331"/>
      <point x="960.9466666666666" y="60.17333333333331"/>
      <point x="960.9466666666666" y="38.10666666666667" type="curve" smooth="yes"/>
      <point x="960.9466666666666" y="13.453333333333331"/>
      <point x="977.0933333333334" y="0.0"/>
      <point x="1008.16" y="0.0" type="curve" smooth="yes"/>
      <point x="1382.8666666666668" y="0.0" type="line" smooth="yes"/>
      <point x="1413.9333333333332" y="0.0"/>
      <point x="1430.08" y="13.453333333333331"/>
      <point x="1430.08" y="38.10666666666667" type="curve" smooth="yes"/>
      <point x="1430.08" y="60.27999999999998"/>
      <point x="1415.1466666666665" y="72.85333333333331"/>
      <point x="1388.3466666666666" y="80.81333333333333" type="curve" smooth="yes"/>
      <point x="1333.813333333333" y="92.21333333333332" type="line" smooth="yes"/>
      <point x="1291.1599999999999" y="102.01333333333332"/>
      <point x="1267.52" y="124.08000000000001"/>
    </contour>
  </outline>
</glyph>
<glyph name="I" format="2">
  <advance width="634.0933333333334"/>
  <unicode hex="0049"/>
  <outline>
    <contour>
      <point x="389.47999999999996" y="168.6133333333333" type="curve" smooth="yes"/>
      <point x="389.47999999999996" y="1232.5066666666667" type="line" smooth="yes"/>
      <point x="389.47999999999996" y="1276.2933333333335"/>
      <point x="411.6266666666666" y="1297.9866666666667"/>
      <point x="452.0399999999999" y="1307.4133333333334" type="curve" smooth="yes"/>
      <point x="510.3066666666667" y="1319.1866666666665" type="line" smooth="yes"/>
      <point x="537.48" y="1327.1466666666665"/>
      <point x="552.04" y="1339.7199999999998"/>
      <point x="552.04" y="1361.8933333333332" type="curve" smooth="yes"/>
      <point x="552.04" y="1386.5466666666666"/>
      <point x="535.8933333333333" y="1400.0"/>
      <point x="504.82666666666665" y="1400.0" type="curve" smooth="yes"/>
      <point x="129.26666666666665" y="1400.0" type="line" smooth="yes"/>
      <point x="98.2" y="1400.0"/>
      <point x="82.05333333333333" y="1386.5466666666666"/>
      <point x="82.05333333333333" y="1361.8933333333332" type="curve" smooth="yes"/>
      <point x="82.05333333333333" y="1339.8266666666666"/>
      <point x="96.24" y="1327.1466666666665"/>
      <point x="123.41333333333333" y="1319.1866666666665" type="curve" smooth="yes"/>
      <point x="181.30666666666667" y="1307.4133333333334" type="line" smooth="yes"/>
      <point x="221.72" y="1297.9866666666667"/>
      <point x="244.24" y="1276.2933333333335"/>
      <point x="244.24" y="1232.5066666666667" type="curve" smooth="yes"/>
      <point x="244.24" y="168.6133333333333" type="line" smooth="yes"/>
      <point x="244.24" y="124.08000000000001"/>
      <point x="220.6" y="102.01333333333332"/>
      <point x="177.57333333333332" y="92.21333333333332" type="curve" smooth="yes"/>
      <point x="123.41333333333333" y="80.81333333333333" type="line" smooth="yes"/>
      <point x="96.61333333333334" y="72.85333333333331"/>
      <point x="82.05333333333333" y="60.17333333333331"/>
      <point x="82.05333333333333" y="38.10666666666667" type="curve" smooth="yes"/>
      <point x="82.05333333333333" y="13.453333333333331"/>
      <point x="98.2" y="0.0"/>
      <point x="129.26666666666665" y="0.0" type="curve" smooth="yes"/>
      <point x="504.82666666666665" y="0.0" type="line" smooth="yes"/>
      <point x="535.8933333333333" y="0.0"/>
      <point x="552.04" y="13.453333333333331"/>
      <point x="552.04" y="38.10666666666667" type="curve" smooth="yes"/>
      <point x="552.04" y="60.27999999999998"/>
      <point x="537.1066666666667" y="72.85333333333331"/>
      <point x="510.3066666666667" y="80.81333333333333" type="curve" smooth="yes"/>
      <point x="455.77333333333326" y="92.21333333333332" type="line" smooth="yes"/>
      <point x="413.11999999999995" y="102.01333333333332"/>
      <point x="389.47999999999996" y="124.08000000000001"/>
    </contour>
  </outline>
</glyph>
<glyph name="J" format="2">
  <advance width="789.1466666666666"/>
  <unicode hex="004A"/>
  <anchor x="458.76" y="1464.0800000000002" name="center"/>
  <outline>
    <contour>
      <point x="643.6400000000001" y="213.60000000000002" type="curve" smooth="yes"/>
      <point x="643.6400000000001" y="358.0"/>
      <point x="542.5733333333334" y="398.24691358024694"/>
      <point x="542.5733333333334" y="596.7333333333332" type="curve" smooth="yes"/>
      <point x="542.5733333333334" y="1230.2666666666667" type="line" smooth="yes"/>
      <point x="542.5733333333334" y="1274.836202020202"/>
      <point x="564.6912467523058" y="1297.2180985929679"/>
      <point x="607.0" y="1306.6666666666665" type="curve" smooth="yes"/>
      <point x="665.2666666666667" y="1317.6933333333334" type="line" smooth="yes"/>
      <point x="692.0666666666665" y="1325.28"/>
      <point x="706.9999999999999" y="1338.2266666666667"/>
      <point x="706.9999999999999" y="1360.4" type="curve" smooth="yes"/>
      <point x="706.9999999999999" y="1385.0533333333335"/>
      <point x="690.8533333333334" y="1398.5066666666667"/>
      <point x="659.7866666666666" y="1398.5066666666667" type="curve" smooth="yes"/>
      <point x="276.4133333333333" y="1398.5066666666667" type="line" smooth="yes"/>
      <point x="245.34666666666666" y="1398.5066666666667"/>
      <point x="229.2" y="1385.0533333333335"/>
      <point x="229.2" y="1360.4" type="curve" smooth="yes"/>
      <point x="229.2" y="1337.5866666666666"/>
      <point x="244.0266666666667" y="1325.0133333333335"/>
      <point x="271.46666666666664" y="1318.253333333333" type="curve" smooth="yes"/>
      <point x="332.64000000000004" y="1306.3866666666665" type="line" smooth="yes"/>
      <point x="374.639170548667" y="1297.3888136546411"/>
      <point x="397.33333333333337" y="1274.9866666666667"/>
      <point x="397.33333333333337" y="1229.9866666666667" type="curve" smooth="yes"/>
      <point x="397.33333333333337" y="580.0" type="line" smooth="yes"/>
      <point x="397.33333333333337" y="367.1333333333333"/>
      <point x="511.61333333333334" y="331.0933333333333"/>
      <point x="511.61333333333334" y="195.42666666666665" type="curve" smooth="yes"/>
      <point x="511.61333333333334" y="96.05333333333333"/>
      <point x="448.46397306397307" y="47.23999999999999"/>
      <point x="360.0666666666666" y="47.23999999999999" type="curve" smooth="yes"/>
      <point x="265.96000000000004" y="47.23999999999999"/>
      <point x="234.50666666666666" y="93.45244444444444"/>
      <point x="234.50666666666666" y="167.6533333333333" type="curve" smooth="yes"/>
      <point x="234.50666666666666" y="221.42666666666662" type="line" smooth="yes"/>
      <point x="234.50666666666666" y="271.9610256410256"/>
      <point x="206.8767295597484" y="302.28000000000003"/>
      <point x="165.72" y="302.28000000000003" type="curve" smooth="yes"/>
      <point x="113.08" y="302.28000000000003"/>
      <point x="81.17333333333333" y="259.7266666666667"/>
      <point x="81.17333333333333" y="194.90666666666667" type="curve" smooth="yes"/>
      <point x="81.17333333333333" y="66.18679867986798"/>
      <point x="174.6952657004831" y="-26.50666666666666"/>
      <point x="347.4933333333333" y="-26.50666666666666" type="curve" smooth="yes"/>
      <point x="518.5333333333332" y="-26.50666666666666"/>
      <point x="643.6400000000001" y="67.16"/>
    </contour>
  </outline>
</glyph>
<glyph name="K" format="2">
  <advance width="1368.0133333333333"/>
  <unicode hex="004B"/>
  <anchor x="729.8000000000001" y="1461.8666666666666" name="center"/>
  <outline>
    <contour>
      <point x="324.4266666666667" y="534.48" type="line"/>
      <point x="349.38666666666666" y="450.09333333333336" type="line"/>
      <point x="1105.3733333333334" y="1224.1866666666667" type="line" smooth="yes"/>
      <point x="1164.9904863220822" y="1284.1609557031595"/>
      <point x="1182.4281176883208" y="1302.9504190352752"/>
      <point x="1236.6666666666665" y="1316.16" type="curve" smooth="yes"/>
      <point x="1284.7066666666665" y="1329.4933333333333"/>
      <point x="1299.5733333333333" y="1339.4266666666667"/>
      <point x="1299.5733333333333" y="1361.8933333333332" type="curve" smooth="yes"/>
      <point x="1299.5733333333333" y="1386.3600000000001"/>
      <point x="1283.7066666666665" y="1400.0"/>
      <point x="1251.9866666666667" y="1400.0" type="curve" smooth="yes"/>
      <point x="931.12" y="1400.0" type="line" smooth="yes"/>
      <point x="899.7733333333333" y="1400.0"/>
      <point x="883.9066666666666" y="1386.3600000000001"/>
      <point x="883.9066666666666" y="1361.8933333333332" type="curve" smooth="yes"/>
      <point x="883.9066666666666" y="1339.8266666666666"/>
      <point x="898.9333333333333" y="1326.4133333333334"/>
      <point x="925.64" y="1319.5866666666666" type="curve" smooth="yes"/>
      <point x="998.3733333333333" y="1308.88" type="line" smooth="yes"/>
      <point x="1037.6154543673629" y="1300.700672253967"/>
      <point x="1041.70256311703" y="1277.1226336063676"/>
      <point x="1016.72" y="1252.1866666666667" type="curve" smooth="yes"/>
    </contour>
    <contour>
      <point x="614.5733333333334" y="785.16" type="line"/>
      <point x="1025.1733333333334" y="150.07999999999998" type="line" smooth="yes"/>
      <point x="1046.4092926264495" y="116.74346699879001"/>
      <point x="1045.9437002468603" y="95.1769552162329"/>
      <point x="1012.8800000000001" y="88.89333333333333" type="curve" smooth="yes"/>
      <point x="942.8533333333332" y="79.61333333333333" type="line" smooth="yes"/>
      <point x="917.9999999999999" y="73.10666666666667"/>
      <point x="903.3199999999999" y="60.18666666666667"/>
      <point x="903.3199999999999" y="38.10666666666667" type="curve" smooth="yes"/>
      <point x="903.3199999999999" y="13.640000000000004"/>
      <point x="918.7199999999999" y="0.0"/>
      <point x="950.0666666666666" y="0.0" type="curve" smooth="yes"/>
      <point x="1322.2933333333333" y="0.0" type="line" smooth="yes"/>
      <point x="1353.6399999999999" y="0.0"/>
      <point x="1369.5066666666667" y="13.640000000000004"/>
      <point x="1369.5066666666667" y="38.10666666666667" type="curve" smooth="yes"/>
      <point x="1369.5066666666667" y="63.688"/>
      <point x="1355.0318322481073" y="72.83690065113562"/>
      <point x="1297.1333333333332" y="88.05333333333334" type="curve" smooth="yes"/>
      <point x="1260.8821681826516" y="97.2749660677568"/>
      <point x="1221.2409214575816" y="112.51329936510051"/>
      <point x="1196.2533333333336" y="150.74666666666667" type="curve" smooth="yes"/>
      <point x="723.0933333333335" y="877.9733333333335" type="line"/>
    </contour>
    <contour>
      <point x="397.1066666666666" y="171.9733333333333" type="curve" smooth="yes"/>
      <point x="397.1066666666666" y="1231.7600000000002" type="line" smooth="yes"/>
      <point x="397.1066666666666" y="1276.2933333333335"/>
      <point x="419.6266666666666" y="1298.7333333333333"/>
      <point x="460.0399999999999" y="1308.16" type="curve" smooth="yes"/>
      <point x="517.5600000000001" y="1319.1866666666665" type="line" smooth="yes"/>
      <point x="545.1066666666667" y="1327.1466666666665"/>
      <point x="559.6666666666666" y="1339.7199999999998"/>
      <point x="559.6666666666666" y="1361.8933333333332" type="curve" smooth="yes"/>
      <point x="559.6666666666666" y="1384.9466666666665"/>
      <point x="543.52" y="1400.0"/>
      <point x="512.4533333333334" y="1400.0" type="curve" smooth="yes"/>
      <point x="136.89333333333332" y="1400.0" type="line" smooth="yes"/>
      <point x="105.82666666666668" y="1400.0"/>
      <point x="89.68" y="1386.5466666666666"/>
      <point x="89.68" y="1361.8933333333332" type="curve" smooth="yes"/>
      <point x="89.68" y="1339.8266666666666"/>
      <point x="104.24" y="1326.7733333333333"/>
      <point x="131.04" y="1319.1866666666665" type="curve" smooth="yes"/>
      <point x="188.9333333333333" y="1308.16" type="line" smooth="yes"/>
      <point x="229.73076343755545" y="1298.8644277940339"/>
      <point x="251.86666666666667" y="1276.2933333333335"/>
      <point x="251.86666666666667" y="1231.7600000000002" type="curve" smooth="yes"/>
      <point x="251.86666666666667" y="171.9733333333333" type="line" smooth="yes"/>
      <point x="251.86666666666667" y="125.19999999999999"/>
      <point x="229.74331143508928" y="101.1370017246726"/>
      <point x="188.9333333333333" y="91.84000000000002" type="curve" smooth="yes"/>
      <point x="131.04" y="80.81333333333333" type="line" smooth="yes"/>
      <point x="104.24" y="73.22666666666665"/>
      <point x="89.68" y="60.17333333333331"/>
      <point x="89.68" y="38.10666666666667" type="curve" smooth="yes"/>
      <point x="89.68" y="13.453333333333331"/>
      <point x="105.82666666666668" y="0.0"/>
      <point x="136.89333333333332" y="0.0" type="curve" smooth="yes"/>
      <point x="509.62666666666667" y="0.0" type="line" smooth="yes"/>
      <point x="540.96" y="0.0"/>
      <point x="557.2133333333334" y="15.053333333333333"/>
      <point x="557.2133333333334" y="38.10666666666667" type="curve" smooth="yes"/>
      <point x="557.2133333333334" y="60.22666666666665"/>
      <point x="542.3866666666667" y="72.53333333333332"/>
      <point x="515.2133333333333" y="80.70666666666665" type="curve" smooth="yes"/>
      <point x="459.08" y="91.03999999999999" type="line" smooth="yes"/>
      <point x="418.34666666666664" y="100.78666666666666"/>
      <point x="397.1066666666666" y="124.82666666666665"/>
    </contour>
  </outline>
</glyph>
<glyph name="L" format="2">
  <advance width="1125.2"/>
  <unicode hex="004C"/>
  <anchor x="911.9866666666667" y="1457.0133333333333" name="right"/>
  <anchor x="449.2266666666667" y="1477.4533333333334" name="center"/>
  <outline>
    <contour>
      <point x="517.5600000000001" y="1319.1866666666665" type="line" smooth="yes"/>
      <point x="545.1066666666667" y="1327.1466666666665"/>
      <point x="559.6666666666666" y="1339.8266666666666"/>
      <point x="559.6666666666666" y="1361.8933333333332" type="curve" smooth="yes"/>
      <point x="559.6666666666666" y="1386.5466666666666"/>
      <point x="543.52" y="1400.0"/>
      <point x="512.4533333333334" y="1400.0" type="curve" smooth="yes"/>
      <point x="136.89333333333332" y="1400.0" type="line" smooth="yes"/>
      <point x="105.82666666666668" y="1400.0"/>
      <point x="89.68" y="1386.5466666666666"/>
      <point x="89.68" y="1361.8933333333332" type="curve" smooth="yes"/>
      <point x="89.68" y="1339.8266666666666"/>
      <point x="104.24" y="1326.7733333333333"/>
      <point x="131.04" y="1319.1866666666665" type="curve" smooth="yes"/>
      <point x="188.9333333333333" y="1308.16" type="line" smooth="yes"/>
      <point x="229.73076343755542" y="1298.8644277940339"/>
      <point x="251.86666666666667" y="1276.2933333333335"/>
      <point x="251.86666666666667" y="1231.7600000000002" type="curve" smooth="yes"/>
      <point x="251.86666666666667" y="168.23999999999998" type="line" smooth="yes"/>
      <point x="251.86666666666667" y="123.70666666666666"/>
      <point x="229.66490940826833" y="101.12806984819933"/>
      <point x="188.9333333333333" y="91.84000000000002" type="curve" smooth="yes"/>
      <point x="131.04" y="80.81333333333333" type="line" smooth="yes"/>
      <point x="104.24" y="73.22666666666665"/>
      <point x="89.68" y="60.17333333333331"/>
      <point x="89.68" y="38.10666666666667" type="curve" smooth="yes"/>
      <point x="89.68" y="13.453333333333331"/>
      <point x="105.82666666666668" y="0.0"/>
      <point x="136.89333333333332" y="0.0" type="curve" smooth="yes"/>
      <point x="850.88" y="0.0" type="line" smooth="yes"/>
      <point x="889.8666666666667" y="0.0"/>
      <point x="916.0533333333333" y="-35.46666666666667"/>
      <point x="950.7199999999999" y="-35.46666666666667" type="curve" smooth="yes"/>
      <point x="979.5466666666666" y="-35.46666666666667"/>
      <point x="995.4" y="-19.400000000000002"/>
      <point x="1004.0266666666668" y="15.706666666666658" type="curve" smooth="yes"/>
      <point x="1081.253333333333" y="337.93333333333334" type="line" smooth="yes"/>
      <point x="1089.0666666666666" y="369.90666666666664"/>
      <point x="1079.3999999999999" y="389.8"/>
      <point x="1055.3999999999999" y="394.37333333333333" type="curve" smooth="yes"/>
      <point x="1034.32" y="398.1066666666667"/>
      <point x="1017.7333333333333" y="388.62666666666667"/>
      <point x="1005.6799999999998" y="358.72" type="curve" smooth="yes"/>
      <point x="960.52" y="238.64" type="line" smooth="yes"/>
      <point x="914.6533333333333" y="118.05333333333333"/>
      <point x="863.0533333333333" y="82.80000000000001"/>
      <point x="774.8666666666667" y="82.80000000000001" type="curve" smooth="yes"/>
      <point x="495.0" y="82.80000000000001" type="line" smooth="yes"/>
      <point x="426.8933333333333" y="82.80000000000001"/>
      <point x="397.1066666666666" y="110.30666666666664"/>
      <point x="397.1066666666666" y="166.2133333333333" type="curve" smooth="yes"/>
      <point x="397.1066666666666" y="1231.7600000000002" type="line" smooth="yes"/>
      <point x="397.1066666666666" y="1276.2933333333335"/>
      <point x="419.6266666666666" y="1298.7333333333333"/>
      <point x="460.0399999999999" y="1308.16" type="curve" smooth="yes"/>
    </contour>
  </outline>
</glyph>
<glyph name="M" format="2">
  <advance width="1668.8533333333332"/>
  <unicode hex="004D"/>
  <anchor x="819.8133333333334" y="1482.7866666666669" name="center"/>
  <outline>
    <contour>
      <point x="868.04" y="251.01333333333332" type="line"/>
      <point x="432.1466666666667" y="1342.9866666666667" type="line" smooth="yes"/>
      <point x="416.28" y="1384.7199999999998"/>
      <point x="396.02666666666664" y="1400.0"/>
      <point x="353.6533333333333" y="1400.0" type="curve" smooth="yes"/>
      <point x="181.18666666666667" y="1400.0" type="line" smooth="yes"/>
      <point x="150.04000000000002" y="1400.0"/>
      <point x="133.97333333333336" y="1386.5600000000002"/>
      <point x="133.97333333333336" y="1361.8933333333332" type="curve" smooth="yes"/>
      <point x="133.97333333333336" y="1339.4"/>
      <point x="148.50666666666666" y="1327.2933333333333"/>
      <point x="175.70666666666665" y="1319.1866666666665" type="curve" smooth="yes"/>
      <point x="237.24" y="1307.04" type="line" smooth="yes"/>
      <point x="278.36" y="1296.88"/>
      <point x="295.96" y="1268.8266666666666"/>
      <point x="292.79999999999995" y="1226.0533333333333" type="curve" smooth="yes"/>
      <point x="207.50666666666666" y="176.61333333333332" type="line" smooth="yes"/>
      <point x="203.02666666666667" y="124.93333333333332"/>
      <point x="187.06132101159542" y="101.21599845978278"/>
      <point x="144.9466666666667" y="91.84000000000002" type="curve" smooth="yes"/>
      <point x="88.58666666666666" y="81.44000000000001" type="line" smooth="yes"/>
      <point x="60.74666666666666" y="72.90666666666667"/>
      <point x="45.04" y="61.52"/>
      <point x="45.04" y="38.10666666666667" type="curve" smooth="yes"/>
      <point x="45.04" y="13.640000000000004"/>
      <point x="60.81333333333334" y="0.0"/>
      <point x="92.25333333333333" y="0.0" type="curve" smooth="yes"/>
      <point x="402.41333333333336" y="0.0" type="line" smooth="yes"/>
      <point x="433.85333333333335" y="0.0"/>
      <point x="449.62666666666667" y="14.040000000000003"/>
      <point x="449.62666666666667" y="38.90666666666667" type="curve" smooth="yes"/>
      <point x="449.62666666666667" y="60.146666666666654"/>
      <point x="435.18666666666667" y="71.45333333333332"/>
      <point x="411.62666666666667" y="78.30666666666666" type="curve" smooth="yes"/>
      <point x="354.9466666666666" y="90.61333333333333" type="line" smooth="yes"/>
      <point x="306.14666666666665" y="103.32"/>
      <point x="288.4533333333333" y="125.18666666666668"/>
      <point x="292.94666666666666" y="177.26666666666668" type="curve" smooth="yes"/>
      <point x="378.28" y="1238.6266666666668" type="line"/>
      <point x="329.24" y="1218.226666666667" type="line"/>
      <point x="753.2533333333333" y="159.86666666666665" type="line" smooth="yes"/>
      <point x="772.8135998901528" y="109.57946236257217"/>
      <point x="788.02" y="99.67999999999999"/>
      <point x="812.1733333333334" y="99.67999999999999" type="curve" smooth="yes"/>
      <point x="834.4" y="99.67999999999999"/>
      <point x="849.2984333645232" y="110.44620232380291"/>
      <point x="867.1466666666666" y="156.37333333333333" type="curve" smooth="yes"/>
      <point x="1287.9333333333332" y="1205.1333333333332" type="line"/>
      <point x="1243.12" y="1203.1333333333332" type="line"/>
      <point x="1325.5866666666664" y="170.2133333333333" type="line" smooth="yes"/>
      <point x="1329.1322781212073" y="123.64364812930792"/>
      <point x="1304.4604020646148" y="101.19996189893584"/>
      <point x="1261.5333333333333" y="91.84000000000002" type="curve" smooth="yes"/>
      <point x="1203.2666666666669" y="80.81333333333333" type="line" smooth="yes"/>
      <point x="1176.2666666666667" y="73.02666666666666"/>
      <point x="1162.0" y="60.146666666666654"/>
      <point x="1162.0" y="38.10666666666667" type="curve" smooth="yes"/>
      <point x="1162.0" y="13.640000000000004"/>
      <point x="1177.7733333333333" y="0.0"/>
      <point x="1209.2133333333334" y="0.0" type="curve" smooth="yes"/>
      <point x="1583.2666666666667" y="0.0" type="line" smooth="yes"/>
      <point x="1614.5066666666667" y="0.0"/>
      <point x="1630.48" y="14.640000000000004"/>
      <point x="1630.48" y="39.306666666666665" type="curve" smooth="yes"/>
      <point x="1630.48" y="61.573333333333316"/>
      <point x="1615.24" y="74.22666666666665"/>
      <point x="1590.1466666666665" y="80.81333333333333" type="curve" smooth="yes"/>
      <point x="1531.9733333333334" y="91.84000000000002" type="line" smooth="yes"/>
      <point x="1491.9387001183882" y="100.72222957001468"/>
      <point x="1473.6000000000001" y="120.13333333333331"/>
      <point x="1469.5466666666669" y="171.0133333333333" type="curve" smooth="yes"/>
      <point x="1392.1866666666665" y="1185.56" type="line" smooth="yes"/>
      <point x="1385.809117128805" y="1270.0713276119072"/>
      <point x="1402.0266666666666" y="1295.6533333333332"/>
      <point x="1457.9866666666667" y="1308.16" type="curve" smooth="yes"/>
      <point x="1508.4133333333334" y="1319.1866666666665" type="line" smooth="yes"/>
      <point x="1535.1333333333332" y="1327.0133333333333"/>
      <point x="1550.2266666666667" y="1339.5866666666666"/>
      <point x="1550.2266666666667" y="1361.8933333333332" type="curve" smooth="yes"/>
      <point x="1550.2266666666667" y="1386.3600000000001"/>
      <point x="1534.08" y="1400.0"/>
      <point x="1502.64" y="1400.0" type="curve" smooth="yes"/>
      <point x="1340.92" y="1400.0" type="line" smooth="yes"/>
      <point x="1291.5866666666668" y="1400.0"/>
      <point x="1268.4533333333334" y="1383.0666666666666"/>
      <point x="1249.0533333333333" y="1331.3066666666668" type="curve" smooth="yes"/>
      <point x="806.9866666666667" y="226.9466666666667" type="line"/>
    </contour>
  </outline>
</glyph>
<glyph name="N" format="2">
  <advance width="1484.3733333333334"/>
  <unicode hex="004E"/>
  <anchor x="731.6266666666667" y="1528.8933333333334" name="center"/>
  <outline>
    <contour>
      <point x="507.7200000000001" y="38.10666666666667" type="curve" smooth="yes"/>
      <point x="507.7200000000001" y="60.37333333333331"/>
      <point x="492.78666666666663" y="72.27999999999997"/>
      <point x="464.08" y="81.44000000000001" type="curve" smooth="yes"/>
      <point x="407.81333333333333" y="91.84000000000002" type="line" smooth="yes"/>
      <point x="365.1066666666667" y="101.90666666666668"/>
      <point x="342.76" y="123.55999999999997"/>
      <point x="342.76" y="169.74666666666667" type="curve" smooth="yes"/>
      <point x="342.76" y="1173.16" type="line"/>
      <point x="295.7733333333333" y="1136.2133333333334" type="line"/>
      <point x="1079.3466666666666" y="122.38666666666666" type="line" smooth="yes"/>
      <point x="1111.0933333333335" y="80.76"/>
      <point x="1117.3333333333333" y="64.4"/>
      <point x="1117.3333333333333" y="31.81333333333333" type="curve" smooth="yes"/>
      <point x="1117.3333333333333" y="11.133333333333335"/>
      <point x="1128.8000000000002" y="0.0"/>
      <point x="1151.5066666666667" y="0.0" type="curve" smooth="yes"/>
      <point x="1280.4666666666667" y="0.0" type="line" smooth="yes"/>
      <point x="1306.9733333333334" y="0.0"/>
      <point x="1319.1466666666668" y="13.840000000000003"/>
      <point x="1319.1466666666668" y="31.50666666666667" type="curve" smooth="yes"/>
      <point x="1319.1466666666668" y="44.00000000000001"/>
      <point x="1311.2133333333331" y="57.10666666666667"/>
      <point x="1297.4666666666665" y="77.24000000000002" type="curve" smooth="yes"/>
      <point x="1253.48" y="135.23999999999998" type="line" smooth="yes"/>
      <point x="1239.449445390346" y="155.8453074228134"/>
      <point x="1231.44" y="176.91999999999996"/>
      <point x="1231.44" y="206.2133333333333" type="curve" smooth="yes"/>
      <point x="1231.44" y="1230.2533333333333" type="line" smooth="yes"/>
      <point x="1231.44" y="1276.44"/>
      <point x="1252.8" y="1298.0"/>
      <point x="1294.3733333333334" y="1308.16" type="curve" smooth="yes"/>
      <point x="1350.36" y="1318.5600000000002" type="line" smooth="yes"/>
      <point x="1379.4399999999998" y="1327.7199999999998"/>
      <point x="1393.9066666666665" y="1339.6266666666668"/>
      <point x="1393.9066666666665" y="1361.8933333333332" type="curve" smooth="yes"/>
      <point x="1393.9066666666665" y="1386.3600000000001"/>
      <point x="1378.1333333333334" y="1400.0"/>
      <point x="1346.6933333333334" y="1400.0" type="curve" smooth="yes"/>
      <point x="1027.0666666666668" y="1400.0" type="line" smooth="yes"/>
      <point x="995.72" y="1400.0"/>
      <point x="979.8533333333332" y="1386.3600000000001"/>
      <point x="979.8533333333332" y="1361.8933333333332" type="curve" smooth="yes"/>
      <point x="979.8533333333332" y="1339.6266666666668"/>
      <point x="994.8799999999999" y="1327.8133333333333"/>
      <point x="1023.4933333333333" y="1318.5600000000002" type="curve" smooth="yes"/>
      <point x="1079.7600000000002" y="1308.16" type="line" smooth="yes"/>
      <point x="1122.7066666666667" y="1298.12"/>
      <point x="1144.8133333333333" y="1276.1466666666668"/>
      <point x="1144.8133333333333" y="1230.2533333333333" type="curve" smooth="yes"/>
      <point x="1144.8133333333333" y="170.70666666666665" type="line"/>
      <point x="1179.5866666666668" y="229.9733333333333" type="line"/>
      <point x="300.1866666666666" y="1365.7333333333333" type="line" smooth="yes"/>
      <point x="279.4266666666666" y="1392.9866666666667"/>
      <point x="261.3333333333333" y="1400.0"/>
      <point x="231.39999999999998" y="1400.0" type="curve" smooth="yes"/>
      <point x="140.64000000000001" y="1400.0" type="line" smooth="yes"/>
      <point x="117.22666666666669" y="1400.0"/>
      <point x="104.78666666666666" y="1389.0400000000002"/>
      <point x="104.78666666666666" y="1371.9333333333332" type="curve" smooth="yes"/>
      <point x="104.78666666666666" y="1356.9733333333334"/>
      <point x="113.09333333333333" y="1345.2266666666667"/>
      <point x="129.73333333333335" y="1326.56" type="curve" smooth="yes"/>
      <point x="221.14666666666668" y="1215.9866666666667" type="line" smooth="yes"/>
      <point x="243.74666666666667" y="1189.2666666666667"/>
      <point x="256.1333333333333" y="1164.9733333333334"/>
      <point x="256.1333333333333" y="1117.28" type="curve" smooth="yes"/>
      <point x="256.1333333333333" y="169.74666666666667" type="line" smooth="yes"/>
      <point x="256.1333333333333" y="123.75999999999996"/>
      <point x="234.08" y="101.50666666666667"/>
      <point x="193.2" y="91.84000000000002" type="curve" smooth="yes"/>
      <point x="136.83999999999997" y="81.44000000000001" type="line" smooth="yes"/>
      <point x="108.13333333333333" y="72.27999999999997"/>
      <point x="93.66666666666667" y="60.37333333333331"/>
      <point x="93.66666666666667" y="38.10666666666667" type="curve" smooth="yes"/>
      <point x="93.66666666666667" y="13.640000000000004"/>
      <point x="109.44" y="0.0"/>
      <point x="140.88" y="0.0" type="curve" smooth="yes"/>
      <point x="460.50666666666666" y="0.0" type="line" smooth="yes"/>
      <point x="491.47999999999996" y="0.0"/>
      <point x="507.7200000000001" y="13.640000000000004"/>
    </contour>
  </outline>
</glyph>
<glyph name="O" format="2">
  <advance width="1502.72"/>
  <unicode hex="004F"/>
  <outline>
    <contour>
      <point x="746.3733333333333" y="1424.8000000000002" type="curve" smooth="yes"/>
      <point x="353.2266666666667" y="1424.8000000000002"/>
      <point x="80.96000000000001" y="1122.424643678161"/>
      <point x="80.96000000000001" y="698.6133333333335" type="curve" smooth="yes"/>
      <point x="80.96000000000001" y="274.29333333333335"/>
      <point x="358.3171764705882" y="-29.6"/>
      <point x="749.48" y="-29.6" type="curve" smooth="yes"/>
      <point x="1145.6418485742379" y="-29.6"/>
      <point x="1419.8933333333334" y="269.3252049910874"/>
      <point x="1419.8933333333334" y="698.1066666666667" type="curve" smooth="yes"/>
      <point x="1419.8933333333334" y="1120.0135361917935"/>
      <point x="1143.2" y="1424.8000000000002"/>
    </contour>
    <contour>
      <point x="1268.9733333333334" y="632.4" type="curve" smooth="yes"/>
      <point x="1268.9733333333334" y="291.0"/>
      <point x="1069.0035680751173" y="59.4133333333333"/>
      <point x="781.1999999999999" y="59.4133333333333" type="curve" smooth="yes"/>
      <point x="460.11863247863243" y="59.4133333333333"/>
      <point x="233.26666666666662" y="363.09333333333336"/>
      <point x="233.26666666666662" y="760.2933333333333" type="curve" smooth="yes"/>
      <point x="233.26666666666662" y="1098.8133333333333"/>
      <point x="430.71999999999997" y="1333.5466666666666"/>
      <point x="719.12" y="1333.5466666666666" type="curve" smooth="yes"/>
      <point x="1041.48" y="1333.5466666666666"/>
      <point x="1268.9733333333334" y="1027.2533333333333"/>
    </contour>
  </outline>
</glyph>
<glyph name="P" format="2">
  <advance width="1183.6266666666663"/>
  <unicode hex="0050"/>
  <outline>
    <contour>
      <point x="1139.9199999999998" y="910.9333333333333" type="curve" smooth="yes"/>
      <point x="1139.9199999999998" y="1184.8933333333334"/>
      <point x="915.7333333333332" y="1400.0"/>
      <point x="532.1466666666666" y="1400.0" type="curve" smooth="yes"/>
      <point x="136.89333333333332" y="1400.0" type="line" smooth="yes"/>
      <point x="105.82666666666668" y="1400.0"/>
      <point x="89.68" y="1386.5466666666666"/>
      <point x="89.68" y="1361.8933333333332" type="curve" smooth="yes"/>
      <point x="89.68" y="1339.8266666666666"/>
      <point x="104.24" y="1326.7733333333333"/>
      <point x="131.04" y="1319.1866666666665" type="curve" smooth="yes"/>
      <point x="188.9333333333333" y="1308.16" type="line" smooth="yes"/>
      <point x="229.73076343755545" y="1298.8644277940339"/>
      <point x="251.86666666666667" y="1276.3951515151514"/>
      <point x="251.86666666666667" y="1231.7600000000002" type="curve" smooth="yes"/>
      <point x="251.86666666666667" y="168.23999999999998" type="line" smooth="yes"/>
      <point x="251.86666666666667" y="123.70666666666666"/>
      <point x="229.73076343755545" y="101.13557220596624"/>
      <point x="188.9333333333333" y="91.84000000000002" type="curve" smooth="yes"/>
      <point x="131.04" y="80.81333333333333" type="line" smooth="yes"/>
      <point x="104.24" y="73.22666666666665"/>
      <point x="89.68" y="60.17333333333331"/>
      <point x="89.68" y="38.10666666666667" type="curve" smooth="yes"/>
      <point x="89.68" y="13.453333333333331"/>
      <point x="105.82666666666668" y="0.0"/>
      <point x="136.89333333333332" y="0.0" type="curve" smooth="yes"/>
      <point x="541.7066666666667" y="0.0" type="line" smooth="yes"/>
      <point x="572.7733333333333" y="0.0"/>
      <point x="588.92" y="13.453333333333331"/>
      <point x="588.92" y="38.10666666666667" type="curve" smooth="yes"/>
      <point x="588.92" y="61.080000000000005"/>
      <point x="574.0933333333334" y="73.74666666666666"/>
      <point x="546.8133333333333" y="79.39999999999998" type="curve" smooth="yes"/>
      <point x="460.09333333333336" y="91.84000000000002" type="line" smooth="yes"/>
      <point x="419.6293765905277" y="98.23840134596809"/>
      <point x="397.1066666666666" y="123.24000000000001"/>
      <point x="397.1066666666666" y="168.23999999999998" type="curve" smooth="yes"/>
      <point x="397.1066666666666" y="1318.0533333333333" type="line"/>
      <point x="528.6133333333333" y="1318.0533333333333" type="line" smooth="yes"/>
      <point x="820.24" y="1318.0533333333333"/>
      <point x="990.3599999999999" y="1147.529812158786"/>
      <point x="990.3599999999999" y="913.9200000000001" type="curve" smooth="yes"/>
      <point x="990.3599999999999" y="687.3476923076923"/>
      <point x="842.7743209876543" y="563.2666666666667"/>
      <point x="625.2666666666665" y="563.2666666666667" type="curve" smooth="yes"/>
      <point x="550.7733333333333" y="563.2666666666667"/>
      <point x="425.58666666666664" y="576.2666666666667"/>
      <point x="335.1466666666667" y="634.6" type="curve"/>
      <point x="320.4133333333333" y="556.3066666666666" type="line"/>
      <point x="409.1466666666667" y="504.4"/>
      <point x="540.2533333333333" y="480.4666666666667"/>
      <point x="652.9866666666667" y="480.4666666666667" type="curve" smooth="yes"/>
      <point x="940.0396412556055" y="480.4666666666667"/>
      <point x="1139.9199999999998" y="647.0100145560407"/>
    </contour>
  </outline>
</glyph>
<glyph name="Q" format="2">
  <advance width="1500.48"/>
  <unicode hex="0051"/>
  <outline>
    <contour>
      <point x="746.3733333333333" y="1424.8000000000002" type="curve" smooth="yes"/>
      <point x="352.85333333333335" y="1424.8000000000002"/>
      <point x="80.21333333333334" y="1122.4533333333334"/>
      <point x="80.21333333333334" y="698.6133333333335" type="curve" smooth="yes"/>
      <point x="80.21333333333334" y="274.29333333333335"/>
      <point x="357.81333333333333" y="-29.6"/>
      <point x="749.48" y="-29.6" type="curve" smooth="yes"/>
      <point x="1145.4933333333333" y="-29.6"/>
      <point x="1419.8933333333334" y="269.36"/>
      <point x="1419.8933333333334" y="698.1066666666667" type="curve" smooth="yes"/>
      <point x="1419.8933333333334" y="1120.0266666666669"/>
      <point x="1143.2" y="1424.8000000000002"/>
    </contour>
    <contour>
      <point x="1268.9733333333334" y="632.4" type="curve" smooth="yes"/>
      <point x="1268.9733333333334" y="291.0"/>
      <point x="1068.8533333333332" y="59.4133333333333"/>
      <point x="781.1999999999999" y="59.4133333333333" type="curve" smooth="yes"/>
      <point x="459.9599999999999" y="59.4133333333333"/>
      <point x="233.26666666666662" y="363.09333333333336"/>
      <point x="233.26666666666662" y="760.6666666666666" type="curve" smooth="yes"/>
      <point x="233.26666666666662" y="1098.8133333333333"/>
      <point x="430.71999999999997" y="1333.5466666666666"/>
      <point x="719.12" y="1333.5466666666666" type="curve" smooth="yes"/>
      <point x="1041.48" y="1333.5466666666666"/>
      <point x="1268.9733333333334" y="1027.2533333333333"/>
    </contour>
    <contour>
      <point x="788.16" y="347.0933333333333" type="curve" smooth="yes"/>
      <point x="916.8551543614271" y="-109.46439602102976"/>
      <point x="1098.444381558145" y="-259.46666666666664"/>
      <point x="1317.0533333333333" y="-259.46666666666664" type="curve" smooth="yes"/>
      <point x="1369.3532965009208" y="-259.46666666666664"/>
      <point x="1389.8547939272323" y="-244.23839800547273"/>
      <point x="1409.7866666666669" y="-212.42666666666665" type="curve" smooth="yes"/>
      <point x="1436.1733333333334" y="-171.46666666666667" type="line" smooth="yes"/>
      <point x="1448.64" y="-152.25333333333333"/>
      <point x="1449.4933333333333" y="-141.04"/>
      <point x="1449.4933333333333" y="-128.52" type="curve" smooth="yes"/>
      <point x="1449.4933333333333" y="-112.97333333333334"/>
      <point x="1437.9866666666667" y="-103.85333333333334"/>
      <point x="1423.08" y="-103.85333333333334" type="curve" smooth="yes"/>
      <point x="1397.5066666666667" y="-103.85333333333334"/>
      <point x="1377.5733333333335" y="-132.76"/>
      <point x="1310.2266666666665" y="-132.76" type="curve" smooth="yes"/>
      <point x="1128.5683168316832" y="-132.76"/>
      <point x="985.4314166397149" y="-10.35285461011437"/>
      <point x="864.9999999999999" y="358.1333333333333" type="curve" smooth="yes"/>
      <point x="852.3333333333334" y="399.22666666666663"/>
      <point x="837.3199999999999" y="414.06666666666666"/>
      <point x="815.5066666666667" y="412.36" type="curve" smooth="yes"/>
      <point x="789.6618181818181" y="410.64000000000004"/>
      <point x="778.0750933928852" y="384.6452397543493"/>
    </contour>
  </outline>
</glyph>
<glyph name="R" format="2">
  <advance width="1280.8000000000002"/>
  <unicode hex="0052"/>
  <anchor x="644.24" y="1476.0" name="center"/>
  <outline>
    <contour>
      <point x="1144.2266666666667" y="931.2" type="curve" smooth="yes"/>
      <point x="1144.2266666666667" y="1193.767498349835"/>
      <point x="920.4533333333331" y="1400.0"/>
      <point x="536.9866666666666" y="1400.0" type="curve" smooth="yes"/>
      <point x="136.89333333333332" y="1400.0" type="line" smooth="yes"/>
      <point x="105.82666666666668" y="1400.0"/>
      <point x="89.68" y="1386.5466666666666"/>
      <point x="89.68" y="1361.8933333333332" type="curve" smooth="yes"/>
      <point x="89.68" y="1339.8266666666666"/>
      <point x="104.24" y="1327.1466666666665"/>
      <point x="131.04" y="1319.1866666666665" type="curve" smooth="yes"/>
      <point x="185.2" y="1308.16" type="line" smooth="yes"/>
      <point x="228.2266666666667" y="1298.3600000000001"/>
      <point x="251.86666666666667" y="1276.2933333333335"/>
      <point x="251.86666666666667" y="1231.7600000000002" type="curve" smooth="yes"/>
      <point x="251.86666666666667" y="168.23999999999998" type="line" smooth="yes"/>
      <point x="251.86666666666667" y="123.70666666666666"/>
      <point x="228.2266666666667" y="101.63999999999999"/>
      <point x="185.2" y="91.84000000000002" type="curve" smooth="yes"/>
      <point x="131.04" y="80.81333333333333" type="line" smooth="yes"/>
      <point x="104.24" y="72.85333333333331"/>
      <point x="89.68" y="60.17333333333331"/>
      <point x="89.68" y="38.10666666666667" type="curve" smooth="yes"/>
      <point x="89.68" y="13.453333333333331"/>
      <point x="105.82666666666668" y="0.0"/>
      <point x="136.89333333333332" y="0.0" type="curve" smooth="yes"/>
      <point x="522.4266666666666" y="0.0" type="line" smooth="yes"/>
      <point x="552.8000000000001" y="0.0"/>
      <point x="569.64" y="12.92"/>
      <point x="569.64" y="38.10666666666667" type="curve" smooth="yes"/>
      <point x="569.64" y="59.79999999999999"/>
      <point x="555.7733333333332" y="72.64"/>
      <point x="529.08" y="80.17333333333332" type="curve" smooth="yes"/>
      <point x="460.0399999999999" y="91.35999999999999" type="line" smooth="yes"/>
      <point x="419.65057456999955" y="99.75540240583365"/>
      <point x="397.1066666666666" y="123.56403100775192"/>
      <point x="397.1066666666666" y="168.23999999999998" type="curve" smooth="yes"/>
      <point x="397.1066666666666" y="1318.5866666666668" type="line"/>
      <point x="532.1466666666666" y="1318.5866666666668" type="line" smooth="yes"/>
      <point x="822.6666666666666" y="1318.5866666666668"/>
      <point x="992.08" y="1154.822888776743"/>
      <point x="992.08" y="932.0" type="curve" smooth="yes"/>
      <point x="992.08" y="726.8441867339745"/>
      <point x="856.56" y="601.64"/>
      <point x="627.8666666666666" y="601.64" type="curve" smooth="yes"/>
      <point x="557.9733333333334" y="601.64"/>
      <point x="431.73333333333335" y="610.3466666666666"/>
      <point x="344.82666666666665" y="666.6800000000001" type="curve"/>
      <point x="334.4266666666667" y="590.0400000000001" type="line"/>
      <point x="415.29333333333324" y="542.9733333333334"/>
      <point x="541.0266666666666" y="520.0933333333334"/>
      <point x="646.1866666666666" y="520.0933333333334" type="curve" smooth="yes"/>
      <point x="712.2" y="520.0933333333334"/>
      <point x="757.2027144524969" y="533.980609294897"/>
      <point x="815.2533333333333" y="545.1199999999999" type="curve" smooth="yes"/>
      <point x="1013.3689623455319" y="587.4042043280147"/>
      <point x="1144.2266666666667" y="734.1755492957747"/>
    </contour>
    <contour>
      <point x="698.2666666666667" y="563.8" type="line"/>
      <point x="957.84" y="136.74666666666664" type="line" smooth="yes"/>
      <point x="977.44" y="103.64000000000001"/>
      <point x="972.8933333333333" y="86.77333333333333"/>
      <point x="945.4533333333334" y="82.10666666666665" type="curve" smooth="yes"/>
      <point x="893.8666666666668" y="74.75999999999998" type="line" smooth="yes"/>
      <point x="870.674885166472" y="68.74424581228094"/>
      <point x="857.3199999999999" y="56.89333333333333"/>
      <point x="857.3199999999999" y="38.10666666666667" type="curve" smooth="yes"/>
      <point x="857.3199999999999" y="12.93333333333333"/>
      <point x="873.3866666666667" y="0.0"/>
      <point x="903.9999999999999" y="0.0" type="curve" smooth="yes"/>
      <point x="1237.5199999999998" y="0.0" type="line" smooth="yes"/>
      <point x="1268.8666666666668" y="0.0"/>
      <point x="1284.7333333333333" y="13.640000000000004"/>
      <point x="1284.7333333333333" y="38.10666666666667" type="curve" smooth="yes"/>
      <point x="1284.7333333333333" y="63.039999999999985"/>
      <point x="1269.7066666666667" y="73.36"/>
      <point x="1212.9066666666665" y="85.72" type="curve" smooth="yes"/>
      <point x="1171.0918287793631" y="95.58272781182801"/>
      <point x="1143.8133333333333" y="108.01333333333332"/>
      <point x="1121.1733333333334" y="144.22666666666666" type="curve" smooth="yes"/>
      <point x="842.12" y="585.0400000000001" type="line"/>
    </contour>
  </outline>
</glyph>
<glyph name="S" format="2">
  <advance width="1070.4133333333332"/>
  <unicode hex="0053"/>
  <anchor x="555.1466666666666" y="1565.9333333333332" name="center"/>
  <outline>
    <contour>
      <point x="584.3733333333333" y="-31.46666666666667" type="curve" smooth="yes"/>
      <point x="828.7466666666666" y="-31.46666666666667"/>
      <point x="971.6133333333335" y="117.78666666666665"/>
      <point x="972.84" y="310.1066666666666" type="curve" smooth="yes"/>
      <point x="974.0666666666668" y="504.6266666666667"/>
      <point x="873.9613065871972" y="626.1499162245345"/>
      <point x="558.3866666666667" y="747.8133333333333" type="curve" smooth="yes"/>
      <point x="302.36533604143625" y="848.0501769800586"/>
      <point x="230.41333333333336" y="952.7733333333334"/>
      <point x="230.41333333333336" y="1091.24" type="curve" smooth="yes"/>
      <point x="230.41333333333336" y="1235.3866666666665"/>
      <point x="337.76000000000005" y="1340.3466666666668"/>
      <point x="494.32" y="1340.3466666666668" type="curve" smooth="yes"/>
      <point x="665.9562289562289" y="1340.3466666666668"/>
      <point x="807.7407854569917" y="1252.6252209896527"/>
      <point x="901.3199999999999" y="1050.5333333333335" type="curve" smooth="yes"/>
      <point x="913.6666666666667" y="1024.4533333333334"/>
      <point x="934.6666666666667" y="1014.5866666666667"/>
      <point x="956.5066666666667" y="1021.64" type="curve" smooth="yes"/>
      <point x="980.2933333333333" y="1029.4266666666667"/>
      <point x="988.6266666666667" y="1050.1333333333334"/>
      <point x="979.5066666666667" y="1080.1066666666666" type="curve" smooth="yes"/>
      <point x="891.6" y="1371.96" type="line" smooth="yes"/>
      <point x="880.2939964305572" y="1409.3450341996856"/>
      <point x="869.6933333333334" y="1422.8"/>
      <point x="844.8533333333334" y="1422.8" type="curve" smooth="yes"/>
      <point x="800.6933333333334" y="1422.8"/>
      <point x="814.4133333333334" y="1345.0400000000002"/>
      <point x="783.5866666666666" y="1345.0400000000002" type="curve" smooth="yes"/>
      <point x="749.7066666666667" y="1345.0400000000002"/>
      <point x="662.7866666666667" y="1426.6133333333335"/>
      <point x="488.3466666666667" y="1426.24" type="curve" smooth="yes"/>
      <point x="257.6933333333333" y="1425.8666666666666"/>
      <point x="94.93333333333334" y="1274.0133333333333"/>
      <point x="94.93333333333334" y="1058.6" type="curve" smooth="yes"/>
      <point x="94.93333333333334" y="866.7733333333333"/>
      <point x="202.44040143452284" y="722.7217562147147"/>
      <point x="489.57333333333327" y="619.04" type="curve" smooth="yes"/>
      <point x="779.4723875816866" y="510.02544844556763"/>
      <point x="841.6266666666667" y="414.88"/>
      <point x="840.0266666666666" y="283.8666666666666" type="curve" smooth="yes"/>
      <point x="838.4266682556139" y="150.00012791025986"/>
      <point x="737.84" y="53.2"/>
      <point x="580.9466666666667" y="53.2" type="curve" smooth="yes"/>
      <point x="408.9070866141732" y="53.2"/>
      <point x="268.33800996350993" y="144.44568556215052"/>
      <point x="190.57333333333335" y="319.1066666666667" type="curve" smooth="yes"/>
      <point x="175.33333333333331" y="348.8133333333333"/>
      <point x="160.01333333333335" y="358.26666666666665"/>
      <point x="136.86666666666665" y="352.6533333333333" type="curve" smooth="yes"/>
      <point x="114.30666666666667" y="347.4266666666667"/>
      <point x="103.74666666666668" y="327.3066666666667"/>
      <point x="110.28" y="301.0666666666667" type="curve" smooth="yes"/>
      <point x="182.89333333333335" y="19.17333333333333" type="line" smooth="yes"/>
      <point x="189.96" y="-11.680000000000001"/>
      <point x="203.73333333333332" y="-26.53333333333333"/>
      <point x="227.65333333333334" y="-26.53333333333333" type="curve" smooth="yes"/>
      <point x="270.0266666666667" y="-26.53333333333333"/>
      <point x="251.472" y="57.21333333333333"/>
      <point x="281.76" y="57.21333333333333" type="curve" smooth="yes"/>
      <point x="307.41661202185793" y="57.21333333333333"/>
      <point x="402.32" y="-31.46666666666667"/>
    </contour>
  </outline>
</glyph>
<glyph name="T" format="2">
  <advance width="1232.8400000000001"/>
  <unicode hex="0054"/>
  <outline>
    <contour>
      <point x="280.0266666666667" y="1400.0" type="line" smooth="yes"/>
      <point x="236.29333333333332" y="1400.0"/>
      <point x="213.74666666666667" y="1446.4933333333333"/>
      <point x="176.30666666666664" y="1446.4933333333333" type="curve" smooth="yes"/>
      <point x="146.36" y="1446.4933333333333"/>
      <point x="130.98666666666665" y="1430.2533333333333"/>
      <point x="122.34666666666666" y="1395.32" type="curve" smooth="yes"/>
      <point x="54.88" y="1107.2666666666669" type="line" smooth="yes"/>
      <point x="46.946666666666665" y="1074.2933333333333"/>
      <point x="58.81333333333333" y="1054.4533333333334"/>
      <point x="82.52" y="1050.0266666666669" type="curve" smooth="yes"/>
      <point x="105.00000000000001" y="1045.32"/>
      <point x="123.14666666666666" y="1056.8266666666668"/>
      <point x="135.46666666666667" y="1088.2933333333333" type="curve" smooth="yes"/>
      <point x="207.0444899808092" y="1287.5856447654035"/>
      <point x="241.6533333333333" y="1315.7333333333336"/>
      <point x="337.85333333333335" y="1315.7333333333336" type="curve" smooth="yes"/>
      <point x="543.24" y="1315.7333333333336" type="line"/>
      <point x="543.24" y="168.23999999999998" type="line" smooth="yes"/>
      <point x="543.24" y="123.70666666666666"/>
      <point x="521.0933333333334" y="98.8133333333333"/>
      <point x="480.68" y="91.84000000000002" type="curve" smooth="yes"/>
      <point x="391.15999999999997" y="80.81333333333333" type="line" smooth="yes"/>
      <point x="364.35999999999996" y="74.07999999999997"/>
      <point x="349.4266666666667" y="60.17333333333331"/>
      <point x="349.4266666666667" y="38.21333333333334" type="curve" smooth="yes"/>
      <point x="349.4266666666667" y="13.453333333333331"/>
      <point x="365.5733333333333" y="0.0"/>
      <point x="396.64" y="0.0" type="curve" smooth="yes"/>
      <point x="838.44" y="0.0" type="line" smooth="yes"/>
      <point x="869.88" y="0.0"/>
      <point x="885.6533333333334" y="13.240000000000002"/>
      <point x="885.6533333333334" y="38.10666666666667" type="curve" smooth="yes"/>
      <point x="885.6533333333334" y="60.27999999999998"/>
      <point x="871.0933333333332" y="74.07999999999997"/>
      <point x="843.92" y="80.81333333333333" type="curve" smooth="yes"/>
      <point x="754.4" y="91.84000000000002" type="line" smooth="yes"/>
      <point x="712.8666666666666" y="99.18666666666665"/>
      <point x="689.2266666666666" y="123.70666666666666"/>
      <point x="689.2266666666666" y="168.23999999999998" type="curve" smooth="yes"/>
      <point x="689.2266666666666" y="1315.7333333333336" type="line"/>
      <point x="889.0133333333333" y="1315.7333333333336" type="line" smooth="yes"/>
      <point x="986.4266666666667" y="1315.7333333333336"/>
      <point x="1025.886012285082" y="1286.5614462638835"/>
      <point x="1097.466666666667" y="1088.2933333333333" type="curve" smooth="yes"/>
      <point x="1109.7866666666666" y="1056.8266666666668"/>
      <point x="1128.6799999999998" y="1045.32"/>
      <point x="1150.7866666666669" y="1050.0266666666669" type="curve" smooth="yes"/>
      <point x="1174.3999999999999" y="1054.4533333333334"/>
      <point x="1186.2666666666667" y="1074.2933333333333"/>
      <point x="1178.3333333333335" y="1107.2666666666669" type="curve" smooth="yes"/>
      <point x="1110.12" y="1394.5733333333333" type="line" smooth="yes"/>
      <point x="1101.48" y="1429.5066666666667"/>
      <point x="1086.1066666666666" y="1445.7466666666667"/>
      <point x="1056.16" y="1445.7466666666667" type="curve" smooth="yes"/>
      <point x="1020.5866666666667" y="1445.7466666666667"/>
      <point x="996.9066666666666" y="1400.0"/>
      <point x="957.76" y="1400.0" type="curve" smooth="yes"/>
    </contour>
  </outline>
</glyph>
<glyph name="U" format="2">
  <advance width="1394.3199999999997"/>
  <unicode hex="0055"/>
  <anchor x="732.1999999999999" y="1459.9066666666665" name="center"/>
  <outline>
    <contour>
      <point x="1099.5600000000002" y="574.04" type="line" smooth="yes"/>
      <point x="1102.3733333333332" y="524.8"/>
      <point x="1103.986666666667" y="478.4"/>
      <point x="1107.1866666666667" y="394.1333333333333" type="curve" smooth="yes"/>
      <point x="1116.7863007352275" y="186.35337540971878"/>
      <point x="980.6435772357723" y="65.86666666666666"/>
      <point x="736.0" y="65.86666666666666" type="curve" smooth="yes"/>
      <point x="489.2533333333333" y="65.86666666666666"/>
      <point x="338.7996167591411" y="183.68726210841842"/>
      <point x="346.3066666666666" y="401.1733333333333" type="curve" smooth="yes"/>
      <point x="349.87999999999994" y="472.1333333333333"/>
      <point x="351.5066666666666" y="550.1999999999999"/>
      <point x="357.1066666666666" y="651.5333333333333" type="curve" smooth="yes"/>
      <point x="388.76" y="1236.56" type="line" smooth="yes"/>
      <point x="390.96" y="1278.2133333333334"/>
      <point x="408.11999999999995" y="1299.6933333333334"/>
      <point x="450.52" y="1308.16" type="curve" smooth="yes"/>
      <point x="505.9866666666667" y="1318.16" type="line" smooth="yes"/>
      <point x="536.1733333333333" y="1325.0266666666666"/>
      <point x="553.0666666666666" y="1337.3333333333333"/>
      <point x="553.0666666666666" y="1361.4933333333333" type="curve" smooth="yes"/>
      <point x="553.0666666666666" y="1385.7600000000002"/>
      <point x="537.0666666666666" y="1400.0"/>
      <point x="507.25333333333333" y="1400.0" type="curve" smooth="yes"/>
      <point x="117.61333333333334" y="1400.0" type="line" smooth="yes"/>
      <point x="88.17333333333333" y="1400.0"/>
      <point x="71.33333333333334" y="1385.7600000000002"/>
      <point x="71.33333333333334" y="1361.4933333333333" type="curve" smooth="yes"/>
      <point x="71.33333333333334" y="1337.2266666666667"/>
      <point x="88.39999999999999" y="1324.2133333333334"/>
      <point x="118.88000000000001" y="1317.76" type="curve" smooth="yes"/>
      <point x="179.76" y="1308.16" type="line" smooth="yes"/>
      <point x="223.65333333333334" y="1299.9066666666668"/>
      <point x="245.0533333333333" y="1276.2133333333334"/>
      <point x="242.85333333333332" y="1231.3600000000001" type="curve" smooth="yes"/>
      <point x="211.58666666666667" y="646.6" type="line" smooth="yes"/>
      <point x="207.30666666666667" y="573.2666666666668"/>
      <point x="199.46666666666667" y="443.36"/>
      <point x="197.86666666666667" y="380.04" type="curve" smooth="yes"/>
      <point x="190.24" y="129.46666666666667"/>
      <point x="368.26666666666665" y="-30.133333333333333"/>
      <point x="704.1733333333333" y="-30.133333333333333" type="curve" smooth="yes"/>
      <point x="1032.1200000000001" y="-30.133333333333333"/>
      <point x="1209.7466666666667" y="139.0"/>
      <point x="1198.92" y="381.3333333333333" type="curve" smooth="yes"/>
      <point x="1195.72" y="448.53333333333336"/>
      <point x="1192.2933333333333" y="509.23999999999995"/>
      <point x="1189.3866666666668" y="574.4399999999999" type="curve" smooth="yes"/>
      <point x="1159.0266666666664" y="1237.92" type="line" smooth="yes"/>
      <point x="1156.6933333333332" y="1278.3066666666666"/>
      <point x="1178.1333333333334" y="1299.0666666666666"/>
      <point x="1223.8933333333334" y="1308.16" type="curve" smooth="yes"/>
      <point x="1281.04" y="1318.16" type="line" smooth="yes"/>
      <point x="1310.9466666666667" y="1325.2133333333334"/>
      <point x="1328.12" y="1337.4266666666667"/>
      <point x="1328.12" y="1361.4933333333333" type="curve" smooth="yes"/>
      <point x="1328.12" y="1385.7600000000002"/>
      <point x="1311.7466666666667" y="1400.0"/>
      <point x="1282.3066666666668" y="1400.0" type="curve" smooth="yes"/>
      <point x="939.0933333333335" y="1400.0" type="line" smooth="yes"/>
      <point x="910.0266666666668" y="1400.0"/>
      <point x="893.28" y="1385.7600000000002"/>
      <point x="893.28" y="1361.4933333333333" type="curve" smooth="yes"/>
      <point x="893.28" y="1337.4266666666667"/>
      <point x="910.2666666666667" y="1324.4266666666667"/>
      <point x="940.3600000000001" y="1317.96" type="curve" smooth="yes"/>
      <point x="999.0000000000001" y="1308.16" type="line" smooth="yes"/>
      <point x="1039.56" y="1300.6"/>
      <point x="1059.4933333333336" y="1284.52"/>
      <point x="1061.9333333333334" y="1241.4533333333334" type="curve" smooth="yes"/>
    </contour>
  </outline>
</glyph>
<glyph name="V" format="2">
  <advance width="1301.5600000000002"/>
  <unicode hex="0056"/>
  <outline>
    <contour>
      <point x="884.8266666666666" y="1361.8933333333332" type="curve" smooth="yes"/>
      <point x="884.8266666666666" y="1339.8266666666666"/>
      <point x="900.6666666666666" y="1327.0"/>
      <point x="926.4666666666666" y="1321.2933333333333" type="curve" smooth="yes"/>
      <point x="1012.7866666666667" y="1309.9866666666667" type="line" smooth="yes"/>
      <point x="1057.4133333333334" y="1301.8533333333332"/>
      <point x="1067.0933333333332" y="1283.2266666666667"/>
      <point x="1047.8533333333335" y="1227.96" type="curve" smooth="yes"/>
      <point x="647.9333333333333" y="75.90666666666667" type="line"/>
      <point x="697.9333333333333" y="119.07999999999997" type="line"/>
      <point x="309.7866666666666" y="1235.7200000000003" type="line" smooth="yes"/>
      <point x="290.9066666666667" y="1289.1200000000001"/>
      <point x="298.64" y="1302.9866666666667"/>
      <point x="333.41333333333336" y="1309.7866666666666" type="curve" smooth="yes"/>
      <point x="419.3599999999999" y="1321.0933333333335" type="line" smooth="yes"/>
      <point x="446.3333333333333" y="1327.2"/>
      <point x="461.37333333333333" y="1340.0533333333333"/>
      <point x="461.37333333333333" y="1361.8933333333332" type="curve" smooth="yes"/>
      <point x="461.37333333333333" y="1386.3600000000001"/>
      <point x="445.4266666666666" y="1400.0"/>
      <point x="413.7866666666667" y="1400.0" type="curve" smooth="yes"/>
      <point x="63.61333333333333" y="1400.0" type="line" smooth="yes"/>
      <point x="32.266666666666666" y="1400.0"/>
      <point x="16.4" y="1386.3600000000001"/>
      <point x="16.4" y="1361.8933333333332" type="curve" smooth="yes"/>
      <point x="16.4" y="1340.5733333333333"/>
      <point x="30.08" y="1327.9333333333334"/>
      <point x="55.733333333333334" y="1320.5866666666666" type="curve" smooth="yes"/>
      <point x="98.2" y="1311.3066666666666" type="line" smooth="yes"/>
      <point x="124.68957569650948" y="1303.409389907132"/>
      <point x="138.03958086411438" y="1287.8039509664966"/>
      <point x="150.89333333333335" y="1250.7866666666666" type="curve" smooth="yes"/>
      <point x="531.8533333333334" y="161.13333333333333" type="line" smooth="yes"/>
      <point x="542.6620356431878" y="130.03876411872974"/>
      <point x="549.3466666666666" y="109.85185185185185"/>
      <point x="549.3466666666666" y="85.39999999999999" type="curve" smooth="yes"/>
      <point x="549.3466666666666" y="53.37333333333332" type="line" smooth="yes"/>
      <point x="549.3466666666666" y="18.733333333333334"/>
      <point x="563.8933333333334" y="0.0"/>
      <point x="591.32" y="0.0" type="curve" smooth="yes"/>
      <point x="709.1733333333333" y="0.0" type="line" smooth="yes"/>
      <point x="733.88" y="0.0"/>
      <point x="749.0266666666666" y="18.93333333333333"/>
      <point x="749.0266666666666" y="52.66666666666666" type="curve" smooth="yes"/>
      <point x="749.0266666666666" y="84.6" type="line" smooth="yes"/>
      <point x="749.0266666666666" y="108.50564102564101"/>
      <point x="756.1243781703378" y="131.78429322379486"/>
      <point x="767.6266666666668" y="164.68" type="curve" smooth="yes"/>
      <point x="1137.0133333333333" y="1228.9066666666668" type="line" smooth="yes"/>
      <point x="1155.7866666666666" y="1283.24"/>
      <point x="1173.013333333333" y="1303.72"/>
      <point x="1201.9733333333334" y="1311.9066666666665" type="curve" smooth="yes"/>
      <point x="1245.04" y="1321.2933333333333" type="line" smooth="yes"/>
      <point x="1272.0399999999997" y="1329.4533333333331"/>
      <point x="1286.68" y="1340.36"/>
      <point x="1286.68" y="1361.8933333333332" type="curve" smooth="yes"/>
      <point x="1286.68" y="1384.6666666666667"/>
      <point x="1270.9066666666665" y="1400.0"/>
      <point x="1239.0933333333335" y="1400.0" type="curve" smooth="yes"/>
      <point x="932.0400000000001" y="1400.0" type="line" smooth="yes"/>
      <point x="900.5999999999999" y="1400.0"/>
      <point x="884.8266666666666" y="1386.3600000000001"/>
    </contour>
  </outline>
</glyph>
<glyph name="W" format="2">
  <advance width="1934.8133333333333"/>
  <unicode hex="0057"/>
  <anchor x="959.4266666666666" y="1499.2533333333333" name="center"/>
  <outline>
    <contour>
      <point x="948.2133333333333" y="1162.6933333333334" type="line"/>
      <point x="601.72" y="76.77333333333331" type="line"/>
      <point x="653.28" y="118.94666666666664" type="line"/>
      <point x="308.38666666666666" y="1226.3866666666668" type="line" smooth="yes"/>
      <point x="288.44" y="1290.32"/>
      <point x="293.9466666666666" y="1305.16"/>
      <point x="329.11999999999995" y="1311.8933333333334" type="curve" smooth="yes"/>
      <point x="412.9333333333333" y="1321.8933333333334" type="line" smooth="yes"/>
      <point x="438.90666666666664" y="1327.3999999999999"/>
      <point x="453.5466666666667" y="1340.76"/>
      <point x="453.5466666666667" y="1361.8933333333332" type="curve" smooth="yes"/>
      <point x="453.5466666666667" y="1386.3600000000001"/>
      <point x="437.6" y="1400.0"/>
      <point x="406.42666666666656" y="1400.0" type="curve" smooth="yes"/>
      <point x="62.49333333333334" y="1400.0" type="line" smooth="yes"/>
      <point x="31.146666666666665" y="1400.0"/>
      <point x="15.653333333333336" y="1386.3600000000001"/>
      <point x="15.653333333333336" y="1361.8933333333332" type="curve" smooth="yes"/>
      <point x="15.653333333333336" y="1340.3866666666668"/>
      <point x="29.33333333333333" y="1328.4"/>
      <point x="55.08" y="1320.5866666666666" type="curve" smooth="yes"/>
      <point x="97.54666666666667" y="1310.1866666666665" type="line" smooth="yes"/>
      <point x="123.94666666666667" y="1301.76"/>
      <point x="138.5066666666667" y="1287.2533333333333"/>
      <point x="150.14666666666668" y="1250.7866666666666" type="curve" smooth="yes"/>
      <point x="491.64" y="162.86666666666665" type="line" smooth="yes"/>
      <point x="501.6533333333333" y="131.6"/>
      <point x="507.3333333333333" y="109.18666666666665"/>
      <point x="507.3333333333333" y="85.65333333333334" type="curve" smooth="yes"/>
      <point x="507.3333333333333" y="51.50666666666665" type="line" smooth="yes"/>
      <point x="507.3333333333333" y="17.986666666666665"/>
      <point x="521.9066666666666" y="0.0"/>
      <point x="549.3066666666666" y="0.0" type="curve" smooth="yes"/>
      <point x="662.8533333333334" y="0.0" type="line" smooth="yes"/>
      <point x="686.9599999999999" y="0.0"/>
      <point x="702.0" y="17.986666666666665"/>
      <point x="702.0" y="51.50666666666665" type="curve" smooth="yes"/>
      <point x="702.0" y="86.30666666666666" type="line" smooth="yes"/>
      <point x="702.0" y="110.18666666666665"/>
      <point x="706.9333333333334" y="133.74666666666664"/>
      <point x="718.5866666666666" y="170.23999999999998" type="curve" smooth="yes"/>
      <point x="1020.4266666666666" y="1118.226666666667" type="line"/>
    </contour>
    <contour>
      <point x="1532.24" y="1361.8933333333332" type="curve" smooth="yes"/>
      <point x="1532.24" y="1340.96"/>
      <point x="1546.8" y="1327.4266666666667"/>
      <point x="1571.7466666666667" y="1322.6933333333334" type="curve" smooth="yes"/>
      <point x="1656.3866666666668" y="1311.8933333333334" type="line" smooth="yes"/>
      <point x="1706.2622728903013" y="1303.2733719388593"/>
      <point x="1712.0173697475605" y="1285.1917918019715"/>
      <point x="1693.0533333333333" y="1223.8533333333332" type="curve" smooth="yes"/>
      <point x="1339.8133333333333" y="75.27999999999999" type="line"/>
      <point x="1387.6799999999998" y="117.45333333333329" type="line"/>
      <point x="1056.1733333333332" y="1226.3866666666668" type="line" smooth="yes"/>
      <point x="1036.72" y="1290.6533333333332"/>
      <point x="1041.3733333333332" y="1304.6666666666667"/>
      <point x="1075.7066666666665" y="1310.7866666666666" type="curve" smooth="yes"/>
      <point x="1160.12" y="1321.0933333333335" type="line" smooth="yes"/>
      <point x="1187.0" y="1327.3999999999999"/>
      <point x="1201.7600000000002" y="1340.1466666666665"/>
      <point x="1201.7600000000002" y="1361.8933333333332" type="curve" smooth="yes"/>
      <point x="1201.7600000000002" y="1386.3600000000001"/>
      <point x="1186.0933333333332" y="1400.0"/>
      <point x="1154.5466666666666" y="1400.0" type="curve" smooth="yes"/>
      <point x="817.9199999999998" y="1400.0" type="line" smooth="yes"/>
      <point x="787.1466666666666" y="1400.0"/>
      <point x="770.7066666666666" y="1386.3600000000001"/>
      <point x="770.7066666666666" y="1361.8933333333332" type="curve" smooth="yes"/>
      <point x="770.7066666666666" y="1340.76"/>
      <point x="784.52" y="1330.2933333333333"/>
      <point x="810.2399999999999" y="1322.7733333333335" type="curve" smooth="yes"/>
      <point x="851.4" y="1312.9333333333334" type="line" smooth="yes"/>
      <point x="876.1199999999999" y="1305.7733333333333"/>
      <point x="890.2" y="1289.84"/>
      <point x="902.0400000000001" y="1250.7866666666666" type="curve" smooth="yes"/>
      <point x="1227.3466666666666" y="165.10666666666665" type="line" smooth="yes"/>
      <point x="1238.3333333333333" y="128.14666666666665"/>
      <point x="1243.7866666666669" y="111.33333333333333"/>
      <point x="1243.7866666666669" y="86.49333333333334" type="curve" smooth="yes"/>
      <point x="1243.7866666666669" y="53.37333333333332" type="line" smooth="yes"/>
      <point x="1243.7866666666669" y="18.733333333333334"/>
      <point x="1258.4533333333334" y="0.0"/>
      <point x="1285.3866666666668" y="0.0" type="curve" smooth="yes"/>
      <point x="1400.8" y="0.0" type="line" smooth="yes"/>
      <point x="1425.0" y="0.0"/>
      <point x="1439.1999999999998" y="18.733333333333334"/>
      <point x="1439.1999999999998" y="53.37333333333332" type="curve" smooth="yes"/>
      <point x="1439.1999999999998" y="87.05333333333331" type="line" smooth="yes"/>
      <point x="1439.1999999999998" y="111.30666666666666"/>
      <point x="1445.5466666666666" y="135.23999999999998"/>
      <point x="1456.5333333333333" y="170.61333333333332" type="curve" smooth="yes"/>
      <point x="1779.1866666666667" y="1220.32" type="line" smooth="yes"/>
      <point x="1797.6266666666668" y="1280.2533333333333"/>
      <point x="1814.4133333333334" y="1302.0533333333333"/>
      <point x="1845.7866666666666" y="1310.7866666666666" type="curve" smooth="yes"/>
      <point x="1888.76" y="1321.2933333333333" type="line" smooth="yes"/>
      <point x="1915.9466666666665" y="1329.9199999999998"/>
      <point x="1930.1199999999997" y="1340.5466666666666"/>
      <point x="1930.1199999999997" y="1361.8933333333332" type="curve" smooth="yes"/>
      <point x="1930.1199999999997" y="1384.6666666666667"/>
      <point x="1914.253333333333" y="1400.0"/>
      <point x="1882.9066666666668" y="1400.0" type="curve" smooth="yes"/>
      <point x="1579.4533333333334" y="1400.0" type="line" smooth="yes"/>
      <point x="1547.84" y="1400.0"/>
      <point x="1532.24" y="1386.3600000000001"/>
    </contour>
  </outline>
</glyph>
<glyph name="X" format="2">
  <advance width="1359.0400000000002"/>
  <unicode hex="0058"/>
  <outline>
    <contour>
      <point x="1128.7733333333333" y="193.10666666666668" type="curve" smooth="yes"/>
      <point x="404.14666666666665" y="1216.0800000000002" type="line" smooth="yes"/>
      <point x="368.76976524667936" y="1265.6882412598525"/>
      <point x="379.88103991883446" y="1296.6384633231876"/>
      <point x="447.2533333333333" y="1310.7866666666666" type="curve" smooth="yes"/>
      <point x="502.41333333333336" y="1320.5866666666666" type="line" smooth="yes"/>
      <point x="527.92" y="1327.9066666666665"/>
      <point x="541.9466666666667" y="1339.8000000000002"/>
      <point x="541.9466666666667" y="1361.8933333333332" type="curve" smooth="yes"/>
      <point x="541.9466666666667" y="1386.16"/>
      <point x="526.3733333333333" y="1400.0"/>
      <point x="494.73333333333335" y="1400.0" type="curve" smooth="yes"/>
      <point x="102.90666666666667" y="1400.0" type="line" smooth="yes"/>
      <point x="70.66666666666667" y="1400.0"/>
      <point x="54.89333333333334" y="1386.3600000000001"/>
      <point x="54.89333333333334" y="1361.8933333333332" type="curve" smooth="yes"/>
      <point x="54.89333333333334" y="1342.8266666666666"/>
      <point x="63.25333333333334" y="1331.8533333333332"/>
      <point x="110.88" y="1318.466666666667" type="curve" smooth="yes"/>
      <point x="175.4567110786902" y="1304.0558745155254"/>
      <point x="191.61333333333334" y="1278.9066666666668"/>
      <point x="248.52" y="1198.0266666666666" type="curve" smooth="yes"/>
      <point x="972.4533333333334" y="171.71999999999997" type="line" smooth="yes"/>
      <point x="1006.8266666666667" y="123.70666666666665"/>
      <point x="1005.7866666666666" y="102.85333333333334"/>
      <point x="920.8399999999999" y="86.38666666666667" type="curve" smooth="yes"/>
      <point x="857.7066666666666" y="74.45333333333335"/>
      <point x="842.0133333333334" y="61.543333333333344"/>
      <point x="842.0133333333334" y="38.10666666666667" type="curve" smooth="yes"/>
      <point x="842.0133333333334" y="13.640000000000004"/>
      <point x="857.5066666666667" y="0.0"/>
      <point x="889.2266666666667" y="0.0" type="curve" smooth="yes"/>
      <point x="1280.6266666666668" y="0.0" type="line" smooth="yes"/>
      <point x="1311.6000000000001" y="0.0"/>
      <point x="1327.84" y="13.640000000000004"/>
      <point x="1327.84" y="38.10666666666667" type="curve" smooth="yes"/>
      <point x="1327.84" y="61.94666666666665"/>
      <point x="1310.3733333333334" y="73.24000000000001"/>
      <point x="1280.4266666666667" y="81.61333333333333" type="curve" smooth="yes"/>
      <point x="1200.4745782157486" y="98.56638642582446"/>
      <point x="1185.8593908509906" y="113.01028441227722"/>
    </contour>
    <contour>
      <point x="722.88" y="687.7333333333332" type="line"/>
      <point x="1067.7999999999997" y="1172.5866666666666" type="line" smooth="yes"/>
      <point x="1138.9371672998332" y="1272.327115576825"/>
      <point x="1158.4465451279546" y="1299.4166464102148"/>
      <point x="1208.6" y="1310.5866666666666" type="curve" smooth="yes"/>
      <point x="1272.2266666666665" y="1327.1733333333332"/>
      <point x="1287.6799999999998" y="1340.6933333333334"/>
      <point x="1287.6799999999998" y="1362.4933333333333" type="curve" smooth="yes"/>
      <point x="1287.6799999999998" y="1386.8666666666668"/>
      <point x="1271.9066666666668" y="1400.0"/>
      <point x="1240.0933333333332" y="1400.0" type="curve" smooth="yes"/>
      <point x="902.3733333333332" y="1400.0" type="line" smooth="yes"/>
      <point x="871.5333333333333" y="1400.0"/>
      <point x="856.2666666666668" y="1386.3600000000001"/>
      <point x="856.2666666666668" y="1361.8933333333332" type="curve" smooth="yes"/>
      <point x="856.2666666666668" y="1339.7333333333333"/>
      <point x="870.6933333333333" y="1327.4533333333334"/>
      <point x="896.9733333333334" y="1319.7866666666666" type="curve" smooth="yes"/>
      <point x="968.1466666666666" y="1309.0" type="line" smooth="yes"/>
      <point x="1025.1066666666666" y="1298.1866666666665"/>
      <point x="1033.7733333333333" y="1263.8133333333333"/>
      <point x="998.8266666666667" y="1214.4933333333333" type="curve" smooth="yes"/>
      <point x="665.8933333333333" y="744.5066666666667" type="line"/>
    </contour>
    <contour>
      <point x="617.08" y="740.4" type="line"/>
      <point x="231.22666666666663" y="192.62666666666667" type="line" smooth="yes"/>
      <point x="195.35765367082976" y="142.21648050624466"/>
      <point x="156.76807833369597" y="100.89163397440545"/>
      <point x="101.86666666666666" y="87.41333333333334" type="curve" smooth="yes"/>
      <point x="53.199999999999996" y="75.07999999999997"/>
      <point x="42.29333333333334" y="57.94666666666665"/>
      <point x="42.29333333333334" y="38.906666666666666" type="curve" smooth="yes"/>
      <point x="42.29333333333334" y="13.640000000000004"/>
      <point x="58.440000000000005" y="0.0"/>
      <point x="89.50666666666666" y="0.0" type="curve" smooth="yes"/>
      <point x="419.09333333333336" y="0.0" type="line" smooth="yes"/>
      <point x="449.15999999999997" y="0.0"/>
      <point x="465.1066666666667" y="13.840000000000003"/>
      <point x="465.1066666666667" y="38.10666666666667" type="curve" smooth="yes"/>
      <point x="465.1066666666667" y="59.94666666666665"/>
      <point x="451.2133333333333" y="72.0"/>
      <point x="424.6" y="78.70666666666665" type="curve" smooth="yes"/>
      <point x="365.8133333333333" y="86.98666666666665" type="line" smooth="yes"/>
      <point x="289.6174841401008" y="98.13194605341974"/>
      <point x="277.19708752831485" y="119.01630952858905"/>
      <point x="316.38666666666666" y="174.2533333333333" type="curve" smooth="yes"/>
      <point x="679.76" y="691.3333333333333" type="line"/>
    </contour>
  </outline>
</glyph>
<glyph name="Y" format="2">
  <advance width="1291.6933333333334"/>
  <unicode hex="0059"/>
  <anchor x="684.72" y="1426.4133333333332" name="center"/>
  <outline>
    <contour>
      <point x="691.9066666666666" y="430.3333333333333" type="line"/>
      <point x="1106.04" y="1225.92" type="line" smooth="yes"/>
      <point x="1143.0133333333333" y="1296.3466666666668"/>
      <point x="1153.5333333333335" y="1307.2400000000002"/>
      <point x="1195.3066666666666" y="1315.9866666666667" type="curve" smooth="yes"/>
      <point x="1210.9733333333334" y="1319.4933333333333" type="line" smooth="yes"/>
      <point x="1250.4" y="1328.8799999999999"/>
      <point x="1256.8799999999999" y="1344.0133333333333"/>
      <point x="1256.8799999999999" y="1361.8933333333332" type="curve" smooth="yes"/>
      <point x="1256.8799999999999" y="1384.6666666666667"/>
      <point x="1241.1066666666666" y="1400.0"/>
      <point x="1209.6666666666667" y="1400.0" type="curve" smooth="yes"/>
      <point x="907.5066666666667" y="1400.0" type="line" smooth="yes"/>
      <point x="876.0666666666666" y="1400.0"/>
      <point x="860.2933333333333" y="1386.3600000000001"/>
      <point x="860.2933333333333" y="1361.8933333333332" type="curve" smooth="yes"/>
      <point x="860.2933333333333" y="1339.8266666666666"/>
      <point x="875.36" y="1325.9466666666667"/>
      <point x="899.6266666666666" y="1320.5866666666666" type="curve" smooth="yes"/>
      <point x="977.3466666666668" y="1309.9866666666667" type="line" smooth="yes"/>
      <point x="1031.9066666666668" y="1299.8933333333334"/>
      <point x="1040.5866666666668" y="1278.52"/>
      <point x="1015.4" y="1230.2" type="curve" smooth="yes"/>
      <point x="627.4133333333333" y="480.66666666666663" type="line"/>
      <point x="712.0666666666667" y="513.5733333333334" type="line"/>
      <point x="341.25333333333333" y="1234.9733333333334" type="line" smooth="yes"/>
      <point x="317.72" y="1281.0"/>
      <point x="329.40000000000003" y="1298.9333333333334"/>
      <point x="384.8533333333333" y="1309.7866666666666" type="curve" smooth="yes"/>
      <point x="446.6933333333333" y="1317.68" type="line" smooth="yes"/>
      <point x="484.29333333333335" y="1325.4533333333334"/>
      <point x="500.76000000000005" y="1339.4266666666667"/>
      <point x="500.76000000000005" y="1361.8933333333332" type="curve" smooth="yes"/>
      <point x="500.76000000000005" y="1386.3600000000001"/>
      <point x="481.6933333333333" y="1400.0"/>
      <point x="448.7466666666666" y="1400.0" type="curve" smooth="yes"/>
      <point x="83.2" y="1400.0" type="line" smooth="yes"/>
      <point x="51.38666666666666" y="1400.0"/>
      <point x="35.61333333333334" y="1386.3600000000001"/>
      <point x="35.61333333333334" y="1361.8933333333332" type="curve" smooth="yes"/>
      <point x="35.61333333333334" y="1343.0666666666666"/>
      <point x="44.16" y="1327.5066666666667"/>
      <point x="81.72" y="1318.9866666666667" type="curve" smooth="yes"/>
      <point x="112.72" y="1311.7866666666666" type="line" smooth="yes"/>
      <point x="142.65333333333334" y="1303.68"/>
      <point x="154.66666666666666" y="1291.7066666666665"/>
      <point x="175.98666666666668" y="1250.7866666666666" type="curve" smooth="yes"/>
      <point x="607.5066666666667" y="420.56" type="line"/>
    </contour>
    <contour>
      <point x="573.64" y="522.3066666666667" type="line"/>
      <point x="573.64" y="168.23999999999998" type="line" smooth="yes"/>
      <point x="573.64" y="126.05333333333334"/>
      <point x="552.6133333333333" y="102.01333333333335"/>
      <point x="510.70666666666665" y="91.84000000000002" type="curve" smooth="yes"/>
      <point x="452.81333333333333" y="80.81333333333333" type="line" smooth="yes"/>
      <point x="426.0133333333333" y="73.22666666666665"/>
      <point x="411.08" y="60.17333333333331"/>
      <point x="411.08" y="38.10666666666667" type="curve" smooth="yes"/>
      <point x="411.08" y="13.453333333333331"/>
      <point x="427.2266666666667" y="0.0"/>
      <point x="458.2933333333333" y="0.0" type="curve" smooth="yes"/>
      <point x="834.2266666666667" y="0.0" type="line" smooth="yes"/>
      <point x="865.2933333333334" y="0.0"/>
      <point x="881.4400000000002" y="13.453333333333331"/>
      <point x="881.4400000000002" y="38.10666666666667" type="curve" smooth="yes"/>
      <point x="881.4400000000002" y="60.27999999999998"/>
      <point x="866.5066666666665" y="72.85333333333331"/>
      <point x="839.3333333333333" y="80.81333333333333" type="curve" smooth="yes"/>
      <point x="781.4399999999999" y="91.84000000000002" type="line" smooth="yes"/>
      <point x="740.5466666666666" y="101.31999999999998"/>
      <point x="718.8799999999999" y="125.52"/>
      <point x="718.8799999999999" y="168.23999999999998" type="curve" smooth="yes"/>
      <point x="718.8799999999999" y="522.3066666666667" type="line"/>
    </contour>
  </outline>
</glyph>
<glyph name="Z" format="2">
  <advance width="1187.52"/>
  <unicode hex="005A"/>
  <anchor x="645.9733333333334" y="1494.4266666666667" name="center"/>
  <outline>
    <contour>
      <point x="1049.6666666666667" y="1287.68" type="line" smooth="yes"/>
      <point x="1069.0626995055336" y="1317.1083713230728"/>
      <point x="1078.0133333333333" y="1334.8026666666665"/>
      <point x="1078.0133333333333" y="1357.333333333333" type="curve" smooth="yes"/>
      <point x="1078.0133333333333" y="1382.0792156862744"/>
      <point x="1060.4133333333334" y="1400.0"/>
      <point x="1026.28" y="1400.0" type="curve" smooth="yes"/>
      <point x="348.3333333333333" y="1400.0" type="line" smooth="yes"/>
      <point x="305.08" y="1400.0"/>
      <point x="285.3066666666667" y="1445.0"/>
      <point x="246.29333333333332" y="1445.0" type="curve" smooth="yes"/>
      <point x="217.37333333333333" y="1445.0"/>
      <point x="201.0" y="1428.5600000000002"/>
      <point x="193.26666666666668" y="1393.8266666666666" type="curve" smooth="yes"/>
      <point x="127.44" y="1107.1333333333334" type="line" smooth="yes"/>
      <point x="119.90666666666667" y="1073.04"/>
      <point x="130.93333333333334" y="1054.7199999999998"/>
      <point x="153.2" y="1050.84" type="curve" smooth="yes"/>
      <point x="177.29333333333332" y="1046.6533333333332"/>
      <point x="199.35999999999999" y="1060.9333333333334"/>
      <point x="212.73333333333335" y="1094.8933333333332" type="curve" smooth="yes"/>
      <point x="252.09333333333333" y="1204.08" type="line" smooth="yes"/>
      <point x="282.13705990755193" y="1282.545364991189"/>
      <point x="324.51539393939396" y="1317.5733333333335"/>
      <point x="394.4533333333334" y="1317.5733333333335" type="curve" smooth="yes"/>
      <point x="960.0933333333332" y="1317.5733333333335" type="line"/>
      <point x="930.0133333333333" y="1357.746666666667" type="line"/>
      <point x="108.30666666666667" y="119.41333333333334" type="line" smooth="yes"/>
      <point x="92.63258192055889" y="95.73296342750655"/>
      <point x="78.56" y="74.68561403508771"/>
      <point x="78.56" y="47.146666666666675" type="curve" smooth="yes"/>
      <point x="78.56" y="19.737471264367812"/>
      <point x="95.78666666666666" y="0.0"/>
      <point x="129.45333333333335" y="0.0" type="curve" smooth="yes"/>
      <point x="894.1333333333333" y="0.0" type="line" smooth="yes"/>
      <point x="932.0407843137255" y="0.0"/>
      <point x="954.4533333333334" y="-33.6"/>
      <point x="989.4933333333333" y="-33.6" type="curve" smooth="yes"/>
      <point x="1019.8133333333334" y="-33.6"/>
      <point x="1035.0133333333333" y="-17.733333333333334"/>
      <point x="1043.4533333333334" y="17.573333333333323" type="curve" smooth="yes"/>
      <point x="1116.9466666666665" y="349.1333333333334" type="line" smooth="yes"/>
      <point x="1124.4799999999998" y="380.90666666666664"/>
      <point x="1115.0133333333333" y="401.4533333333334"/>
      <point x="1092.6666666666667" y="405.48" type="curve" smooth="yes"/>
      <point x="1071.8933333333332" y="409.12"/>
      <point x="1055.5733333333333" y="400.48"/>
      <point x="1044.08" y="372.90666666666664" type="curve" smooth="yes"/>
      <point x="996.3066666666666" y="234.53333333333333" type="line" smooth="yes"/>
      <point x="953.2734028409669" y="117.14583608799363"/>
      <point x="894.5510077519381" y="82.05333333333333"/>
      <point x="803.1866666666666" y="82.05333333333333" type="curve" smooth="yes"/>
      <point x="138.22666666666666" y="82.05333333333333" type="line"/>
      <point x="226.62666666666667" y="46.23999999999999" type="line"/>
    </contour>
  </outline>
</glyph>
<glyph name="bracketleft" format="2">
  <advance width="573.8933333333333"/>
  <unicode hex="005B"/>
  <outline>
    <contour>
      <point x="285.70666666666665" y="1349.4266666666665" type="line" smooth="yes"/>
      <point x="285.70666666666665" y="1378.6666666666667"/>
      <point x="297.8706796116505" y="1391.3333333333335"/>
      <point x="325.93333333333334" y="1391.3333333333335" type="curve" smooth="yes"/>
      <point x="518.5466666666666" y="1391.3333333333335" type="line" smooth="yes"/>
      <point x="545.9066666666666" y="1391.3333333333335"/>
      <point x="561.3866666666667" y="1405.3733333333332"/>
      <point x="561.3866666666667" y="1432.3066666666668" type="curve" smooth="yes"/>
      <point x="561.3866666666667" y="1458.48"/>
      <point x="545.9066666666666" y="1473.1733333333332"/>
      <point x="518.5466666666666" y="1473.1733333333332" type="curve" smooth="yes"/>
      <point x="226.26666666666665" y="1473.1733333333332" type="line" smooth="yes"/>
      <point x="185.86666666666667" y="1473.1733333333332"/>
      <point x="168.58666666666667" y="1453.28"/>
      <point x="168.58666666666667" y="1411.28" type="curve" smooth="yes"/>
      <point x="168.58666666666667" y="-187.57333333333335" type="line" smooth="yes"/>
      <point x="168.58666666666667" y="-229.94666666666666"/>
      <point x="185.86666666666667" y="-250.21333333333334"/>
      <point x="226.26666666666665" y="-250.21333333333334" type="curve" smooth="yes"/>
      <point x="518.5466666666666" y="-250.21333333333334" type="line" smooth="yes"/>
      <point x="545.9066666666666" y="-250.21333333333334"/>
      <point x="561.3866666666667" y="-235.14666666666665"/>
      <point x="561.3866666666667" y="-209.34666666666666" type="curve" smooth="yes"/>
      <point x="561.3866666666667" y="-182.04000000000002"/>
      <point x="545.5333333333332" y="-168.37333333333333"/>
      <point x="518.5466666666666" y="-168.37333333333333" type="curve" smooth="yes"/>
      <point x="325.93333333333334" y="-168.37333333333333" type="line" smooth="yes"/>
      <point x="297.8706796116505" y="-168.37333333333333"/>
      <point x="285.70666666666665" y="-155.33333333333337"/>
      <point x="285.70666666666665" y="-125.99999999999999" type="curve" smooth="yes"/>
    </contour>
  </outline>
</glyph>
<glyph name="asciicircum" format="2">
  <advance width="850.44"/>
  <unicode hex="005E"/>
  <outline>
    <contour>
      <point x="460.9866666666666" y="1329.3866666666668" type="line"/>
      <point x="178.76" y="809.5200000000001" type="line" smooth="yes"/>
      <point x="153.82666666666665" y="768.8000000000001"/>
      <point x="126.9066666666667" y="762.8133333333334"/>
      <point x="103.89333333333333" y="776.9466666666667" type="curve" smooth="yes"/>
      <point x="82.52000000000001" y="789.68"/>
      <point x="78.98666666666668" y="817.8533333333334"/>
      <point x="96.58666666666667" y="852.6266666666667" type="curve" smooth="yes"/>
      <point x="348.92" y="1357.6933333333334" type="line" smooth="yes"/>
      <point x="378.68" y="1415.4"/>
      <point x="397.44" y="1427.2666666666667"/>
      <point x="427.7866666666667" y="1427.2666666666667" type="curve" smooth="yes"/>
      <point x="458.22666666666663" y="1427.2666666666667"/>
      <point x="476.98666666666657" y="1415.0266666666669"/>
      <point x="506.3733333333334" y="1357.6933333333334" type="curve" smooth="yes"/>
      <point x="754.2266666666667" y="852.6266666666667" type="line" smooth="yes"/>
      <point x="771.8266666666667" y="817.8533333333334"/>
      <point x="768.2933333333334" y="789.68"/>
      <point x="747.2933333333333" y="776.9466666666667" type="curve" smooth="yes"/>
      <point x="724.1866666666666" y="762.8133333333334"/>
      <point x="696.8933333333333" y="768.7066666666666"/>
      <point x="672.3333333333333" y="809.5200000000001" type="curve" smooth="yes"/>
      <point x="394.3066666666666" y="1329.3866666666668" type="line"/>
    </contour>
  </outline>
</glyph>
